<?xml version="1.0" standalone="no"?>
<!DOCTYPE svg PUBLIC "-//W3C//DTD SVG 1.1//EN" "http://www.w3.org/Graphics/SVG/1.1/DTD/svg11.dtd" >
<svg>
<metadata>
Created by FontForge 20120731 at Sat Dec 20 00:44:50 2014
 By Orthosie Webhosting
 
</metadata>
<defs>
<font id="GeoAcadMtavrRegular" horiz-adv-x="500" >
  <font-face 
    font-family="GeoAcadMtavrRegular"
    font-weight="400"
    font-stretch="normal"
    units-per-em="1000"
    panose-1="0 0 0 0 0 0 0 0 0 0"
    ascent="800"
    descent="-200"
    x-height="676"
    cap-height="665"
    bbox="-8 -214 1011 707"
    underline-thickness="50"
    underline-position="-55"
    unicode-range="U+0020-F002"
  />
<missing-glyph 
d="M63 0v707h375v-707h-375zM125 63h250v582h-250v-582z" />
    <glyph glyph-name=".notdef" 
d="M63 0v707h375v-707h-375zM125 63h250v582h-250v-582z" />
    <glyph glyph-name=".null" horiz-adv-x="0" 
 />
    <glyph glyph-name="nonmarkingreturn" 
 />
    <glyph glyph-name="space" unicode=" " 
 />
    <glyph glyph-name="exclam" unicode="!" horiz-adv-x="234" 
d="M167 -11q-22 1 -38 15.5t-16 36.5q0 23 15.5 38.5t38.5 15.5t38.5 -15.5t15.5 -38.5q0 -22 -15.5 -36.5t-38.5 -14.5v-1zM177 176h-20l-37 344q-9 77 -9 89v3v2q2 65 56 65q53 0 56 -65v-2v-3q0 -12 -8 -89z" />
    <glyph glyph-name="quotedbl" unicode="&#x22;" horiz-adv-x="360" 
d="M127 394h-24q0 2 -23 115q-14 72 -14 116q0 54 49 54t49 -54q0 -45 -14 -116q-11 -57 -23 -115zM306 394h-24q0 2 -23 115q-14 72 -14 116q0 54 49 54t49 -54q0 -45 -14 -116q-11 -57 -23 -115z" />
    <glyph glyph-name="numbersign" unicode="#" horiz-adv-x="911" 
d="M163 525l-1 -394q0 -67 13 -86q17 -23 81 -23v-18h-231v18q65 0 82 23q12 17 12 86v448l-10 12q-47 56 -116 56l-1 18h180l399 -494h2v368q0 69 -12 86q-17 22 -82 22v18h345v-18q-108 0 -138 -9q-70 -20 -70 -99v-542h-18l-434 528h-1zM695 203h148v-42h-148v42z
M771 468q42 0 69.5 -33.5t27.5 -76.5q0 -44 -29 -77.5t-72 -33.5q-42 0 -68 35q-23 32 -23 76q0 42 27 76t68 34zM769 446q-54 0 -54 -88q0 -94 52 -94q31 0 47 34q12 25 12 60q0 88 -57 88z" />
    <glyph glyph-name="dollar" unicode="$" horiz-adv-x="445" 
d="M184 416q-61 64 -61 123q0 60 40 100t100 40q50 0 85 -29q38 -32 38 -80q0 -17 -10.5 -29.5t-27.5 -12.5q-16 0 -27.5 11t-11.5 27q0 11 4 23l2 12q1 6 1 12q0 46 -53 46q-35 0 -62.5 -24t-27.5 -59q0 -64 108 -141q67 -49 97 -84q46 -54 46 -114q0 -50 -31 -95t-77 -70
q60 -63 60 -118q0 -61 -39 -102t-100 -41q-48 0 -85 31.5t-37 78.5q0 16 11 29.5t27 13.5q36 0 36 -43q0 -15 -4 -27q-4 -28 -4 -26q0 -26 38 -34q9 -3 22 -3h8q30 4 53.5 27t23.5 53q0 56 -85 124q-7 5 -20 15l-20 16q-60 47 -85 78q-40 50 -40 105q0 106 108 167zM200 401
q-74 -43 -74 -110q0 -42 34 -83q20 -24 68 -62l39 -31q19 -15 33 -29q74 41 74 105q0 59 -65 119q-55 45 -109 91z" />
    <glyph glyph-name="percent" unicode="%" horiz-adv-x="841" 
d="M678 679l-473 -690h-44l473 690h44zM658 346q66 0 106 -54q35 -49 37 -117v-4v-5v-2q-1 -70 -37 -118q-39 -55 -106 -55t-106 55q-34 48 -35 118v2v1v4v4q2 69 36 117q40 54 105 54zM659 320q-49 0 -60 -85q-4 -30 -4 -69q0 -82 22 -126q13 -26 41 -26q50 0 60 85
q3 26 3 67v2v0q0 83 -20 126q-13 26 -42 26zM175 678q65 0 105 -54q34 -48 36 -117v-4v-8v-4q-2 -69 -36 -117q-40 -54 -105 -54t-105 54q-34 48 -36 117v4v8v4q2 69 36 117q40 54 105 54zM176 652q-51 0 -61 -85q-3 -26 -3 -67v-1v-1q0 -81 22 -126q12 -26 40 -26
q51 0 61 85q3 26 3 67v2v0q0 81 -21 126q-13 26 -41 26z" />
    <glyph glyph-name="ampersand" unicode="&#x26;" horiz-adv-x="785" 
d="M730 134l18 -13q-14 -60 -54.5 -95.5t-101.5 -35.5q-85 0 -169 92l-14 -12q-48 -41 -99 -62q-44 -18 -102 -18h-1h-2q-70 1 -117 36q-53 39 -53 106q0 139 202 240q-39 85 -39 147q0 71 48.5 115.5t119.5 44.5q56 0 94 -31q39 -34 39 -89q0 -87 -123 -155q-13 -7 -38 -20
q61 -118 130 -202q8 9 23 28q63 92 63 144v6q-1 4 -1 6q-10 44 -44 44v18h204v-18q-42 0 -67 -23q-11 -11 -40 -58q-9 -15 -27 -44l-28 -44q-28 -44 -60 -88l2 -1v-2q77 -88 147 -88q34 0 58.5 19.5t31.5 52.5zM398 110q-61 71 -144 229q-118 -62 -118 -162q0 -53 34.5 -92
t87.5 -39q40 0 76 20q13 7 64 44zM322 416q120 52 120 147q0 33 -20.5 56.5t-52.5 23.5q-38 0 -63 -25.5t-25 -63.5q0 -56 41 -138z" />
    <glyph glyph-name="quotesingle" unicode="'" 
 />
    <glyph glyph-name="parenleft" unicode="(" horiz-adv-x="327" 
d="M312 696v-21q-153 -83 -173 -343q-3 -38 -3 -91q0 -163 47 -286q37 -96 129 -146v-23q-130 71 -200 189t-70 266t70 266.5t200 188.5z" />
    <glyph glyph-name="parenright" unicode=")" horiz-adv-x="307" 
d="M23 -192q176 98 176 433q0 53 -3 91q-20 260 -173 343v21q130 -70 200 -188.5t70 -266.5q0 -149 -69.5 -266.5t-200.5 -187.5v21z" />
    <glyph glyph-name="asterisk" unicode="*" horiz-adv-x="450" 
d="M231 494q-12 8 -74 22q-41 9 -56 16q-30 16 -30 44q0 15 11 25t26 10q24 0 47 -19q18 -19 36.5 -38t22.5 -23q14 -13 27 -19q0 26 -15.5 68.5t-15.5 62.5v2v1q2 50 40 50q37 0 40 -50v-1v-2q0 -17 -15 -61q-16 -47 -16 -70q19 8 54 47q47 52 79 52q15 0 26 -10t11 -25
q0 -46 -93 -61q-50 -9 -67 -21q12 -8 74 -22q41 -9 56 -16q30 -16 30 -44q0 -15 -11 -25t-26 -10q-24 0 -47 19q-18 19 -36.5 38t-22.5 23q-14 13 -27 19q0 -23 15.5 -68.5t15.5 -62.5v-1v-2q-3 -50 -40 -50q-38 0 -40 50v2v1q0 14 16 61q15 44 15 70q-19 -8 -54 -47
q-47 -52 -79 -52q-15 0 -26 10t-11 25q0 46 93 62q49 8 67 20z" />
    <glyph glyph-name="plus" unicode="+" horiz-adv-x="572" 
d="M262 71v243h-242v40h242v243h40v-243h243v-40h-243v-243h-40z" />
    <glyph glyph-name="comma" unicode="," horiz-adv-x="233" 
d="M77 -127q44 13 74.5 48t30.5 78v3q0 1 -1 3q-3 11 -12 11q-4 0 -16 -7t-26 -7q-23 0 -36.5 14.5t-13.5 37.5q0 26 18.5 43t44.5 17q38 0 60 -32.5t22 -71.5q0 -58 -45 -102q-40 -38 -100 -55v20z" />
    <glyph glyph-name="hyphen" unicode="-" horiz-adv-x="308" 
d="M41 264h253v-76h-253v76z" />
    <glyph glyph-name="hyphen" unicode="&#x2010;" horiz-adv-x="308" 
d="M41 264h253v-76h-253v76z" />
    <glyph glyph-name="period" unicode="." horiz-adv-x="194" 
d="M132 -1q-22 1 -38 15.5t-16 36.5q0 23 15.5 38.5t38.5 15.5t38.5 -15.5t15.5 -38.5q0 -22 -15.5 -36.5t-38.5 -14.5v-1z" />
    <glyph glyph-name="slash" unicode="/" horiz-adv-x="291" 
d="M278 696l-239 -706h-39l240 706h38z" />
    <glyph glyph-name="zero" unicode="0" horiz-adv-x="488" 
d="M251 678q92 0 164 -116q50 -82 50 -229q0 -109 -33 -193q-43 -107 -129 -140q-26 -10 -52 -10q-92 0 -163 114q-51 81 -51 229q0 108 34 194q42 107 128 141q26 10 52 10zM251 648q-118 0 -118 -348q0 -144 46 -234q24 -49 72 -49q118 0 118 349q0 147 -43 234
q-25 48 -75 48z" />
    <glyph glyph-name="one" unicode="1" horiz-adv-x="397" 
d="M118 599l161 79h17v-546q0 -66 9 -84q15 -28 74 -28v-18h-249v18q56 1 70.5 15.5t14.5 70.5v399q0 43 -3 58q-8 36 -36 36q-18 0 -34 -8q-5 -1 -9 -3l-8 -4z" />
    <glyph glyph-name="two" unicode="2" horiz-adv-x="481" 
d="M459 128l-46 -126h-391v18q133 131 179 183q116 133 130 215q3 18 3 41q0 60 -33 101q-36 44 -94 44q-52 0 -92.5 -31.5t-54.5 -81.5h-18q13 85 57 133q50 54 132 54q76 0 131 -48q57 -51 57 -126q0 -117 -145 -272l-147 -157h206q51 0 86 25q14 10 22 28h18z" />
    <glyph glyph-name="three" unicode="3" horiz-adv-x="438" 
d="M153 330v14q65 11 106 49q45 42 45 105q0 51 -30.5 82t-81.5 31q-76 0 -125 -81l-15 8q52 140 177 140q101 0 141 -78q15 -29 15 -58v-6q0 -4 -1 -7q-12 -76 -90 -135q124 -48 124 -176q0 -92 -73 -165q-63 -63 -192 -63q-27 0 -49 4q-63 12 -63 46q0 37 41 37
q13 0 33.5 -7t29.5 -16q44 -22 78 -22q53 0 88 42q34 39 34 93q0 87 -78 138q-40 25 -114 25z" />
    <glyph glyph-name="four" unicode="4" horiz-adv-x="489" 
d="M466 245v-70h-89v-173h-81v173h-280v63l308 440h53v-433h89zM296 245v327h-2l-230 -327h232z" />
    <glyph glyph-name="five" unicode="5" horiz-adv-x="456" 
d="M435 664l-36 -80h-199l-46 -92h3q2 -1 3 -1q109 -14 182 -78q82 -72 82 -176t-79 -175.5t-184 -71.5q-40 0 -71 12q-41 17 -41 51q0 16 11.5 26.5t27.5 10.5q24 0 58 -25.5t69 -25.5q60 0 103 43.5t43 103.5q0 108 -95 168q-81 52 -195 52l127 258h237z" />
    <glyph glyph-name="six" unicode="6" horiz-adv-x="485" 
d="M449 678v-18q-97 -3 -196 -98t-99 -191q64 49 140 49t123 -60q44 -56 45 -134v-1v-2q0 -92 -56 -161q-60 -72 -151 -72q-99 0 -159 90q-52 79 -52 183q0 160 111 285q115 130 273 130h21zM375 173q0 96 -46 164q-29 41 -81 41q-43 0 -101 -43q-9 -81 -9 -100
q0 -103 52 -178q27 -40 73 -40q57 0 87 52q25 43 25 104z" />
    <glyph glyph-name="seven" unicode="7" horiz-adv-x="478" 
d="M101 664h355v-18l-220 -657h-55l198 595h-188q-51 0 -82 -18.5t-57 -63.5l-14 5z" />
    <glyph glyph-name="eight" unicode="8" horiz-adv-x="465" 
d="M193 335l-1 2h-2q-2 2 -17 15q-52 45 -72 74q-31 43 -31 96q0 71 55 115q51 41 123 41q67 0 120 -35q61 -39 61 -103v-6q0 -89 -137 -165q70 -52 114 -105q37 -45 37 -105q0 -78 -58 -125q-54 -44 -134 -44q-118 0 -168 87q-22 38 -22 72q0 53 43 108q36 46 89 78z
M215 317q-79 -60 -79 -162q0 -60 31 -97q34 -41 92 -41q47 0 80.5 27t33.5 73q0 15 -3 24q-12 59 -155 176zM269 387q47 41 64 67q26 39 26 87q0 51 -29 79t-80 28h-2h-4q-42 -2 -73 -28t-31 -66q0 -51 46 -96q42 -35 83 -71z" />
    <glyph glyph-name="nine" unicode="9" horiz-adv-x="480" 
d="M54 -11v16q109 0 189 86q67 72 102 189q1 4 3 11q-74 -48 -140 -48q-75 0 -123 60q-43 54 -45 132v4v6v5q3 91 59 157q60 71 148 71q100 0 159 -92q52 -80 52 -185q0 -42 -9 -83q-27 -122 -128 -225q-91 -93 -251 -103zM356 329q9 72 9 99q0 104 -51 180q-28 40 -75 40
q-59 0 -88 -53q-24 -43 -24 -106q0 -96 46 -163q26 -39 75 -39q21 0 44 7q38 12 64 35z" />
    <glyph glyph-name="colon" unicode=":" horiz-adv-x="194" 
d="M131 1q-22 0 -38 15.5t-16 37.5q0 23 15.5 38.5t38.5 15.5t38.5 -15.5t15.5 -38.5t-15.5 -38t-38.5 -15zM131 278q-22 0 -38 16.5t-16 38.5q0 23 15.5 38.5t38.5 15.5t38.5 -15.5t15.5 -38.5t-15.5 -39t-38.5 -16z" />
    <glyph glyph-name="semicolon" unicode=";" horiz-adv-x="233" 
d="M77 -125q43 14 74 48.5t31 76.5v4q0 1 -1 3q-3 12 -12 12q-4 0 -16 -7t-26 -7q-23 0 -36.5 14.5t-13.5 37.5q0 26 18.5 43t44.5 17q38 0 60 -32.5t22 -71.5q0 -58 -45 -102q-40 -39 -100 -55v19zM131 278q-22 0 -38 16.5t-16 38.5q0 23 15.5 38.5t38.5 15.5t38.5 -15.5
t15.5 -38.5t-15.5 -39t-38.5 -16z" />
    <glyph glyph-name="less" unicode="&#x3c;" horiz-adv-x="572" 
d="M20 346l525 229v-43l-452 -198l452 -198v-43l-525 229v24z" />
    <glyph glyph-name="equal" unicode="=" horiz-adv-x="572" 
d="M20 275h525v-40h-525v40zM20 433h525v-40h-525v40z" />
    <glyph glyph-name="greater" unicode="&#x3e;" horiz-adv-x="572" 
d="M545 322l-525 -229v43l452 198l-452 198v43l525 -229v-24z" />
    <glyph glyph-name="question" unicode="?" horiz-adv-x="423" 
d="M211 -11q-22 1 -38 15.5t-16 36.5q0 23 15.5 38.5t38.5 15.5t38.5 -15.5t15.5 -38.5q0 -22 -15.5 -36.5t-38.5 -14.5v-1zM220 157h-20q0 60 25 123q9 24 54 114q33 66 33 121v2v1q-1 55 -29 92q-31 42 -83 42q-41 0 -74 -24q-19 -14 -19 -39q0 -17 9 -32q12 -21 13 -25
q8 -14 8 -27q0 -17 -11 -29.5t-28 -12.5q-40 0 -51 52q-3 9 -3 23q0 63 59 109q41 32 120 32q118 0 162 -84q18 -35 18 -71q0 -51 -29 -97l-62 -80q-22 -27 -63 -83q-29 -45 -29 -107z" />
    <glyph glyph-name="at" unicode="@" 
 />
    <glyph glyph-name="A" unicode="A" 
 />
    <glyph glyph-name="B" unicode="B" 
 />
    <glyph glyph-name="C" unicode="C" horiz-adv-x="504" 
d="M402 223q-6 36 -12 60q-11 45 -23 60q-18 22 -58 22q-30 0 -66 -11q-82 -25 -82 -60v-291h-85v518q0 77 51 118q47 38 126 38q72 0 120 -37q29 -24 29 -70q0 -70 -124 -104q-35 -10 -70 -15l-47 -7v-108q77 51 148 51q95 0 132 -33q39 -36 39 -131q0 -81 -44 -148
q-50 -76 -127 -76l18 18q75 75 75 206zM161 570v-113q35 0 86 17q98 33 98 96q0 93 -92 93q-32 0 -62 -30t-30 -63z" />
    <glyph glyph-name="D" unicode="D" 
 />
    <glyph glyph-name="E" unicode="E" 
 />
    <glyph glyph-name="F" unicode="F" 
 />
    <glyph glyph-name="G" unicode="G" 
 />
    <glyph glyph-name="H" unicode="H" 
 />
    <glyph glyph-name="I" unicode="I" horiz-adv-x="323" 
d="M214 538v-408q0 -68 13 -86q16 -23 81 -23v-18h-282v18q65 0 82 23q12 17 12 86v408q0 69 -12 86q-17 23 -82 23v18h282v-18q-65 0 -81 -23q-13 -18 -13 -86z" />
    <glyph glyph-name="J" unicode="J" horiz-adv-x="520" 
d="M147 160q0 -98 95 -130q26 -9 52 -9q118 0 118 133v467l-133 -27q49 -20 49 -78q0 -47 -32 -75.5t-80 -28.5q-26 0 -46 3q-93 14 -93 80q0 42 37 42h1h1q13 0 25 -8.5t12 -21.5q0 -8 -6 -17t-6 -19q0 -22 28 -35q22 -10 47 -10q38 5 52 29q11 20 11 61q0 55 -51 68
q-5 0 -14 3q-17 2 -25 7l307 83v-503q0 -133 -131 -166q-32 -8 -71 -8q-107 0 -177 61q-40 34 -40 99q0 62 19 95q22 37 79 52q7 2 14.5 3.5t13.5 3.5l-14 -20q-25 -35 -33.5 -62.5t-8.5 -71.5z" />
    <glyph glyph-name="K" unicode="K" 
 />
    <glyph glyph-name="L" unicode="L" 
 />
    <glyph glyph-name="M" unicode="M" 
 />
    <glyph glyph-name="N" unicode="N" 
 />
    <glyph glyph-name="O" unicode="O" 
 />
    <glyph glyph-name="P" unicode="P" 
 />
    <glyph glyph-name="Q" unicode="Q" 
 />
    <glyph glyph-name="R" unicode="R" horiz-adv-x="679" 
d="M158 487q0 -77 40 -130q31 -41 97 -77q60 -31 120 -61q165 -89 171 -219q-80 120 -266 205q-48 21 -80 37q-14 4 -23 4q-22 0 -34 -17q-6 -9 -16 -37q-2 -5 -5.5 -19t-17.5 -33q-12 -4 -24 -4q-44 0 -46 36q0 3 1 8l2 8q10 16 32 28q26 13 29 16q40 20 55 38
q-53 40 -90 101q-26 42 -26 102q0 145 96 189q33 15 67 15h3h3q48 -2 114 -49l16 -12q19 31 58 50q23 11 57 11q56 0 104.5 -29t51.5 -141q2 -74 -32.5 -109t-75.5 -40q47 71 47 149q0 150 -95 150q-41 0 -64.5 -33.5t-23.5 -75.5q0 -38 9 -58q10 -24 39 -43h-144
q36 36 40 67q2 8 2 17v17q-13 109 -109 109q-82 0 -82 -170z" />
    <glyph glyph-name="S" unicode="S" horiz-adv-x="639" 
d="M30 578q5 89 138 92h9h8q45 0 82 -15q45 -19 60 -55q48 77 133 77h18q131 -2 131 -99v-451q-12 -127 -205 -127q-219 0 -219 198q0 89 61 144q58 53 149 53h9q39 0 68 -18q16 -10 52 -46v269q0 33 -16 46q-13 10 -48 10q-44 0 -67.5 -27t-23.5 -72q0 -27 3.5 -35
t23.5 -28h-126q6 4 9 7q19 14 19 56q0 99 -120 99q-78 0 -78 -93v-6v-5q4 -57 29 -94q-19 0 -47 22q-55 43 -52 98zM277 198q0 -143 84 -176q20 -8 43 -8q74 0 102 59q18 39 18 125q0 176 -120 176q-127 0 -127 -176z" />
    <glyph glyph-name="T" unicode="T" horiz-adv-x="856" 
d="M75 363q0 257 169 300q27 7 55 7q155 0 182 -91q16 21 33 44.5t35 37.5q22 16 71 16q199 0 196 -314q-1 -88 -33 -166q-45 -110 -107 -172q-21 -21 -35 -30q11 20 24 54q59 154 59 314q0 116 -10 169q-23 117 -94 117q-14 0 -26 -3q-64 -15 -86 -101q28 -69 28 -196v-20
q1 -122 -55 -214q-65 -109 -182 -109q-99 0 -171 110q-53 80 -53 247zM166 349q0 -113 20 -192q33 -129 113 -129q93 0 133 123q27 81 27 198q0 124 -24 192q-37 107 -136 116q-18 0 -38 -15q-51 -39 -76 -136q-19 -74 -19 -157z" />
    <glyph glyph-name="U" unicode="U" 
 />
    <glyph glyph-name="V" unicode="V" horiz-adv-x="747" 
d="M399 138l152 373l12 30q15 45 15 56q0 26 -24 38q-12 5 -46 12v18h204v-18q-32 -3 -68 -39.5t-36 -67.5l-226 -550h-18l-243 557q-17 39 -19 43q-12 22 -28 37q-19 17 -63 20v18h271v-18q-2 0 -14 -1q-4 -1 -7 -2q-53 -5 -53 -44q0 -22 13 -49l4 -12q5 -9 11 -24z" />
    <glyph glyph-name="W" unicode="W" horiz-adv-x="520" 
d="M420 167q0 93 -85 131q-36 16 -69 16v77q-5 -23 -25.5 -36t-44.5 -13q-21 0 -42 8q-50 19 -55 76q0 38 26.5 64.5t63.5 26.5q43 0 77 -42v76q0 41 -13.5 52t-55 11t-72.5 13q-42 17 -48 50h77q0 -3 2 -5q16 -37 68 -37q43 0 71 -19q33 -22 33 -63v-92q22 0 50 28
q8 8 39 46q30 30 47 30h1h1h2v0q-7 -74 -106 -116q-18 -8 -27 -10q70 -31 111 -76q22 -25 22 -56v0h-2h-1h-1q-24 0 -63 41q-4 4 -10 12q-22 24 -29 30q-19 17 -34 22v-77q41 -13 77 -34q93 -56 91 -134q-2 -85 -68 -129q-56 -37 -146 -38h-1h-2q-75 0 -130 25
q-72 33 -72 100q0 41 28 71t69 40q10 2 19 2h6q2 0 4 -1q-13 -15 -36 -53q-6 -15 -6 -59q0 -49 34 -76.5t84 -27.5q141 0 141 146zM196 363q49 0 65 47q5 14 5 29q0 26 -27 42q-23 14 -50 14q-42 0 -42 -69q0 -32 18 -51q10 -12 31 -12z" />
    <glyph glyph-name="X" unicode="X" horiz-adv-x="748" 
d="M350 294l-130 -168q-39 -50 -39 -67q0 -38 64 -38v-18h-235v18q79 8 164 111q2 4 7 9l148 188l-123 180q-4 5 -10 15q-42 62 -71 86q-44 36 -102 37v18h306v-18q-33 0 -54 -13q-14 -9 -14 -26q0 -13 12 -33l6 -10l12 -18l95 -142l110 139q38 48 38 65q0 38 -71 38v18h235
v-18q-49 0 -94 -40q-22 -20 -69 -79l-124 -158l175 -261q29 -43 51 -61q29 -22 73 -27h2h1v-18h-284v18h10q6 1 9 1q46 5 46 37q0 15 -14 40q-8 12 -24 35z" />
    <glyph glyph-name="Y" unicode="Y" 
 />
    <glyph glyph-name="Z" unicode="Z" horiz-adv-x="520" 
d="M496 508v-289q0 -16 -3 -35q-12 -80 -63 -130q-55 -54 -133 -54q-87 0 -150 48q-69 53 -69 137q0 141 131 185q41 14 81 14q63 0 100 -30q8 -8 24 -25v199q0 77 -54 120q-18 10 -49 31h9q25 0 50 -10q52 -20 87 -63q39 -46 39 -98zM173 185q0 -84 20 -119q27 -45 104 -45
q73 0 99 48q18 34 18 116q0 179 -124 179q-117 0 -117 -179z" />
    <glyph glyph-name="bracketleft" unicode="[" horiz-adv-x="311" 
d="M297 -196h-215v875h215v-43h-137v-788h137v-44z" />
    <glyph glyph-name="backslash" unicode="\" horiz-adv-x="291" 
d="M39 696l239 -706h-39l-239 706h39z" />
    <glyph glyph-name="bracketright" unicode="]" horiz-adv-x="263" 
d="M36 679h215v-875h-215v44h137v788h-137v43z" />
    <glyph glyph-name="asciicircum" unicode="^" 
 />
    <glyph glyph-name="underscore" unicode="_" horiz-adv-x="589" 
d="M561 228h-561v62h561v-62z" />
    <glyph glyph-name="grave" unicode="`" horiz-adv-x="433" 
d="M53 -128q1 1 8 5q73 43 73 96v5q0 2 -1 5q-4 18 -17 18q-6 0 -15 -3t-19 -3q-21 0 -36 13.5t-15 34.5q0 27 19 42t47 15q33 0 58 -29t25 -62v-6q0 -53 -37 -95.5t-90 -58.5v23zM286 -128q1 1 8 5q73 43 73 96v5q0 2 -1 5q-4 18 -17 18q-6 0 -15 -3t-19 -3q-21 0 -36 13.5
t-15 34.5q0 27 19 42t47 15q33 0 58 -29t25 -62v-6q0 -53 -37 -95.5t-90 -58.5v23z" />
    <glyph glyph-name="a" unicode="a" horiz-adv-x="560" 
d="M335 375q-74 57 -100 133q-20 59 -20 169l34 -94q21 -56 47 -87q19 -22 72 -61q59 -43 80 -61q45 -39 65 -75q21 -39 21 -99q0 -95 -72 -150q-65 -50 -163 -50q-84 0 -147 36q-75 44 -75 122q0 64 61 72q3 1 6 1h6q52 2 52 -38q0 -11 -6 -23q-7 -15 -17 -15
q-19 -11 -19 -31q0 -54 44 -85q38 -26 95 -26q69 0 112 53q40 49 40 120q0 59 -15 92t-59 67z" />
    <glyph glyph-name="b" unicode="b" horiz-adv-x="544" 
d="M262 556q0 42 -19 55q-14 9 -59 9q-89 0 -94 37v12l1 1v7h93q0 -35 49 -35q59 0 78 -11q29 -16 29 -68v-179q83 -34 137 -92q40 -45 42 -100q2 -84 -49 -129q-70 -63 -165 -63q-101 0 -172 63q-49 42 -49 129q0 97 104 159q32 19 74 33v172zM184 185q0 -65 25 -112
q30 -59 89 -59q128 0 128 178q0 67 -30 115q-35 57 -98 57q-114 0 -114 -179z" />
    <glyph glyph-name="c" unicode="c" horiz-adv-x="674" 
d="M387 21q85 0 126.5 37t45.5 121v23q-2 72 -20 108q-25 52 -87 52q-30 0 -65 -11v41q27 -9 54 -9q104 0 104 112q0 39 -16 60q-14 18 -52.5 33t-53.5 34t-15 59q7 -30 46 -52q19 -11 68.5 -29.5t70.5 -33.5q37 -26 42 -64q0 -85 -126 -122q-21 -6 -32 -8q24 -7 72 -25
q93 -47 93 -168q0 -78 -80 -129q-66 -42 -151 -49q-12 -1 -24 -1q-42 0 -88 15q-107 35 -165 123q-56 84 -56 199q0 180 108 282q58 55 98 55q-19 -31 -56 -94q-68 -121 -68 -243q0 -257 163 -307q29 -9 64 -9z" />
    <glyph glyph-name="d" unicode="d" horiz-adv-x="664" 
d="M154 491q0 -122 55 -160q24 -18 62 -34q57 -24 65 -28q41 -11 71 -25l12 -6t25 -12t25 -12q72 -36 106 -85.5t37 -128.5q-40 98 -173 169q-125 66 -226 79h-9q-45 0 -50 -52q-4 -46 -38 -51q-1 -1 -2 -1h-4q-28 0 -32 31q-1 3 -1 6v4q0 26 48.5 49.5t48.5 50.5
q-52 45 -73 87q-23 46 -23 112q0 85 39 135q43 56 125 56q60 0 104 -35q5 -4 9.5 -7.5t10.5 -5.5q40 48 103 48q76 0 132 -60q32 -35 32 -97q0 -76 -37 -127q-41 -58 -114 -58q-76 0 -127 45t-51 120q0 63 24 92l2 2l1 1q-19 69 -89 69q-88 0 -88 -171zM373 498
q3 -91 36 -118t73 -27q55 0 72 56q10 30 10 102q0 56 -17 93q-23 51 -72 51q-51 0 -76 -37q-28 -41 -26 -120z" />
    <glyph glyph-name="e" unicode="e" horiz-adv-x="532" 
d="M429 535q0 51 -39 90t-89 39h-8q-48 0 -84.5 -33t-36.5 -81q32 -4 32 -42v-1v-2q-3 -44 -45 -44q-5 0 -22 3q-6 3 -9 6q-35 27 -35 64v8q0 4 1 8q0 65 75 100q59 27 131 27q207 0 207 -184v-329q0 -76 -62 -122q-55 -41 -134 -42h-1h-2q-91 0 -154 39q-75 46 -75 132
q0 78 69 125q30 20 53 25q-50 -74 -50 -144q0 -63 43.5 -113t105.5 -50q58 0 95 47q34 43 34 103v371z" />
    <glyph glyph-name="f" unicode="f" horiz-adv-x="714" 
d="M304 156q5 -130 125 -135h9h8q69 0 106.5 34.5t35.5 150.5q-2 75 -20.5 106t-74.5 54q-12 4 -26 10q73 18 97 49t24 107q0 50 -21 85q-25 43 -72 43q-46 0 -93 -57l-3 -3q-2 -2 -3 -4l2 -1v-2q13 -16 13 -61q0 -60 -51.5 -104.5t-111.5 -44.5h-7h-7q-56 3 -103 34
q-50 32 -53 115q-2 73 45 108q44 33 97 39q5 0 14 1h14q47 0 90 -30q13 -9 30 -26q65 49 134 49q88 0 126 -26q45 -31 45 -115v-10q0 -65 -56 -112q-17 -11 -51 -34q29 -6 48 -19q69 -45 66 -151q-3 -104 -68 -157q-60 -49 -166 -49q-204 0 -227 156q0 64 28 109
q33 55 93 55h8q3 0 6 -1l-3 -3q-50 -64 -47 -160zM155 532q0 -121 93 -121q92 0 92 128q-8 57 -22 82q-22 39 -70 39q-56 0 -77 -38q-16 -28 -16 -90z" />
    <glyph glyph-name="g" unicode="g" horiz-adv-x="552" 
d="M298 456v121q0 44 -7 60q-12 26 -50 26q-61 0 -61 -37v-6q1 -4 1 -6q3 -13 11 -31q2 -4 6 -13q2 -4 2 -9v-1v-2q-1 -14 -12.5 -26t-25.5 -12q-57 0 -57 57q0 47 41 75q35 24 85 25h2h1q143 0 143 -122v-106q70 -23 111 -93q38 -65 38 -143q0 -99 -49 -155
q-52 -58 -150 -58q-96 0 -169 54q-81 60 -81 153q0 76 53 141q47 57 123 91q26 12 45 17zM177 207q4 -79 37 -130q40 -63 113 -63q69 0 93 70q14 41 14 129q0 209 -93 222q-79 0 -124 -69q-40 -60 -40 -142v-8v-9z" />
    <glyph glyph-name="h" unicode="h" horiz-adv-x="529" 
d="M401 117q0 53 -5 71q-11 39 -50 39h-6q-3 0 -5 1h-11q-20 0 -40 -15v49q6 -4 20 -10q11 -4 42 -4q16 0 26 3q57 11 57 67q0 50 -66 66q-11 2 -17 2q-34 0 -44 -4q-5 -1 -18 -9v55q11 -5 35 -12q8 -2 16 -2h18q16 0 47 18q49 28 49 57q0 32 -86.5 56.5t-133.5 53.5
q-41 25 -41 76q33 -52 93 -77q32 -14 117 -32q52 -11 70 -20q36 -19 36 -57q0 -32 -25 -52q-16 -12 -55 -27q-2 -1 -7 -3t-16 -7h2l1 -1q41 -12 57 -25q23 -19 23 -56t-21 -56q-15 -14 -55 -28q57 -14 68 -40q8 -20 8 -77q0 -53 -53 -84q-40 -23 -101 -30q-27 -3 -53 -3
q-200 0 -200 124q0 65 63 77q8 1 14 1q11 0 13 -2q19 -2 19 -10q0 1 -9.5 -22t-9.5 -44q9 -58 31 -79q23 -24 79 -24q66 0 91 15q33 20 33 81z" />
    <glyph glyph-name="i" unicode="i" horiz-adv-x="586" 
d="M161 363q0 -162 91 -363q-34 12 -67 50q-108 123 -108 320q0 222 155 288q45 19 90 19q58 0 108 -27q129 -69 129 -287q0 -87 -29 -172q-32 -92 -88 -150q-33 -34 -64 -41q2 6 7 19q10 24 31 71q60 142 60 273q0 97 -31 180q-43 114 -123 114q-84 0 -128 -111
q-33 -83 -33 -183z" />
    <glyph glyph-name="j" unicode="j" horiz-adv-x="735" 
d="M187 650h-6q-4 0 -7 -1q-49 -5 -49 -81q4 -22 6 -28q6 -21 13 -25q0 1 3 -2q7 -3 12 -14q11 -11 11 -21q0 -18 -24 -18q-27 0 -48 26q-20 20 -20 82q0 43 24.5 69.5t67.5 26.5h9h4q3 -1 4 -1h10h5q66 -2 128 -97q26 -39 76 -149q106 61 143 86q110 76 110 119
q-9 27 -25 35q-11 6 -43 6q-50 0 -65 -44q-3 -7 -3 -11q0 -28 -21 -31h-1h-2q-24 3 -24 31q0 32 44 52q36 17 72 17q42 0 57 -7q25 -12 25 -48q0 -47 -112 -129q-43 -32 -148 -97q59 -138 71 -163q60 -128 95 -145q12 -6 26 -6q54 0 54 82q0 26 -7 39t-29 26q-26 15 -32 51
q5 -5 46 -28q53 -29 57 -75v-13q0 -76 -50 -96q-18 -7 -39 -7q-79 0 -153 119q-37 60 -87 182q-98 -54 -105 -58q-85 -49 -101 -65q94 0 146 -38q33 -25 33 -81v-11q0 -104 -226 -109h-16h-18l12 2q3 0 13 2l27 4q67 10 109 34q37 21 37 73q0 69 -36 90q-25 15 -100 14h-10
h-12q1 1 1.5 2t1 2.5t2.5 3.5q25 41 106 93q31 20 122 69q-71 147 -71 148q-60 113 -93 113z" />
    <glyph glyph-name="k" unicode="k" horiz-adv-x="513" 
d="M489 533q0 -10 -3 -22q-8 -33 -44.5 -71t-68.5 -46q56 -21 91 -69q25 -36 25 -104q0 -170 -130 -212q-28 -9 -63 -9q-101 0 -177 69q-44 40 -44 111q0 41 32 80q29 35 70 51q13 5 23 7q-52 -42 -49 -138q2 -69 37 -112q38 -46 105 -47h2h1q49 0 82 57q26 45 34 102
q3 20 2 34q-4 79 -39.5 121t-112.5 59q22 4 68 17q77 32 77 122q0 46 -10 69q-12 27 -48 47v0q-1 0 -1 1q-22 11 -31 20h6h7q59 1 109 -39t50 -98z" />
    <glyph glyph-name="l" unicode="l" horiz-adv-x="941" 
d="M149 491q0 -79 74 -125q42 -25 146 -53q43 -11 79 -20l89 -23q158 -40 231 -96q43 -33 55 -69q7 -21 11 -87q0 -10 1 -18q-57 98 -183 153q-76 34 -234 69q-7 2 -76 17l-82 17h-1q-1 -1 -2 -1q-12 -4 -35 -13q-59 -25 -59 -62q6 -14 6 -23q0 -32 -41 -32h-3h-4
q-42 2 -42 35q0 5 2 13q3 28 27 49q14 12 51 32q34 18 46 30q-26 5 -60 39q-71 71 -71 175q0 118 103 163q39 17 77 17q88 0 124 -49q17 15 63 41q20 8 55 8q41 0 63 -10q19 -9 47 -39q22 22 55.5 35.5t76.5 13.5q31 0 63 -12q96 -36 96 -133q0 -69 -60 -126
q-29 -28 -51 -33q13 37 32 114q3 21 3 52q0 45 -18 79q-21 43 -62 46h-1h-2q-45 0 -69 -38q-21 -33 -21 -80v-30q-1 -6 -1 -11v-10q0 -23 6 -30l23 -23h-125q6 15 11 22l4 4q1 1 2 3q18 21 18 75q0 46 -21 79q-25 39 -69 39q-13 0 -24 -6q-28 -15 -43.5 -46.5t-15.5 -65.5
q0 -59 10 -75q11 -19 17 -29h-125l15 20q15 20 19 41q2 14 2 43q0 47 -24 81q-28 37 -73 37q-44 0 -79 -55q-26 -40 -26 -104v-15z" />
    <glyph glyph-name="m" unicode="m" horiz-adv-x="543" 
d="M433 334v186q0 57 -43 100t-100 43q-50 0 -91 -38q-25 -23 -26 -56q-1 -30 25 -64q5 -5 6 -8.5t1 -7.5q0 -17 -22 -28q-18 -9 -37 -9q-62 0 -62 67v6v2q5 69 73 111q60 38 133 38q228 0 228 -192v-292q0 -192 -221 -192q-100 0 -155 49q-58 52 -58 151q0 83 66 139
q62 52 147 52q69 0 111 -31q19 -14 25 -26zM426 192v2v1q-3 168 -129 168q-72 0 -100 -48q-21 -37 -21 -115q0 -90 20 -127q28 -52 109 -52q72 0 100 53q21 39 21 118z" />
    <glyph glyph-name="n" unicode="n" horiz-adv-x="510" 
d="M159 527v-185q33 20 74 31q31 5 50 5q83 1 140 -50.5t57 -133.5v-9q0 -184 -205 -184q-87 0 -143 55.5t-56 142.5v286q0 96 53 139q48 39 146 39q22 0 57.5 -10t51.5 -10q49 0 82 23q3 3 14 11q-20 -62 -96 -62q-31 0 -85 18l-12 2q-6 1 -12 1q-55 0 -90 -31
q-26 -23 -26 -78zM159 212q0 -91 18 -130q27 -60 105 -60q72 0 95 56q14 34 14 121q0 157 -109 157q-70 0 -98 -38q-25 -33 -25 -106z" />
    <glyph glyph-name="o" unicode="o" horiz-adv-x="870" 
d="M524 336h-142q38 20 35 135q-6 192 -135 192q-70 0 -101 -101q-19 -65 -19 -155q0 -189 102 -375q9 -18 18 -33q-20 6 -47 25q-80 59 -122 169q-36 96 -36 207q0 216 142 265q32 11 63 11q54 0 101 -26t70 -73q23 48 78 75q48 24 106 24q93 0 154 -100q38 -62 38 -190
q0 -88 -29 -176q-31 -91 -85 -157q-44 -54 -78 -54q19 37 53 114q53 137 53 280q0 89 -18 159q-29 111 -95 111q-62 0 -103 -54q-31 -41 -31 -138q0 -107 28 -135z" />
    <glyph glyph-name="p" unicode="p" horiz-adv-x="490" 
d="M384 178q0 66 -30 97q-25 26 -92 46q56 6 96 30q50 30 54 79q0 29 -35 59q-12 11 -60 43l-12 8q-50 33 -68 49q-39 36 -39 70q0 9 2 17q2 -15 20 -31t113 -70q61 -34 87 -58q47 -41 47 -87q0 -34 -41.5 -71.5t-74.5 -37.5q4 -1 21 -9q50 -23 73 -53q24 -33 22 -95
q-3 -96 -59 -130t-153 -34q-69 0 -120 33q-58 39 -58 104q0 30 20 53t50 23q22 0 33 -15q8 -11 8 -23q0 -8 -4.5 -16t-6.5 -13q-12 -19 -12 -39v-2q0 -2 1 -3v-6q0 -13 6 -27q21 -48 90 -48q122 0 122 157z" />
    <glyph glyph-name="q" unicode="q" horiz-adv-x="511" 
d="M487 151q0 -96 -104 -135q-43 -16 -80 -16q-83 0 -149 40q-77 46 -77 124q0 57 29 95q33 42 88 42l-6 -6q-37 -37 -37 -99q0 -84 31 -121q39 -46 87 -57q15 -4 27 -4q20 0 51 19q59 37 59 90v260q-96 69 -157 69q-41 0 -41 -15q0 -6 6.5 -19t8 -17.5t1.5 -8.5
q0 -19 -30 -28q-6 -2 -13 -2q-35 -2 -35 42q0 34 36 56q31 19 67 19q61 0 157 -48v178l-110 -48v21l191 95v-526z" />
    <glyph glyph-name="r" unicode="r" horiz-adv-x="706" 
d="M173 260q0 -94 30 -192q8 -27 14 -41l11 -27q-14 0 -29 7q-56 25 -91 110q-31 73 -31 143q0 84 39 135q32 42 99 72q22 9 132 46q166 55 224 165q4 -22 4 -41q0 -86 -83 -129q-55 -29 -159 -41l-53 -7q-23 -3 -34 -5q-24 -5 -32 -11q114 -10 160 -101l4 -8q14 39 71 78
q45 31 67 31q83 0 131 -65q26 -37 26 -112q0 -89 -29 -165q-39 -102 -114 -102q12 12 31 61q38 99 38 186v10q-1 2 -1 5v5q0 77 -8 101q-16 50 -74 50q-15 -2 -34 -14q-69 -44 -69 -96q0 -70 34 -96h-137q12 12 24 40q5 13 5 33q0 67 -31 102q-24 26 -59 31q-53 0 -69 -57
q-7 -27 -7 -101z" />
    <glyph glyph-name="s" unicode="s" horiz-adv-x="497" 
d="M327 356q0 28 46 50q21 10 35 10q9 0 11 -4q14 -12 14 -20q0 -11 -28 -19h-1h-1q-27 -8 -27 -17q0 -18 29 -46q36 -37 50 -64q19 -34 19 -78q0 -167 -188 -167q-91 0 -148 48q-41 33 -41 112v474l-7 -5q-16 -13 -45 -23q-15 -6 -31 -6q38 76 126 76h2h1q38 -3 38 -49
v-467q0 -139 112 -139q111 0 111 139q0 90 -44 127q-2 1 -5 4q-28 25 -28 64z" />
    <glyph glyph-name="t" unicode="t" horiz-adv-x="829" 
d="M184 257q0 -117 71 -178q67 -58 186 -58q115 0 183 67.5t66 182.5q-2 137 -108 188q-41 20 -82 20h-8q-5 0 -8 -1h2q0 -1 1 -2q82 -42 82 -105v-2q0 -1 1 -2v-5q0 -40 -43 -61q-34 -16 -79 -16q-128 0 -128 86q0 58 87 108q15 8 20 13q-16 5 -47 17q-21 9 -43.5 29.5
t-23.5 53.5q-2 43 44 66q36 19 84 19q47 0 83 -14q52 -18 52 -57q0 -36 -27 -65q-17 -17 -58 -42q129 -9 225 -85q74 -60 74 -164q0 -126 -117 -194q-97 -56 -232 -56q-131 0 -235 55q-128 67 -128 187q0 81 34 130.5t109 82.5l20 8l-114 43v36l150 -72q-9 -8 -25 -25
q-38 -40 -53 -75.5t-16 -90.5v-5q0 -3 1 -6v-11zM512 356q0 86 -64 129v0q-1 -1 -2 -1q-41 -25 -55 -52t-14 -76q0 -24 23 -37q18 -11 44 -11t45 11q23 13 23 37zM447 657q-27 0 -47 -12q-23 -14 -23 -39q0 -70 71 -100q66 33 66 83v4q0 2 -1 5q0 33 -20.5 46t-45.5 13z" />
    <glyph glyph-name="u" unicode="u" horiz-adv-x="635" 
d="M171 667q6 -6 8 -15q0 -9 -8 -15q-2 -2 -22 -19q-31 -26 -31 -51q0 -20 18 -35q12 -11 28 -11q18 0 33 20q0 1 20 36q31 56 74 56q47 0 87 -53q26 53 87 53q14 2 27 2q113 0 113 -128v-354q0 -83 -73 -122q-57 -31 -148 -31q-86 0 -149 36q-53 30 -57 104v4v10
q0 52 22 92q27 47 74 56q8 1 15 1h4q2 0 4 -1h4q3 -1 4 -1q-22 -37 -23 -39q-12 -21 -18 -41q-9 -31 -7 -74q3 -68 40 -97.5t87 -29.5q69 0 101.5 26.5t32.5 93.5v387q0 44 -7 62q-11 32 -46 32q-33 0 -47 -33q-8 -18 -13 -61q0 -61 26 -87h-120q24 24 26 46q1 13 1 41v13
v13q-4 68 -47 68q-14 0 -32 -26q-7 -13 -22 -38q-34 -56 -73 -63q-76 0 -86 86q0 31 16 61q19 37 47 37q15 0 30 -11z" />
    <glyph glyph-name="v" unicode="v" horiz-adv-x="528" 
d="M147 470q-57 0 -57 72q0 56 56 94q46 30 109 38q16 2 34 2q30 0 54 -3q160 -20 160 -124q0 -52 -47 -88q-37 -29 -95 -41q80 -33 111 -82.5t31 -138.5q0 -96 -58.5 -147.5t-155.5 -51.5q-156 0 -201 122q-12 32 -12 63q0 93 76 132q21 11 37 11h4q1 -1 2 -1h2
q-44 -52 -48 -143v-3v-4q0 -72 34 -115q37 -48 106 -48q64 0 99 52q30 45 31 113v5v5q-1 2 -1 5v5q0 77 -35 135q-39 64 -108 86q73 12 118 61q25 27 25 74q0 108 -129 108q-49 0 -94 -40q-27 -25 -29 -52v-1v-2v-3q0 -2 1 -3v-3q1 -3 1 -4q25 -12 30 -39v-5q0 -41 -51 -41z
" />
    <glyph glyph-name="w" unicode="w" horiz-adv-x="645" 
d="M545 579q0 37 -23.5 60.5t-60.5 23.5h-1h-2q-34 -1 -57 -19t-23 -51q0 -24 8 -60q3 -16 12 -37h-104q4 4 11 55q3 23 3 42q-4 32 -28 51t-56 19q-56 0 -56 -63q0 -58 30 -120q11 -25 26 -61h244q26 0 30 -2q2 -2 -2 -13l-154 -404l-265 565v28q0 56 82 76q33 8 65 8
q34 0 67 -17q37 -18 51 -46q33 63 119 63q46 0 90 -22q50 -26 61 -66q3 -8 3 -17q0 -43 -21 -76q-24 -36 -64 -42q-7 -1 -13 -1q27 16 29 76v12v12q-1 6 -1 13v13zM357 112l104 272q4 16 4 20q0 7 -18 7h-216z" />
    <glyph glyph-name="x" unicode="x" horiz-adv-x="556" 
d="M124 207v427l-9 -6q-9 -6 -22 -14q-40 -20 -50 -20q-8 0 -11 5q0 6 42 39q50 39 86 39q50 0 50 -100v-228q24 8 53 46t71 63q34 20 96 20h16q7 0 14 -1q-21 -6 -165 -92h79q27 0 58 -13q98 -41 98 -158q0 -108 -42 -159q-45 -55 -150 -55q-110 0 -162 49.5t-52 157.5z
M338 22q67 0 98 63q24 47 24 122q0 157 -122 157h-8q-5 0 -9 -1q-118 -11 -118 -149q0 -192 135 -192z" />
    <glyph glyph-name="y" unicode="y" horiz-adv-x="521" 
d="M497 670v-468q0 -131 -65 -164q-70 -36 -145 -38q-81 -2 -146 46q-63 45 -63 113q0 115 108 153q20 7 38 9q-2 -3 -5 -9q-15 -19 -41 -71q-10 -26 -10 -88q0 -56 27 -92q31 -41 85 -41h9q5 1 8 1q49 7 82.5 41.5t33.5 83.5v335q-93 -70 -182 -70q-130 0 -150 107
q-3 16 -3 33q0 49 48 87.5t98 38.5q-10 -17 -35 -42q-41 -49 -41 -84q0 -80 57 -111q13 -7 26 -7q45 0 99 23q62 26 80 61q3 7 3 13v140h84z" />
    <glyph glyph-name="z" unicode="z" horiz-adv-x="719" 
d="M296 416q0 6 -1 6q-4 0 -9 -5q-5 -8 -7 -9q-19 -14 -46 -14q-65 0 -109 38q-47 40 -47 104q0 53 47 97t101 44q32 0 61 -11q89 -34 89 -152v-184q0 -10 3 -10q15 12 32 27q36 27 88 27h9q84 0 131 -50t47 -135q0 -70 -38.5 -120.5t-106.5 -64.5q-19 -4 -45 -4h-15
q-67 0 -131 55q-53 45 -53 120v241zM367 182q0 -64 31 -110q36 -52 97 -52q106 0 106 162q0 62 -25 113q-32 64 -88 64q-55 0 -91 -64q-30 -54 -30 -113zM162 529q0 -46 13 -77q19 -44 58 -44q34 0 51 50q12 35 12 78q0 52 -8 77q-14 43 -55 43q-45 0 -61 -44
q-10 -27 -10 -83z" />
    <glyph glyph-name="braceleft" unicode="{" horiz-adv-x="394" 
d="M104 230v22q47 5 78.5 32.5t31.5 72.5q0 31 -9 75l-8 39q-4 19 -4 38q0 72 55.5 129t127.5 58v-18q-48 -4 -81.5 -39t-33.5 -83q0 -15 6 -44.5t6 -43.5q9 -48 9 -61q0 -61 -40 -106q-37 -41 -98 -59v-2q61 -16 99.5 -60t38.5 -105q0 -13 -9 -61q0 -2 -2 -10
q-10 -38 -10 -75q0 -48 33.5 -83t81.5 -41v-19q-72 2 -127.5 60t-55.5 130q0 12 1.5 23.5t12.5 62.5q7 37 7 63q0 45 -33 74q-30 26 -77 31z" />
    <glyph glyph-name="bar" unicode="|" horiz-adv-x="126" 
d="M120 696v-910h-40v910h40z" />
    <glyph glyph-name="braceright" unicode="}" horiz-adv-x="394" 
d="M376 252v-22q-47 -5 -77 -31q-33 -29 -33 -74q0 -25 7 -63q11 -52 12.5 -63t1.5 -23q0 -72 -55.5 -130t-127.5 -59v17q48 7 81.5 42t33.5 83q0 15 -6 43t-6 42q-9 48 -9 61q0 60 40 106q38 42 98 59v2q-61 18 -98 60q-40 45 -40 105q0 13 9 61q0 3 2 10q10 37 10 78
q0 48 -33.5 83t-81.5 39v18q72 -1 127.5 -58t55.5 -129q0 -16 -4 -38q-5 -28 -11 -56q-6 -33 -6 -58q0 -45 33 -74q30 -26 77 -31z" />
    <glyph glyph-name="asciitilde" unicode="~" horiz-adv-x="433" 
d="M158 679v-23q-3 -2 -8 -5q-36 -23 -50 -38q-23 -25 -23 -57v-5q0 -3 1 -6q3 -19 17 -19q5 0 16.5 4t17.5 4q21 0 36 -15t15 -36q0 -27 -19 -42t-47 -15q-33 0 -58 29t-25 62v6q0 55 38 98q35 41 89 58zM391 679v-23q-3 -2 -8 -5q-36 -23 -50 -38q-23 -25 -23 -57v-5
q0 -3 1 -6q3 -19 17 -19q5 0 16.5 4t17.5 4q21 0 36 -15t15 -36q0 -27 -19 -42t-47 -15q-33 0 -58 29t-25 62v6q0 55 38 98q35 41 89 58z" />
    <glyph glyph-name="exclamdown" unicode="&#xa1;" 
 />
    <glyph glyph-name="cent" unicode="&#xa2;" 
 />
    <glyph glyph-name="sterling" unicode="&#xa3;" 
 />
    <glyph glyph-name="currency" unicode="&#xa4;" 
 />
    <glyph glyph-name="yen" unicode="&#xa5;" 
 />
    <glyph glyph-name="brokenbar" unicode="&#xa6;" 
 />
    <glyph glyph-name="section" unicode="&#xa7;" horiz-adv-x="445" 
d="M184 416q-61 64 -61 123q0 60 40 100t100 40q50 0 85 -29q38 -32 38 -80q0 -17 -10.5 -29.5t-27.5 -12.5q-16 0 -27.5 11t-11.5 27q0 11 4 23l2 12q1 6 1 12q0 46 -53 46q-35 0 -62.5 -24t-27.5 -59q0 -64 108 -141q67 -49 97 -84q46 -54 46 -114q0 -50 -31 -95t-77 -70
q60 -63 60 -118q0 -61 -39 -102t-100 -41q-48 0 -85 31.5t-37 78.5q0 16 11 29.5t27 13.5q36 0 36 -43q0 -15 -4 -27q-4 -28 -4 -26q0 -26 38 -34q9 -3 22 -3h8q30 4 53.5 27t23.5 53q0 56 -85 124q-7 5 -20 15l-20 16q-60 47 -85 78q-40 50 -40 105q0 106 108 167zM200 401
q-74 -43 -74 -110q0 -42 34 -83q20 -24 68 -62l39 -31q19 -15 33 -29q74 41 74 105q0 59 -65 119q-55 45 -109 91z" />
    <glyph glyph-name="dieresis" unicode="&#xa8;" 
 />
    <glyph glyph-name="copyright" unicode="&#xa9;" horiz-adv-x="764" 
d="M728 333q0 -144 -102 -243.5t-246 -99.5t-245 99.5t-101 243.5t101 245t245 101t246 -101t102 -245zM696 333q0 132 -92 224t-224 92q-131 0 -223.5 -92.5t-92.5 -223.5t92.5 -223.5t223.5 -92.5q132 0 224 92t92 224zM551 556l10 -137h-19q-13 53 -52.5 84t-93.5 31
q-79 0 -121 -57q-38 -51 -38 -133q0 -89 36 -141q42 -60 127 -60q99 0 151 79l19 -10q-67 -99 -190 -99q-92 0 -158 61.5t-66 152.5q0 102 72 167q70 62 173 62q20 0 48 -5q14 -4 41 -13q20 -4 18 -4q13 0 23 19q0 1 1 2v1h19z" />
    <glyph glyph-name="ordfeminine" unicode="&#xaa;" 
 />
    <glyph glyph-name="guillemotleft" unicode="&#xab;" horiz-adv-x="492" 
d="M250 0h-30l-189 228l189 230h30l-121 -230zM469 0h-30l-189 228l189 230h30l-121 -230z" />
    <glyph glyph-name="logicalnot" unicode="&#xac;" 
 />
    <glyph glyph-name="sfthyphen" unicode="&#xad;" horiz-adv-x="308" 
d="M41 264h253v-76h-253v76z" />
    <glyph glyph-name="registered" unicode="&#xae;" 
 />
    <glyph glyph-name="macron" unicode="&#xaf;" 
 />
    <glyph glyph-name="macron" unicode="&#x2c9;" 
 />
    <glyph glyph-name="degree" unicode="&#xb0;" 
 />
    <glyph glyph-name="plusminus" unicode="&#xb1;" 
 />
    <glyph glyph-name="twosuperior" unicode="&#xb2;" 
 />
    <glyph glyph-name="threesuperior" unicode="&#xb3;" 
 />
    <glyph glyph-name="acute" unicode="&#xb4;" 
 />
    <glyph glyph-name="mu" unicode="&#xb5;" 
 />
    <glyph glyph-name="mu" unicode="&#x3bc;" 
 />
    <glyph glyph-name="paragraph" unicode="&#xb6;" 
 />
    <glyph glyph-name="middot" unicode="&#xb7;" 
 />
    <glyph glyph-name="cedilla" unicode="&#xb8;" 
 />
    <glyph glyph-name="onesuperior" unicode="&#xb9;" 
 />
    <glyph glyph-name="ordmasculine" unicode="&#xba;" 
 />
    <glyph glyph-name="guillemotright" unicode="&#xbb;" horiz-adv-x="492" 
d="M31 458h30l189 -230l-189 -228h-30l121 228zM250 458h30l189 -230l-189 -228h-30l121 228z" />
    <glyph glyph-name="onequarter" unicode="&#xbc;" 
 />
    <glyph glyph-name="onehalf" unicode="&#xbd;" 
 />
    <glyph glyph-name="threequarters" unicode="&#xbe;" 
 />
    <glyph glyph-name="questiondown" unicode="&#xbf;" 
 />
    <glyph glyph-name="Agrave" unicode="&#xc0;" 
 />
    <glyph glyph-name="Aacute" unicode="&#xc1;" 
 />
    <glyph glyph-name="Acircumflex" unicode="&#xc2;" 
 />
    <glyph glyph-name="Atilde" unicode="&#xc3;" 
 />
    <glyph glyph-name="Adieresis" unicode="&#xc4;" 
 />
    <glyph glyph-name="Aring" unicode="&#xc5;" 
 />
    <glyph glyph-name="AE" unicode="&#xc6;" 
 />
    <glyph glyph-name="Ccedilla" unicode="&#xc7;" 
 />
    <glyph glyph-name="Egrave" unicode="&#xc8;" 
 />
    <glyph glyph-name="Eacute" unicode="&#xc9;" 
 />
    <glyph glyph-name="Ecircumflex" unicode="&#xca;" 
 />
    <glyph glyph-name="Edieresis" unicode="&#xcb;" 
 />
    <glyph glyph-name="Igrave" unicode="&#xcc;" 
 />
    <glyph glyph-name="Iacute" unicode="&#xcd;" 
 />
    <glyph glyph-name="Icircumflex" unicode="&#xce;" 
 />
    <glyph glyph-name="Idieresis" unicode="&#xcf;" 
 />
    <glyph glyph-name="Eth" unicode="&#xd0;" 
 />
    <glyph glyph-name="Ntilde" unicode="&#xd1;" 
 />
    <glyph glyph-name="Ograve" unicode="&#xd2;" 
 />
    <glyph glyph-name="Oacute" unicode="&#xd3;" 
 />
    <glyph glyph-name="Ocircumflex" unicode="&#xd4;" 
 />
    <glyph glyph-name="Otilde" unicode="&#xd5;" 
 />
    <glyph glyph-name="Odieresis" unicode="&#xd6;" 
 />
    <glyph glyph-name="multiply" unicode="&#xd7;" horiz-adv-x="507" 
d="M81 161l173 173l-173 173l28 28l173 -173l173 173l28 -28l-173 -173l173 -173l-28 -28l-173 173l-173 -173z" />
    <glyph glyph-name="Oslash" unicode="&#xd8;" 
 />
    <glyph glyph-name="Ugrave" unicode="&#xd9;" 
 />
    <glyph glyph-name="Uacute" unicode="&#xda;" 
 />
    <glyph glyph-name="Ucircumflex" unicode="&#xdb;" 
 />
    <glyph glyph-name="Udieresis" unicode="&#xdc;" 
 />
    <glyph glyph-name="Yacute" unicode="&#xdd;" 
 />
    <glyph glyph-name="Thorn" unicode="&#xde;" 
 />
    <glyph glyph-name="germandbls" unicode="&#xdf;" 
 />
    <glyph glyph-name="agrave" unicode="&#xe0;" 
 />
    <glyph glyph-name="aacute" unicode="&#xe1;" 
 />
    <glyph glyph-name="acircumflex" unicode="&#xe2;" 
 />
    <glyph glyph-name="atilde" unicode="&#xe3;" 
 />
    <glyph glyph-name="adieresis" unicode="&#xe4;" 
 />
    <glyph glyph-name="aring" unicode="&#xe5;" 
 />
    <glyph glyph-name="ae" unicode="&#xe6;" 
 />
    <glyph glyph-name="ccedilla" unicode="&#xe7;" 
 />
    <glyph glyph-name="egrave" unicode="&#xe8;" 
 />
    <glyph glyph-name="eacute" unicode="&#xe9;" 
 />
    <glyph glyph-name="ecircumflex" unicode="&#xea;" 
 />
    <glyph glyph-name="edieresis" unicode="&#xeb;" 
 />
    <glyph glyph-name="igrave" unicode="&#xec;" 
 />
    <glyph glyph-name="iacute" unicode="&#xed;" 
 />
    <glyph glyph-name="icircumflex" unicode="&#xee;" 
 />
    <glyph glyph-name="idieresis" unicode="&#xef;" 
 />
    <glyph glyph-name="eth" unicode="&#xf0;" 
 />
    <glyph glyph-name="ntilde" unicode="&#xf1;" 
 />
    <glyph glyph-name="ograve" unicode="&#xf2;" 
 />
    <glyph glyph-name="oacute" unicode="&#xf3;" 
 />
    <glyph glyph-name="ocircumflex" unicode="&#xf4;" 
 />
    <glyph glyph-name="otilde" unicode="&#xf5;" 
 />
    <glyph glyph-name="odieresis" unicode="&#xf6;" 
 />
    <glyph glyph-name="divide" unicode="&#xf7;" 
 />
    <glyph glyph-name="oslash" unicode="&#xf8;" 
 />
    <glyph glyph-name="ugrave" unicode="&#xf9;" 
 />
    <glyph glyph-name="uacute" unicode="&#xfa;" 
 />
    <glyph glyph-name="ucircumflex" unicode="&#xfb;" 
 />
    <glyph glyph-name="udieresis" unicode="&#xfc;" 
 />
    <glyph glyph-name="yacute" unicode="&#xfd;" 
 />
    <glyph glyph-name="thorn" unicode="&#xfe;" 
 />
    <glyph glyph-name="ydieresis" unicode="&#xff;" 
 />
    <glyph glyph-name="Abreve" unicode="&#x102;" 
 />
    <glyph glyph-name="abreve" unicode="&#x103;" 
 />
    <glyph glyph-name="Aogonek" unicode="&#x104;" 
 />
    <glyph glyph-name="aogonek" unicode="&#x105;" 
 />
    <glyph glyph-name="Cacute" unicode="&#x106;" 
 />
    <glyph glyph-name="cacute" unicode="&#x107;" 
 />
    <glyph glyph-name="Ccaron" unicode="&#x10c;" 
 />
    <glyph glyph-name="ccaron" unicode="&#x10d;" 
 />
    <glyph glyph-name="Dcaron" unicode="&#x10e;" 
 />
    <glyph glyph-name="dcaron" unicode="&#x10f;" 
 />
    <glyph glyph-name="Dslash" unicode="&#x110;" 
 />
    <glyph glyph-name="Eogonek" unicode="&#x118;" 
 />
    <glyph glyph-name="eogonek" unicode="&#x119;" 
 />
    <glyph glyph-name="Ecaron" unicode="&#x11a;" 
 />
    <glyph glyph-name="ecaron" unicode="&#x11b;" 
 />
    <glyph glyph-name="Gbreve" unicode="&#x11e;" 
 />
    <glyph glyph-name="gbreve" unicode="&#x11f;" 
 />
    <glyph glyph-name="Idotaccent" unicode="&#x130;" 
 />
    <glyph glyph-name="dotlessi" unicode="&#x131;" 
 />
    <glyph glyph-name="Lacute" unicode="&#x139;" 
 />
    <glyph glyph-name="lacute" unicode="&#x13a;" 
 />
    <glyph glyph-name="Lcaron" unicode="&#x13d;" 
 />
    <glyph glyph-name="lcaron" unicode="&#x13e;" 
 />
    <glyph glyph-name="Ldot" unicode="&#x13f;" 
 />
    <glyph glyph-name="ldot" unicode="&#x140;" 
 />
    <glyph glyph-name="Lslash" unicode="&#x141;" 
 />
    <glyph glyph-name="lslash" unicode="&#x142;" 
 />
    <glyph glyph-name="Nacute" unicode="&#x143;" 
 />
    <glyph glyph-name="nacute" unicode="&#x144;" 
 />
    <glyph glyph-name="Ncaron" unicode="&#x147;" 
 />
    <glyph glyph-name="ncaron" unicode="&#x148;" 
 />
    <glyph glyph-name="Odblacute" unicode="&#x150;" 
 />
    <glyph glyph-name="odblacute" unicode="&#x151;" 
 />
    <glyph glyph-name="OE" unicode="&#x152;" 
 />
    <glyph glyph-name="oe" unicode="&#x153;" 
 />
    <glyph glyph-name="Racute" unicode="&#x154;" 
 />
    <glyph glyph-name="racute" unicode="&#x155;" 
 />
    <glyph glyph-name="Rcaron" unicode="&#x158;" 
 />
    <glyph glyph-name="rcaron" unicode="&#x159;" 
 />
    <glyph glyph-name="Sacute" unicode="&#x15a;" 
 />
    <glyph glyph-name="sacute" unicode="&#x15b;" 
 />
    <glyph glyph-name="Scedilla" unicode="&#x15e;" 
 />
    <glyph glyph-name="scedilla" unicode="&#x15f;" 
 />
    <glyph glyph-name="Scaron" unicode="&#x160;" 
 />
    <glyph glyph-name="scaron" unicode="&#x161;" 
 />
    <glyph glyph-name="Tcedilla" unicode="&#x162;" 
 />
    <glyph glyph-name="tcedilla" unicode="&#x163;" 
 />
    <glyph glyph-name="Tcaron" unicode="&#x164;" 
 />
    <glyph glyph-name="tcaron" unicode="&#x165;" 
 />
    <glyph glyph-name="Uring" unicode="&#x16e;" 
 />
    <glyph glyph-name="uring" unicode="&#x16f;" 
 />
    <glyph glyph-name="Udblacute" unicode="&#x170;" 
 />
    <glyph glyph-name="udblacute" unicode="&#x171;" 
 />
    <glyph glyph-name="Ydieresis" unicode="&#x178;" 
 />
    <glyph glyph-name="Zacute" unicode="&#x179;" 
 />
    <glyph glyph-name="zacute" unicode="&#x17a;" 
 />
    <glyph glyph-name="Zdot" unicode="&#x17b;" 
 />
    <glyph glyph-name="zdot" unicode="&#x17c;" 
 />
    <glyph glyph-name="Zcaron" unicode="&#x17d;" 
 />
    <glyph glyph-name="zcaron" unicode="&#x17e;" 
 />
    <glyph glyph-name="florin" unicode="&#x192;" 
 />
    <glyph glyph-name="circumflex" unicode="&#x2c6;" 
 />
    <glyph glyph-name="caron" unicode="&#x2c7;" 
 />
    <glyph glyph-name="breve" unicode="&#x2d8;" 
 />
    <glyph glyph-name="dotaccent" unicode="&#x2d9;" 
 />
    <glyph glyph-name="ring" unicode="&#x2da;" 
 />
    <glyph glyph-name="ogonek" unicode="&#x2db;" 
 />
    <glyph glyph-name="tilde" unicode="&#x2dc;" 
 />
    <glyph glyph-name="hungarumlaut" unicode="&#x2dd;" 
 />
    <glyph glyph-name="Gamma" unicode="&#x393;" 
 />
    <glyph glyph-name="Delta" unicode="&#x394;" 
 />
    <glyph glyph-name="Delta" unicode="&#x2206;" 
 />
    <glyph glyph-name="Theta" unicode="&#x398;" 
 />
    <glyph glyph-name="Theta" unicode="&#x472;" 
 />
    <glyph glyph-name="Phi" unicode="&#x3a6;" 
 />
    <glyph glyph-name="Omega" unicode="&#x3a9;" 
 />
    <glyph glyph-name="Omega" unicode="&#x2126;" 
 />
    <glyph glyph-name="alpha" unicode="&#x3b1;" 
 />
    <glyph glyph-name="delta" unicode="&#x3b4;" 
 />
    <glyph glyph-name="epsilon" unicode="&#x3b5;" 
 />
    <glyph glyph-name="pi" unicode="&#x3c0;" 
 />
    <glyph glyph-name="sigma" unicode="&#x3c3;" 
 />
    <glyph glyph-name="tau" unicode="&#x3c4;" 
 />
    <glyph glyph-name="phi" unicode="&#x3c6;" 
 />
    <glyph glyph-name="endash" unicode="&#x2013;" horiz-adv-x="534" 
d="M509 223h-516v36h516v-36z" />
    <glyph glyph-name="emdash" unicode="&#x2014;" horiz-adv-x="1061" 
d="M1011 223h-1018v36h1018v-36z" />
    <glyph glyph-name="underscoredbl" unicode="&#x2017;" 
 />
    <glyph glyph-name="quoteleft" unicode="&#x2018;" horiz-adv-x="254" 
d="M220 680v-23q-3 -2 -8 -5q-36 -23 -50 -38q-23 -25 -23 -57v-5q0 -3 1 -6q3 -19 17 -19q5 0 16.5 4t17.5 4q21 0 36 -15t15 -36q0 -27 -19 -42t-47 -15q-33 0 -58 29t-25 62v6q0 55 38 98q35 41 89 58z" />
    <glyph glyph-name="quoteright" unicode="&#x2019;" horiz-adv-x="254" 
d="M115 427v23q3 2 8 5q36 23 50 38q23 25 23 57v5q0 3 -1 6q-3 19 -17 19q-8 0 -16 -4q-20 -4 -18 -4q-21 0 -36 15t-15 36q0 27 19 42t47 15q33 0 58 -29t25 -62v-6q0 -54 -36.5 -96.5t-90.5 -59.5z" />
    <glyph glyph-name="quotesinglbase" unicode="&#x201a;" horiz-adv-x="253" 
d="M114 -128q1 1 8 5q73 43 73 96v5q0 2 -1 5q-4 18 -17 18q-6 0 -15 -3t-19 -3q-21 0 -36 13.5t-15 34.5q0 27 19 42t47 15q33 0 58 -29t25 -62v-6q0 -53 -37 -95.5t-90 -58.5v23z" />
    <glyph glyph-name="quotedblleft" unicode="&#x201c;" horiz-adv-x="433" 
d="M158 679v-23q-3 -2 -8 -5q-36 -23 -50 -38q-23 -25 -23 -57v-5q0 -3 1 -6q3 -19 17 -19q5 0 16.5 4t17.5 4q21 0 36 -15t15 -36q0 -27 -19 -42t-47 -15q-33 0 -58 29t-25 62v6q0 55 38 98q35 41 89 58zM391 679v-23q-3 -2 -8 -5q-36 -23 -50 -38q-23 -25 -23 -57v-5
q0 -3 1 -6q3 -19 17 -19q5 0 16.5 4t17.5 4q21 0 36 -15t15 -36q0 -27 -19 -42t-47 -15q-33 0 -58 29t-25 62v6q0 55 38 98q35 41 89 58z" />
    <glyph glyph-name="quotedblright" unicode="&#x201d;" horiz-adv-x="433" 
d="M53 426v23q3 2 8 5q36 23 50 38q23 25 23 57v5q0 3 -1 6q-3 19 -17 19q-8 0 -16 -4q-20 -4 -18 -4q-21 0 -36 15t-15 36q0 27 19 42t47 15q33 0 58 -29t25 -62v-6q0 -54 -36.5 -96.5t-90.5 -59.5zM286 426v23q3 2 8 5q36 23 50 38q23 25 23 57v5q0 3 -1 6q-3 19 -17 19
q-8 0 -16 -4q-20 -4 -18 -4q-21 0 -36 15t-15 36q0 27 19 42t47 15q33 0 58 -29t25 -62v-6q0 -54 -36.5 -96.5t-90.5 -59.5z" />
    <glyph glyph-name="quotedblbase" unicode="&#x201e;" horiz-adv-x="433" 
d="M53 -128q1 1 8 5q73 43 73 96v5q0 2 -1 5q-4 18 -17 18q-6 0 -15 -3t-19 -3q-21 0 -36 13.5t-15 34.5q0 27 19 42t47 15q33 0 58 -29t25 -62v-6q0 -53 -37 -95.5t-90 -58.5v23zM286 -128q1 1 8 5q73 43 73 96v5q0 2 -1 5q-4 18 -17 18q-6 0 -15 -3t-19 -3q-21 0 -36 13.5
t-15 34.5q0 27 19 42t47 15q33 0 58 -29t25 -62v-6q0 -53 -37 -95.5t-90 -58.5v23z" />
    <glyph glyph-name="dagger" unicode="&#x2020;" horiz-adv-x="473" 
d="M261 -195h-22q0 346 -48 528q48 36 50 115q-26 0 -71 -19t-68 -19q-22 0 -37.5 13t-15.5 34t15.5 34t37.5 13q19 0 51 -12l52 -20q18 -6 36 -6q0 30 -22.5 83t-22.5 82v2v1q1 25 15.5 43.5t38.5 18.5t38.5 -18.5t15.5 -43.5v-1v-2q0 -30 -22.5 -83t-22.5 -82q26 0 71 19
t68 19q22 0 37.5 -13t15.5 -34t-15.5 -34t-37.5 -13q-19 0 -51 12l-52 20q-18 6 -36 6q5 -79 50 -115q-48 -182 -48 -527v-1z" />
    <glyph glyph-name="daggerdbl" unicode="&#x2021;" 
 />
    <glyph glyph-name="bullet" unicode="&#x2022;" horiz-adv-x="312" 
d="M52 333q0 51 36 87t87 36t87 -36t36 -87t-36 -87t-87 -36t-87 36t-36 87z" />
    <glyph glyph-name="ellipsis" unicode="&#x2026;" 
 />
    <glyph glyph-name="perthousand" unicode="&#x2030;" 
 />
    <glyph glyph-name="guilsinglleft" unicode="&#x2039;" horiz-adv-x="289" 
d="M276 0h-30l-189 228l189 230h30l-121 -230z" />
    <glyph glyph-name="guilsinglright" unicode="&#x203a;" horiz-adv-x="289" 
d="M57 458h30l189 -230l-189 -228h-30l121 228z" />
    <glyph glyph-name="exclamdbl" unicode="&#x203c;" 
 />
    <glyph glyph-name="fraction" unicode="&#x2044;" 
 />
    <glyph glyph-name="nsuperior" unicode="&#x207f;" 
 />
    <glyph glyph-name="franc" unicode="&#x20a3;" 
 />
    <glyph glyph-name="peseta" unicode="&#x20a7;" 
 />
    <glyph glyph-name="trademark" unicode="&#x2122;" 
 />
    <glyph glyph-name="arrowleft" unicode="&#x2190;" 
 />
    <glyph glyph-name="arrowup" unicode="&#x2191;" 
 />
    <glyph glyph-name="arrowright" unicode="&#x2192;" 
 />
    <glyph glyph-name="arrowdown" unicode="&#x2193;" 
 />
    <glyph glyph-name="arrowboth" unicode="&#x2194;" 
 />
    <glyph glyph-name="arrowupdn" unicode="&#x2195;" 
 />
    <glyph glyph-name="partialdiff" unicode="&#x2202;" 
 />
    <glyph glyph-name="product" unicode="&#x220f;" 
 />
    <glyph glyph-name="summation" unicode="&#x2211;" 
 />
    <glyph glyph-name="minus" unicode="&#x2212;" 
 />
    <glyph glyph-name="periodcentered" unicode="&#x2219;" 
 />
    <glyph glyph-name="radical" unicode="&#x221a;" 
 />
    <glyph glyph-name="infinity" unicode="&#x221e;" 
 />
    <glyph glyph-name="orthogonal" unicode="&#x221f;" 
 />
    <glyph glyph-name="intersection" unicode="&#x2229;" 
 />
    <glyph glyph-name="integral" unicode="&#x222b;" 
 />
    <glyph glyph-name="approxequal" unicode="&#x2248;" 
 />
    <glyph glyph-name="approxequal" unicode="&#x22f2;" 
 />
    <glyph glyph-name="notequal" unicode="&#x2260;" 
 />
    <glyph glyph-name="equivalence" unicode="&#x2261;" 
 />
    <glyph glyph-name="lessequal" unicode="&#x2264;" 
 />
    <glyph glyph-name="greaterequal" unicode="&#x2265;" 
 />
    <glyph glyph-name="house" unicode="&#x2302;" 
 />
    <glyph glyph-name="revlogicalnot" unicode="&#x2310;" 
 />
    <glyph glyph-name="integraltp" unicode="&#x2320;" 
 />
    <glyph glyph-name="integralbt" unicode="&#x2321;" 
 />
    <glyph glyph-name="upblock" unicode="&#x2580;" 
 />
    <glyph glyph-name="dnblock" unicode="&#x2584;" 
 />
    <glyph glyph-name="block" unicode="&#x2588;" 
 />
    <glyph glyph-name="lfblock" unicode="&#x258c;" 
 />
    <glyph glyph-name="rtblock" unicode="&#x2590;" 
 />
    <glyph glyph-name="ltshade" unicode="&#x2591;" 
 />
    <glyph glyph-name="shade" unicode="&#x2592;" 
 />
    <glyph glyph-name="dkshade" unicode="&#x2593;" 
 />
    <glyph glyph-name="filledbox" unicode="&#x25a0;" 
 />
    <glyph glyph-name="filledrect" unicode="&#x25ac;" 
 />
    <glyph glyph-name="triagup" unicode="&#x25b2;" 
 />
    <glyph glyph-name="triagrt" unicode="&#x25ba;" 
 />
    <glyph glyph-name="triagdn" unicode="&#x25bc;" 
 />
    <glyph glyph-name="triaglf" unicode="&#x25c4;" 
 />
    <glyph glyph-name="lozenge" unicode="&#x25ca;" 
 />
    <glyph glyph-name="circle" unicode="&#x25cb;" 
 />
    <glyph glyph-name="invbullet" unicode="&#x25d8;" 
 />
    <glyph glyph-name="invcircle" unicode="&#x25d9;" 
 />
    <glyph glyph-name="smileface" unicode="&#x263a;" 
 />
    <glyph glyph-name="invsmileface" unicode="&#x263b;" 
 />
    <glyph glyph-name="sun" unicode="&#x263c;" 
 />
    <glyph glyph-name="female" unicode="&#x2640;" 
 />
    <glyph glyph-name="male" unicode="&#x2642;" 
 />
    <glyph glyph-name="spade" unicode="&#x2660;" 
 />
    <glyph glyph-name="club" unicode="&#x2663;" 
 />
    <glyph glyph-name="heart" unicode="&#x2665;" 
 />
    <glyph glyph-name="diamond" unicode="&#x2666;" 
 />
    <glyph glyph-name="musicalnote" unicode="&#x266a;" 
 />
    <glyph glyph-name="musicalnotedbl" unicode="&#x266b;" 
 />
    <glyph glyph-name="apple" unicode="&#xf000;" 
 />
    <glyph glyph-name="fi" unicode="&#xf001;" 
 />
    <glyph glyph-name="fl" unicode="&#xf002;" 
 />
    <glyph glyph-name="glyph11" 
 />
    <glyph glyph-name="glyph14" 
 />
    <glyph glyph-name="glyph193" 
 />
    <glyph glyph-name="dslash" 
 />
    <glyph glyph-name="ch271" horiz-adv-x="534" 
d="M509 223h-516v36h516v-36z" />
    <glyph glyph-name="ch274" horiz-adv-x="312" 
d="M52 333q0 51 36 87t87 36t87 -36t36 -87t-36 -87t-87 -36t-87 36t-36 87z" />
    <glyph glyph-name="overstore" 
 />
    <glyph glyph-name="ch276" 
 />
    <glyph glyph-name="arrowupdnbase" 
 />
    <glyph glyph-name="u250" 
 />
    <glyph glyph-name="ch372" 
 />
    <glyph glyph-name="ch373" 
 />
    <glyph glyph-name="u251" 
 />
    <glyph glyph-name="ch375" 
 />
    <glyph glyph-name="ch376" 
 />
    <glyph glyph-name="ch377" 
 />
    <glyph glyph-name="u252" 
 />
    <glyph glyph-name="ch379" 
 />
    <glyph glyph-name="u253" 
 />
    <glyph glyph-name="ch381" 
 />
    <glyph glyph-name="u255" 
 />
    <glyph glyph-name="ch383" 
 />
    <glyph glyph-name="ch384" 
 />
    <glyph glyph-name="ch385" 
 />
    <glyph glyph-name="ch386" 
 />
    <glyph glyph-name="ch387" 
 />
    <glyph glyph-name="ch388" 
 />
    <glyph glyph-name="ch389" 
 />
    <glyph glyph-name="ch390" 
 />
    <glyph glyph-name="ch391" 
 />
    <glyph glyph-name="ch392" 
 />
    <glyph glyph-name="ch393" 
 />
    <glyph glyph-name="ch394" 
 />
    <glyph glyph-name="ch395" 
 />
    <glyph glyph-name="ch396" 
 />
    <glyph glyph-name="ch397" 
 />
    <glyph glyph-name="u256" 
 />
    <glyph glyph-name="ch399" 
 />
    <glyph glyph-name="ch400" 
 />
    <glyph glyph-name="ch401" 
 />
    <glyph glyph-name="ch402" 
 />
    <glyph glyph-name="ch403" 
 />
    <glyph glyph-name="ch404" 
 />
    <glyph glyph-name="ch405" 
 />
    <glyph glyph-name="ch406" 
 />
    <glyph glyph-name="ch407" 
 />
    <glyph glyph-name="ch408" 
 />
    <glyph glyph-name="ch409" 
 />
    <glyph glyph-name="ch410" 
 />
    </font>
</defs>
</svg>
