<?xml version="1.0" standalone="no"?>
<!DOCTYPE svg PUBLIC "-//W3C//DTD SVG 1.1//EN" "http://www.w3.org/Graphics/SVG/1.1/DTD/svg11.dtd" >
<svg>
<metadata>
Created by FontForge 20120731 at Sun Dec  7 13:24:28 2014
 By Orthosie Webhosting
Copyright (c) 2008 by BPG InfoTech. All rights reserved.
</metadata>
<defs>
<font id="BPGPaataCapsRegular" horiz-adv-x="500" >
  <font-face 
    font-family="BPGPaataCapsRegular"
    font-weight="400"
    font-style="italic"
    font-variant="small-caps"
    font-stretch="normal"
    units-per-em="1000"
    panose-1="2 0 5 6 0 0 0 2 0 4"
    ascent="720"
    descent="-280"
    x-height="448"
    cap-height="662"
    bbox="-77 -279 1043 792"
    underline-thickness="24"
    underline-position="-25"
    slope="-25"
    unicode-range="U+0020-E026"
  />
<missing-glyph horiz-adv-x="847" 
d="M165 687v-620h559v620h-559zM737 48h-586v658h586v-658z" />
    <glyph glyph-name=".notdef" horiz-adv-x="847" 
d="M165 687v-620h559v620h-559zM737 48h-586v658h586v-658z" />
    <glyph glyph-name=".null" horiz-adv-x="0" 
 />
    <glyph glyph-name="nonmarkingreturn" horiz-adv-x="314" 
 />
    <glyph glyph-name="space" unicode=" " horiz-adv-x="220" 
 />
    <glyph glyph-name="exclam" unicode="!" horiz-adv-x="333" 
d="M220 571l-44 -395h-19l-43 395q-3 25 -3 39q0 29 16 48t40 19t39.5 -19t15.5 -54zM166 94q22 0 38 -15.5t16 -37.5q0 -23 -16 -38.5t-38 -15.5t-38 15.5t-16 38.5q0 22 16 37.5t38 15.5z" />
    <glyph glyph-name="quotedbl" unicode="&#x22;" horiz-adv-x="408" 
d="M305 392h-24l-26 143l-11 59q-1 8 -1 24q0 59 50 59q21 0 35 -14t14 -38q0 -41 -9 -90zM124 392h-21l-27 145q-11 61 -11 81q0 59 48 59q21 0 35.5 -14.5t14.5 -37.5q0 -21 -13 -89z" />
    <glyph glyph-name="numbersign" unicode="#" 
d="M97 -13h-41l46 222h-84v40h91l34 167h-125v39h134l45 222h40l-44 -222h164l48 222h40l-46 -222h83v-39h-90l-35 -167h125v-40h-133l-45 -222h-40l45 222h-166zM185 416l-35 -167h166l35 167h-166z" />
    <glyph glyph-name="dollar" unicode="$" 
d="M53 25v138h21q6 -67 43 -102.5t109 -42.5v285q-108 67 -147 121q-26 38 -26 90q0 62 46 106t127 53v45h31v-45q40 -1 67 -9q33 -11 94 -34v-146h-19q-6 77 -39.5 113.5t-102.5 42.5v-248q122 -85 158 -127q35 -41 35 -101q0 -66 -51 -119q-51 -50 -142 -58v-63h-31v63
q-87 4 -173 38zM226 413v227q-97 -12 -97 -94q0 -37 22 -67.5t75 -65.5zM257 282v-264q37 8 56 18q59 38 59 104q0 32 -20 61q-20 30 -95 81z" />
    <glyph glyph-name="percent" unicode="%" horiz-adv-x="833" 
d="M636 677h44l-483 -704h-43zM178 677q66 0 102 -55q36 -54 36 -125q0 -82 -40 -129.5t-99 -47.5q-58 -3 -100.5 48.5t-41.5 128.5q-2 77 42.5 130t100.5 50zM176 650q-24 0 -44 -29q-19 -28 -19 -123q0 -66 11 -104q7 -27 25 -41q11 -9 26 -9q24 0 40 25q24 37 24 126
q0 93 -24 130q-15 25 -39 25zM657 329q56 3 100.5 -50.5t40.5 -127.5q0 -87 -42 -133q-40 -45 -97 -45q-58 0 -99.5 50t-41.5 128q-3 75 41 128t98 50zM658 303q-24 0 -41 -26q-22 -34 -22 -130q0 -87 23 -122q16 -25 40 -25q22 0 40 27q23 37 23 123q0 90 -23 128
q-16 25 -40 25z" />
    <glyph glyph-name="ampersand" unicode="&#x26;" horiz-adv-x="778" 
d="M510 408v19h205v-19q-43 -3 -63 -19q-20 -15 -63 -93q-43 -76 -96 -144q77 -92 146 -92q72 0 90 73l19 -14q-37 -134 -152 -134q-80 0 -171 95q-60 -52 -108.5 -73.5t-104.5 -21.5q-82 0 -128 43q-47 44 -47 103t42 117q44 60 160 122q-40 88 -40 146q0 83 62 127
q47 34 109 34q57 0 94 -34t37 -85q0 -50 -36 -91q-33 -38 -125 -85q61 -108 130 -202q86 103 86 173q0 22 -15 40q-10 13 -31 15zM324 414q120 58 120 147q0 35 -21.5 58t-53.5 23q-43 0 -65 -30q-21 -28 -21 -58q0 -46 41 -140zM399 109q-62 85 -89 128q-22 35 -55 101
q-117 -68 -117 -162q0 -52 33 -93q34 -39 91 -39q30 0 59 12q31 15 78 53z" />
    <glyph glyph-name="quotesingle" unicode="'" horiz-adv-x="180" 
d="M99 392h-22l-26 145q-11 63 -11 81q0 59 47 59q22 0 36.5 -14t14.5 -38q0 -21 -13 -89z" />
    <glyph glyph-name="parenleft" unicode="(" horiz-adv-x="333" 
d="M311 -150v-18q-76 39 -124 87q-70 71 -108 167t-38 200q0 151 74 276q76 125 196 179v-21q-61 -33 -100 -91q-76 -113 -76 -330q0 -107 16 -190q14 -71 31 -109q39 -87 129 -150z" />
    <glyph glyph-name="parenright" unicode=")" horiz-adv-x="333" 
d="M22 720v21q74 -37 124 -87q70 -71 108 -167t38 -200q0 -151 -75 -276q-74 -125 -195 -179v18q63 35 99 92q77 113 77 330q0 107 -16 190q-14 70 -31 108q-39 90 -129 150z" />
    <glyph glyph-name="asterisk" unicode="*" 
d="M241 510q-1 30 -13 67q-17 49 -17 66q0 24 11.5 38t29.5 14q16 0 27 -14t11 -37t-13 -62q-13 -37 -16 -72q26 16 49 42q31 36 47 46.5t35 10.5q16 0 27 -11t11 -26q0 -19 -17 -33q-18 -15 -80 -28q-34 -7 -62 -19q23 -12 62 -20q55 -10 75 -25.5t20 -36.5
q0 -15 -11 -25.5t-25 -10.5q-34 0 -81 56q-19 23 -50 45q2 -32 11 -61q18 -57 18 -78q0 -20 -11 -33.5t-26 -13.5q-18 0 -32 14q-11 11 -11 33t11 57q12 33 15 45q4 15 5 37q-31 -21 -50 -43q-34 -38 -54 -50q-13 -8 -26 -8q-17 0 -28.5 10.5t-11.5 25.5q0 30 40 48
q13 6 60 15q34 9 59 19q-22 12 -63 20q-63 14 -74 23q-22 16 -22 39q0 14 11 25t25 11q16 0 35 -11q20 -12 44 -41q27 -32 55 -48z" />
    <glyph glyph-name="plus" unicode="+" horiz-adv-x="564" 
d="M300 69h-39v244h-243v40h243v242h39v-242h244v-40h-244v-244z" />
    <glyph glyph-name="comma" unicode="," horiz-adv-x="250" 
d="M54 -166v21q49 17 77 51.5t28 74.5q0 10 -4 15q-5 5 -7 5q-6 0 -23 -10q-8 -4 -19 -4q-24 0 -38 14t-14 39q0 24 18 41t45 17q34 0 58 -28.5t24 -74.5q0 -52 -36.5 -94.5t-108.5 -66.5z" />
    <glyph glyph-name="hyphen" unicode="-" horiz-adv-x="333" 
d="M41 188v73h252v-73h-252z" />
    <glyph glyph-name="period" unicode="." horiz-adv-x="250" 
d="M125 95q23 0 38.5 -16t15.5 -38q0 -23 -16 -38.5t-38 -15.5t-38 15.5t-16 38.5t16 38.5t38 15.5z" />
    <glyph glyph-name="slash" unicode="/" horiz-adv-x="278" 
d="M241 695h39l-239 -708h-40z" />
    <glyph glyph-name="zero" unicode="0" 
d="M36 327q0 112 33.5 194t91.5 123q44 32 91 32q76 0 137 -78q75 -96 75 -260q0 -116 -33 -197q-31 -76 -81.5 -114t-102.5 -38q-95 0 -158 111q-53 95 -53 227zM132 315q0 -139 34 -223q27 -73 83 -73q29 0 56.5 26t40.5 77q23 86 23 237q0 113 -24 189q-17 56 -45 80
q-19 16 -49 16q-33 0 -59 -30q-34 -40 -48 -128q-12 -86 -12 -171z" />
    <glyph glyph-name="one" unicode="1" 
d="M125 582l-8 15l161 79h16v-559q0 -55 5 -70q6 -14 21.5 -21t57.5 -8v-18h-249v18q48 2 60 8q15 8 19 19q6 12 6 72v357q0 71 -5 93q-6 30 -34 30q-19 0 -50 -15z" />
    <glyph glyph-name="two" unicode="2" 
d="M440 128h18l-46 -128h-391v18q171 157 243 257q70 100 70 182q0 63 -39 103q-38 41 -91 41q-50 0 -88.5 -29t-56.5 -83h-18q12 89 62 138t126 49q82 0 135 -52q54 -51 54 -122q0 -49 -23 -100q-38 -81 -118 -168q-123 -135 -152 -160h173q55 0 74 4q45 8 68 50z" />
    <glyph glyph-name="three" unicode="3" 
d="M67 529l-16 7q58 140 179 140q80 0 122 -52q32 -38 32 -82q0 -74 -91 -150q124 -49 124 -173q0 -86 -55 -148q-70 -82 -206 -82q-61 0 -88 15t-27 37q0 15 11 25t28 10q12 0 24 -3q12 -4 38 -19q28 -15 41 -18q20 -5 38 -5q49 0 87 38q37 38 37 92q0 36 -17 75
q-14 28 -28 42q-23 21 -59.5 36t-73.5 15h-15v15q38 5 77 27q74 44 74 126q0 50 -31 81.5t-79 31.5q-75 0 -126 -81z" />
    <glyph glyph-name="four" unicode="4" 
d="M376 244h89v-69h-89v-175h-80v175h-280v63l307 438h53v-432zM63 244h233v329z" />
    <glyph glyph-name="five" unicode="5" 
d="M197 662h237l-38 -83h-199l-44 -89q130 -19 205 -96q65 -67 65 -156q0 -75 -42 -134t-104 -89q-57 -26 -115 -26q-56 0 -85 19t-29 45q0 15 11 25t28 10q20 0 55 -24q37 -25 74 -25q57 0 100 43q44 44 44 105q0 60 -38.5 112t-106.5 81q-51 22 -145 25z" />
    <glyph glyph-name="six" unicode="6" 
d="M420 676h28v-18q-63 -6 -104 -25t-82 -60q-76 -76 -109 -203q71 48 141 48q68 0 117 -55q50 -55 50 -140q0 -83 -50 -151q-60 -83 -160 -83q-68 0 -115 44q-93 89 -93 227q0 182 137 311q113 105 240 105zM145 334q-9 -66 -9 -106q0 -45 17 -102q16 -54 52 -87
q25 -23 60 -23q45 0 77.5 41.5t32.5 112.5q0 84 -34 145q-33 61 -94 61q-36 0 -102 -42z" />
    <glyph glyph-name="seven" unicode="7" 
d="M37 506l64 156h355v-18l-221 -657h-55l198 596h-182q-56 0 -79 -13q-40 -22 -66 -70z" />
    <glyph glyph-name="eight" unicode="8" 
d="M192 334q-80 65 -102 103t-22 81q0 65 49 111q50 47 133 47q79 0 129 -44q49 -43 49 -99q0 -37 -27 -76q-25 -36 -109 -90q83 -64 113 -105q37 -49 37 -105q0 -69 -53 -119q-52 -49 -139 -49q-94 0 -147 59q-42 46 -42 103q0 45 30 88t101 95zM188 452l81 -66
q57 51 73 83q16 31 16 69q0 52 -28.5 81t-78.5 29q-49 0 -80.5 -28.5t-31.5 -67.5q0 -51 49 -100zM215 315q-80 -65 -80 -161q0 -62 34 -100.5t88 -38.5q52 0 84.5 29t32.5 73q0 35 -19 63q-34 52 -140 135z" />
    <glyph glyph-name="nine" unicode="9" 
d="M81 -13h-28v18q65 2 118 29q54 28 106 100q51 71 71 157q-77 -50 -139 -50q-71 0 -120 54q-49 53 -49 144q0 88 49 155q60 82 157 82q82 0 140 -67q71 -85 71 -206q0 -111 -54 -206.5t-151 -158.5q-80 -51 -171 -51zM355 327q9 63 9 101q0 49 -16 103t-45.5 83.5
t-67.5 29.5q-46 0 -77.5 -40.5t-31.5 -114.5q0 -102 44 -161q32 -42 78 -42q60 0 107 41z" />
    <glyph glyph-name="colon" unicode=":" horiz-adv-x="278" 
d="M141 427q23 0 38.5 -16t15.5 -38q0 -23 -15.5 -38.5t-38.5 -15.5q-22 0 -38 15.5t-16 38.5q0 22 16 38t38 16zM140 95q23 0 39 -16t16 -38q0 -23 -16 -38.5t-39 -15.5q-22 0 -38 15.5t-16 38.5q0 22 16 38t38 16z" />
    <glyph glyph-name="semicolon" unicode=";" horiz-adv-x="278" 
d="M138 425q22 0 38 -15.5t16 -38.5q0 -22 -16 -38t-38 -16q-23 0 -39 16t-16 38q0 23 16 38.5t39 15.5zM69 -166v21q50 17 78 51.5t28 74.5q0 8 -5 15q-3 5 -6 5q-7 0 -24 -10q-8 -4 -18 -4q-24 0 -38.5 14t-14.5 39q0 24 18.5 41t44.5 17q34 0 58.5 -28.5t24.5 -74.5
q0 -52 -36.5 -94.5t-109.5 -66.5z" />
    <glyph glyph-name="less" unicode="&#x3c;" horiz-adv-x="564" 
d="M18 321v24l525 228v-43l-452 -196l452 -199v-43z" />
    <glyph glyph-name="equal" unicode="=" horiz-adv-x="564" 
d="M18 391v40h527v-40h-527zM18 232v40h527v-40h-527z" />
    <glyph glyph-name="greater" unicode="&#x3e;" horiz-adv-x="564" 
d="M543 343v-24l-525 -227v42l453 196l-453 198v45z" />
    <glyph glyph-name="question" unicode="?" horiz-adv-x="444" 
d="M222 156h-20q3 62 15 102q12 41 50 112q30 58 37 85q9 30 9 60q0 61 -32 98t-81 37q-41 0 -66.5 -19t-25.5 -44q0 -18 15 -45q15 -26 15 -40q0 -17 -11.5 -29t-27.5 -12q-22 0 -38 21t-16 55q0 56 47 98q48 42 129 42q100 0 148 -58q35 -44 35 -95q0 -74 -76 -162
q-70 -80 -87 -114q-16 -32 -19 -92zM215 96q23 0 39 -16t16 -39q0 -22 -16.5 -38t-38.5 -16q-23 0 -38.5 16t-15.5 38q0 23 15.5 39t38.5 16z" />
    <glyph glyph-name="at" unicode="@" horiz-adv-x="921" 
d="M611 457l76 11l-57 -195q-25 -86 -38 -139q-7 -27 -7 -46q0 -16 10.5 -26.5t26.5 -10.5q35 0 85 35q50 36 86 116q36 79 36 167q4 126 -90 215.5t-227 85.5q-112 0 -210 -60q-96 -60 -153 -173q-56 -114 -56 -233q0 -113 49 -204q49 -90 138 -138t196 -48q130 0 233 70
t159 200h28q-44 -135 -159 -217q-116 -83 -264 -83q-116 0 -216 55q-100 56 -155 156t-55 222q0 129 60 240q62 113 170 175q109 63 232 63q101 0 182 -42q82 -42 124 -123q43 -79 43 -170q0 -90 -40 -177q-38 -84 -99 -126t-131 -42q-36 0 -55 18t-19 49q0 26 8 72
q-72 -87 -116 -113t-76 -26q-36 0 -62 32t-26 82q0 70 46 158t122 143q56 41 101 41q67 0 84 -67zM516 448q-36 0 -74 -39q-54 -54 -94 -152q-29 -72 -29 -114q0 -29 17 -49t39 -20q27 0 59 21q32 23 66 66q33 43 50 90q27 78 27 127q0 32 -17 51t-44 19z" />
    <glyph glyph-name="A" unicode="A" horiz-adv-x="722" 
d="M498 127l-40 95h-257l-45 -105q-16 -36 -16 -57q0 -36 76 -42v-18h-208v18q39 7 54 19q23 23 55 96l233 544h17l230 -550q29 -69 50 -87q22 -19 64 -22v-18h-261v18q67 4 67 41q0 23 -19 68zM216 258h228l-112 268z" />
    <glyph glyph-name="B" unicode="B" horiz-adv-x="667" 
d="M462 338q68 -15 103 -47q47 -45 47 -110q0 -50 -31 -94q-32 -46 -86 -66q-54 -21 -166 -21h-312v18h25q41 0 59 27q11 17 11 72v428q0 61 -14 78q-20 21 -56 21h-25v18h286q78 0 128 -11q72 -18 111.5 -62t39.5 -103q0 -51 -31 -90.5t-89 -57.5zM206 619v-255
q36 -6 92 -6q72 0 107 15t54.5 46.5t19.5 69.5q0 62 -48.5 101.5t-136.5 39.5q-47 0 -88 -11zM206 320v-272q55 -13 112 -13q85 0 133 38.5t48 99.5q0 65 -52.5 108t-154.5 43q-63 0 -86 -4z" />
    <glyph glyph-name="C" unicode="C" horiz-adv-x="667" 
d="M585 677h17l15 -225h-15q-56 190 -221 190q-105 0 -169.5 -81t-64.5 -241q-3 -134 66 -214t182 -78q63 0 113 27q52 30 109 110l15 -9q-48 -89 -114.5 -130t-159.5 -41q-164 0 -254 122q-68 92 -68 214q-2 97 43.5 180.5t124 131t169.5 44.5q70 0 142 -35q19 -10 29 -10
q12 0 23 9q13 13 18 36z" />
    <glyph glyph-name="D" unicode="D" horiz-adv-x="722" 
d="M313 0h-296v18h25q42 0 60 27q10 16 10 72v428q0 62 -13 78q-19 21 -57 21h-25v18h270q150 0 225 -34q79 -33 125.5 -112t46.5 -181q0 -138 -84 -231q-95 -104 -287 -104zM206 611v-563q64 -14 104 -14q113 0 188 80t75 216t-75 216q-75 79 -192 79q-42 0 -100 -14z" />
    <glyph glyph-name="E" unicode="E" horiz-adv-x="611" 
d="M391 626h-182v-262h145q56 0 76 18q27 23 28 79h19v-231h-19q-6 49 -13 62q-19 37 -91 37h-145v-218q0 -45 4 -54q9 -21 51 -21h112q54 0 81 8q26 8 49 31q30 29 62 91h20l-57 -166h-510v18h23q23 0 44 12q16 7 21.5 23.5t5.5 63.5v430q0 63 -12 78q-18 19 -59 19h-23v18
h510l7 -145h-19q-11 55 -23 72q-12 20 -37 30q-18 7 -68 7z" />
    <glyph glyph-name="F" unicode="F" horiz-adv-x="556" 
d="M351 626h-146v-260h120q43 0 61.5 19t25.5 72h18v-224h-18q-4 54 -21 71.5t-66 20.5h-120v-208q0 -49 6 -66q4 -12 20 -21q23 -12 45 -12h24v-18h-284v18h24q41 0 59 24q12 16 12 75v428q0 52 -7 67q-5 13 -20 21q-22 11 -44 11h-24v18h493l6 -145h-17q-24 69 -48 88
t-99 21z" />
    <glyph glyph-name="G" unicode="G" horiz-adv-x="722" 
d="M596 677h18l17 -208h-17q-25 77 -67 117q-59 57 -152 57q-126 0 -192 -100q-56 -85 -56 -201q0 -96 37 -173q35 -75 93.5 -113t124.5 -38q71 0 137 37v191q0 49 -8 65q-9 17 -25.5 24.5t-53.5 7.5v19h256v-19h-12q-39 0 -52 -25q-10 -17 -10 -72v-202q-108 -59 -233 -59
q-192 0 -291 123q-75 92 -75 213q0 87 42 168q50 95 137 146q73 42 172 42q37 0 65 -6q25 -4 84 -25q28 -11 37 -11q20 0 24 42z" />
    <glyph glyph-name="H" unicode="H" horiz-adv-x="722" 
d="M206 545v-190h307v190q0 51 -6 67q-5 12 -21 21q-22 11 -44 11h-24v18h284v-18h-24q-22 0 -44 -11q-16 -7 -22 -24q-5 -17 -5 -64v-428q0 -49 6 -66q4 -12 20 -21q23 -12 45 -12h24v-18h-284v18h24q40 0 59 24q12 16 12 75v202h-307v-202q0 -49 6 -66q4 -12 20 -21
q21 -12 45 -12h24v-18h-284v18h24q41 0 59 24q12 16 12 75v428q0 52 -7 67q-5 13 -20 21q-22 11 -44 11h-24v18h284v-18h-24q-23 0 -45 -11q-15 -7 -21 -24q-5 -17 -5 -64z" />
    <glyph glyph-name="I" unicode="I" horiz-adv-x="333" 
d="M285 18h24v-18h-284v18h23q40 0 60 24q12 16 12 75v428q0 52 -7 67q-4 12 -20 21q-22 11 -45 11h-23v18h284v-18h-24q-41 0 -59 -24q-13 -14 -13 -75v-428q0 -51 7 -66q4 -12 20 -21q21 -12 45 -12z" />
    <glyph glyph-name="J" unicode="J" horiz-adv-x="389" 
d="M124 644h-24v18h283v-18h-24q-39 0 -59 -24q-11 -16 -11 -75v-324q0 -73 -17 -121q-17 -49 -58 -82t-95 -33q-44 0 -71 22t-27 53q0 24 12 36q17 15 37 15q18 0 30.5 -11.5t29.5 -53.5q11 -26 29 -26q15 0 25.5 17.5t10.5 55.5v452q0 52 -7 67q-5 13 -20 21
q-22 11 -44 11z" />
    <glyph glyph-name="K" unicode="K" horiz-adv-x="722" 
d="M400 468l-101 -101l244 -242q57 -57 99.5 -80.5t87.5 -26.5v-18h-314v18q26 0 39.5 9t13.5 22q0 12 -5.5 21.5t-29.5 34.5l-229 226v-214q0 -49 6 -66q5 -12 21 -21q21 -12 44 -12h23v-18h-282v18h23q40 0 60 24q11 17 11 75v428q0 51 -6 67q-4 12 -20 21q-24 11 -45 11
h-23v18h282v-18h-23q-22 0 -44 -11q-15 -7 -21 -24q-6 -15 -6 -64v-202l67 62q144 131 175 177q13 19 13 34q0 28 -44 28h-16v18h244v-18q-35 -2 -62.5 -15t-82.5 -61z" />
    <glyph glyph-name="L" unicode="L" horiz-adv-x="611" 
d="M573 183l16 -3l-56 -180h-513v18h25q42 0 60 28q10 14 10 72v427q0 62 -13 78q-20 21 -57 21h-25v18h300v-18q-51 1 -74 -10q-22 -11 -29 -26q-8 -16 -8 -74v-416q0 -40 8 -56q6 -10 18 -15q13 -5 76 -5h48q76 0 107 11q33 13 58 42.5t49 87.5z" />
    <glyph glyph-name="M" unicode="M" horiz-adv-x="889" 
d="M425 0h-16l-256 557v-442q0 -60 14 -76q18 -21 57 -21h23v-18h-230v18h23q42 0 60 26q10 14 10 71v433q0 44 -9 63q-16 33 -84 33v18h187l240 -518l237 518h187v-18h-23q-42 0 -60 -25q-11 -17 -11 -71v-433q0 -60 14 -76q18 -21 57 -21h23v-18h-281v18h23q43 0 60 26
q11 16 11 71v442z" />
    <glyph glyph-name="N" unicode="N" horiz-adv-x="722" 
d="M-13 644v18h180l404 -496v382q0 62 -13 76q-18 20 -58 20h-22v18h230v-18h-23q-42 0 -60 -25q-11 -17 -11 -71v-559h-17l-437 534v-408q0 -62 13 -76q19 -21 57 -21h24v-18h-231v18h23q43 0 60 26q11 16 11 71v460q-28 34 -44 45q-14 11 -43 20q-12 4 -43 4z" />
    <glyph glyph-name="O" unicode="O" horiz-adv-x="722" 
d="M366 677q128 0 223 -98t95 -244q0 -151 -96 -251q-94 -99 -230 -99q-137 0 -230 97q-93 98 -93 252q0 156 108 257q94 86 223 86zM356 642q-88 0 -142 -66q-67 -82 -67 -240q0 -162 69 -250q54 -66 141 -66q93 0 154 72q61 73 61 230q0 171 -67 253q-54 67 -149 67z" />
    <glyph glyph-name="P" unicode="P" horiz-adv-x="556" 
d="M205 310v-193q0 -61 14 -77q18 -22 56 -22h25v-18h-283v18h25q41 0 60 28q9 15 9 71v428q0 64 -13 78q-20 21 -56 21h-25v18h242q89 0 140 -18q54 -19 88 -63t34 -102q0 -83 -54 -132.5t-151 -49.5q-49 0 -111 13zM205 614v-276q50 -10 80 -10q51 0 88 39q37 40 37 102
q2 67 -39 112t-102 42q-25 0 -64 -9z" />
    <glyph glyph-name="Q" unicode="Q" horiz-adv-x="722" 
d="M440 -7q50 -85 107.5 -126t132.5 -47v-16q-99 1 -216.5 56.5t-191.5 132.5q-70 29 -111 60q-126 99 -126 280q0 149 96 246q98 98 233 98q130 0 225 -98t95 -248q0 -122 -68 -214q-67 -91 -176 -124zM358 640q-88 0 -143 -64q-68 -80 -68 -243q0 -161 69 -248
q54 -67 142 -67q93 0 148 67q66 79 66 234q0 118 -36 199q-54 122 -178 122z" />
    <glyph glyph-name="R" unicode="R" horiz-adv-x="667" 
d="M676 18v-18h-177l-224 310q-17 -1 -41 -1q-19 0 -28 1v-193q0 -63 13 -77q19 -22 56 -22h26v-18h-284v18h25q42 0 60 28q10 14 10 71v428q0 64 -13 78q-19 21 -57 21h-25v18h241q106 0 156 -15q52 -16 86 -58t34 -97q0 -63 -41 -107t-122 -62l136 -190q46 -65 81 -88
q35 -21 88 -27zM206 616v-275q7 0 16 -0.5t11 -0.5q92 0 141.5 40t49.5 106q0 62 -39 100.5t-103 38.5q-28 0 -76 -9z" />
    <glyph glyph-name="S" unicode="S" horiz-adv-x="556" 
d="M440 677h18v-229h-18q-7 64 -31 105q-23 39 -64.5 62t-87.5 23q-50 0 -84 -31q-33 -31 -33 -70q0 -29 21 -55q29 -36 144 -98q89 -48 127 -77q70 -54 70 -138q0 -75 -58 -130q-58 -54 -150 -54q-31 0 -54 4q-15 3 -63 18q-47 16 -60 16t-20 -8t-10 -30h-18v227h18
q14 -73 34 -107q22 -36 66.5 -59t96.5 -23q59 0 95.5 31.5t36.5 77.5q0 55 -56 95q-24 19 -104 62q-86 48 -121 76q-73 61 -73 138q0 71 55 122q55 52 139 52q55 0 112 -25q27 -13 39 -13q26 0 33 38z" />
    <glyph glyph-name="T" unicode="T" horiz-adv-x="611" 
d="M38 662h541l7 -155h-19q-4 40 -14 59q-30 55 -107 55h-93v-506q0 -62 13 -76q20 -21 57 -21h23v-18h-280v18h23q42 0 60 26q10 14 10 71v506h-79q-48 0 -66 -7q-59 -20 -65 -107h-19z" />
    <glyph glyph-name="U" unicode="U" horiz-adv-x="722" 
d="M502 644h-25v18h234v-18h-24q-40 0 -61 -32q-10 -16 -10 -71v-268q0 -98 -20 -155q-20 -59 -80 -96t-155 -37q-103 0 -160.5 35.5t-83.5 102.5q-15 43 -15 163v259q0 59 -16 79t-56 20h-25v18h287v-18h-26q-41 0 -58 -26q-13 -16 -13 -73v-288q0 -43 7 -89q8 -51 26 -78
q44 -63 139 -63q66 0 116 28q52 28 70 72q19 44 19 150v268q0 62 -13 78q-19 21 -57 21z" />
    <glyph glyph-name="V" unicode="V" horiz-adv-x="722" 
d="M506 662h204v-18q-36 -6 -53 -22q-27 -26 -46 -73l-231 -564h-18l-248 571q-20 44 -27 54q-24 30 -78 34v18h270v-18q-43 -4 -58 -14.5t-15 -29.5q0 -24 23 -76l168 -389l156 384q23 57 23 78q0 35 -62 46l-8 1v18z" />
    <glyph glyph-name="W" unicode="W" horiz-adv-x="944" 
d="M738 662h198v-18q-27 0 -42.5 -9t-30.5 -35q-9 -16 -30 -81l-185 -534h-20l-150 423l-150 -423h-18l-197 550q-23 63 -28 73q-18 36 -72 36v18h245v-18h-11q-26 0 -40 -11t-14 -29t22 -78l130 -372l110 316l-19 56l-16 44q-12 27 -23 43q-6 9 -16 16q-12 7 -24 12
q-9 3 -29 3v18h257v-18h-17q-53 0 -53 -43q0 -27 22 -87l127 -360l126 365q22 59 22 84q0 11 -7.5 21t-17.5 13q-18 7 -49 7v18z" />
    <glyph glyph-name="X" unicode="X" horiz-adv-x="722" 
d="M540 535l-132 -168l142 -212q57 -87 88 -111q29 -23 72 -26v-18h-284v18q28 2 42 6q24 11 24 32q0 10 -5 22q-3 8 -27 43l-112 170l-139 -177q-30 -40 -30 -58q0 -34 63 -38v-18h-235v18q23 3 43 11q60 23 120 100l157 197l-131 191q-53 77 -90 101q-36 24 -85 26v18h306
v-18q-68 -1 -68 -37q0 -18 23 -53l102 -152l117 149q30 37 30 56q0 11 -6 18q-7 11 -19 15t-46 4v18h235v-18q-29 -2 -45 -9q-26 -11 -48 -30q-21 -18 -62 -70z" />
    <glyph glyph-name="Y" unicode="Y" horiz-adv-x="722" 
d="M477 644v18h231v-18h-13q-11 0 -38 -11q-25 -12 -44.5 -33t-48.5 -68l-160 -251v-166q0 -60 14 -76q20 -21 59 -21h21v-18h-281v18h23q42 0 60 26q11 16 11 71v157l-182 277q-30 47 -44 61q-11 12 -47 29q-12 5 -29 5v18h283v-18h-14q-25 0 -43.5 -11.5t-18.5 -31.5
q0 -17 30 -63l138 -214l130 205q29 46 29 68q0 47 -66 47z" />
    <glyph glyph-name="Z" unicode="Z" horiz-adv-x="611" 
d="M85 662h490l-435 -622h272q62 0 95 27q35 29 60 111l16 -2l-31 -176h-539v18l424 605h-211q-53 0 -77 -12q-24 -11 -36 -33q-13 -24 -23 -81h-18z" />
    <glyph glyph-name="bracketleft" unicode="[" horiz-adv-x="333" 
d="M297 -160v-38h-215v875h215v-38h-142v-799h142z" />
    <glyph glyph-name="backslash" unicode="\" horiz-adv-x="278" 
d="M1 695h40l239 -708h-39z" />
    <glyph glyph-name="bracketright" unicode="]" horiz-adv-x="333" 
d="M37 639v38h214v-875h-214v38h141v799h-141z" />
    <glyph glyph-name="asciicircum" unicode="^" horiz-adv-x="469" 
d="M229 676h14l208 -350h-45l-171 286l-171 -286h-46z" />
    <glyph glyph-name="underscore" unicode="_" 
d="M509 -175v-41h-517v41h517z" />
    <glyph glyph-name="grave" unicode="`" horiz-adv-x="333" 
d="M201 510l-143 169h109l51 -169h-17z" />
    <glyph glyph-name="a" unicode="a" horiz-adv-x="444" 
d="M285 65q-70 -55 -87 -62q-26 -12 -56 -12q-46 0 -76 32t-30 83q0 32 14 57q20 34 69 62q48 29 166 72v17q0 64 -20.5 90.5t-62.5 26.5q-30 0 -49 -17q-19 -16 -19 -38l1 -28q0 -23 -11 -35t-30 -12q-18 0 -29.5 13t-11.5 34q0 43 43 77q44 36 120 36q60 0 98 -20
q28 -15 42 -48q9 -21 9 -86v-151q0 -59 2 -79q5 -24 22 -24q7 0 13 3q14 10 40 36v-27q-56 -74 -105 -74q-52 0 -52 74zM285 96v171q-73 -29 -96 -42q-71 -39 -71 -96q0 -34 20.5 -57.5t48.5 -23.5q36 0 98 48z" />
    <glyph glyph-name="b" unicode="b" 
d="M154 695v-325q64 91 140 91q69 0 120 -59q51 -58 51 -161q0 -119 -79 -192q-68 -62 -151 -62q-77 0 -162 56v464q0 78 -4 93q-5 31 -30 31q-13 0 -35 -8l-6 17l134 55h22zM154 339v-267q50 -50 106 -50q45 0 82 49q39 49 39 142q0 85 -39 132q-37 46 -87 46
q-26 0 -51 -13q-21 -11 -50 -39z" />
    <glyph glyph-name="c" unicode="c" horiz-adv-x="444" 
d="M397 177l14 -7q-18 -85 -69.5 -134t-117.5 -49q-77 0 -134 63q-56 65 -56 173q0 106 63 172t151 66q64 0 107 -35q43 -34 43 -73q0 -18 -12 -29.5t-33 -11.5q-29 0 -43 18q-9 10 -12 39q-1 28 -19 44q-17 15 -48 15q-48 0 -78 -36q-40 -47 -40 -127q0 -79 39 -141
q40 -61 107 -61q48 0 86 32q26 21 52 82z" />
    <glyph glyph-name="d" unicode="d" 
d="M347 -13v64q-60 -64 -131 -64q-73 0 -128 61t-55 157q0 97 60 176q62 80 157 80q60 0 97 -37v82q0 79 -4 94q-5 31 -31 31q-11 0 -33 -8l-7 17l134 55h22v-518q0 -78 3 -96q7 -30 31 -30q11 0 35 8l5 -17l-132 -55h-23zM347 85v230q-2 49 -34.5 83.5t-68.5 32.5
q-42 0 -77 -39q-44 -50 -44 -148q0 -100 42 -152q43 -52 96 -52q45 0 86 45z" />
    <glyph glyph-name="e" unicode="e" horiz-adv-x="444" 
d="M416 279h-310q0 -101 49 -156q50 -57 115 -57q91 0 130 107l16 -10q-10 -66 -60 -122q-50 -54 -124 -54q-79 0 -138 62q-57 63 -57 169q0 114 59 179q58 64 148 64q75 0 123 -50q49 -49 49 -132zM106 307h207q-1 40 -10 61q-12 27 -36 43t-51 16q-41 0 -72.5 -32.5
t-37.5 -87.5z" />
    <glyph glyph-name="f" unicode="f" horiz-adv-x="333" 
d="M321 412h-115v-294q0 -62 14 -79q18 -21 48 -21h41v-18h-267v18h20q18 0 35 9q16 10 22 27t6 64v294h-86v36h86v29q-3 96 49 155.5t138 61.5q51 0 94 -34q29 -23 29 -49q0 -15 -13 -27.5t-27 -12.5q-11 0 -25 8q-11 7 -30 34q-18 27 -33 36t-34 9q-21 0 -38 -12
q-14 -10 -22 -37q-7 -24 -7 -129v-32h115v-36z" />
    <glyph glyph-name="g" unicode="g" 
d="M151 163q-85 42 -85 136q0 66 50 114t128 48q64 0 111 -32h95q28 0 29 -5q3 -4 3 -16t-3 -17q-1 -6 -29 -6h-58q27 -35 27 -89q0 -63 -48 -108q-49 -44 -128 -44q-35 0 -68 10q-37 -32 -37 -56q0 -22 40 -27q26 -3 68 -4q95 -1 130 -7q46 -6 73 -33.5t27 -67.5
q0 -55 -52 -103q-76 -72 -198 -72q-96 0 -160 43q-36 24 -36 51q0 10 5 23q7 16 34 50q1 1 7 7.5t17.5 19t25.5 26.5q-46 28 -46 54q0 40 78 105zM236 437q-38 0 -61.5 -29.5t-23.5 -87.5q0 -76 33 -120q26 -32 65 -32q38 0 61 29t23 86q0 78 -33 122q-26 32 -64 32zM146 0
q-46 -49 -46 -86q0 -23 28 -41q50 -30 141 -30q89 0 129 31q42 32 42 66q0 26 -24 36q-28 12 -101 13q-106 3 -169 11z" />
    <glyph glyph-name="h" unicode="h" 
d="M140 695h23v-328q55 61 85 77q32 17 64 17q81 0 106 -87q9 -32 9 -114v-159q0 -43 7 -58q6 -13 18 -19t42 -6v-18h-220v18h10q29 0 42 9t19 28q1 5 1 46v159q0 72 -8 96q-13 46 -64 46t-111 -64v-237q0 -45 5 -57q12 -26 67 -26v-18h-222v18q30 0 47 9q22 12 22 74v405
q0 79 -4 94q-6 31 -32 31q-9 0 -33 -8l-7 17z" />
    <glyph glyph-name="i" unicode="i" horiz-adv-x="278" 
d="M145 695q21 0 35 -14.5t14 -35.5t-14 -35.5t-35 -14.5q-20 0 -35 15t-15 35q0 21 14.5 35.5t35.5 14.5zM164 461h22v-360q0 -43 6 -56q6 -15 18.5 -21t42.5 -6v-18h-217v18q34 0 44 6q24 14 24 77v173q0 74 -4 94q-5 28 -31 28q-12 0 -33 -8l-7 18z" />
    <glyph glyph-name="j" unicode="j" horiz-adv-x="278" 
d="M145 695q21 0 35.5 -14.5t14.5 -35.5t-14.5 -35.5t-35.5 -14.5t-35.5 14.5t-14.5 35.5t14.5 35.5t35.5 14.5zM166 461h21v-451q0 -111 -47.5 -168.5t-128.5 -57.5q-42 0 -65 15.5t-23 34.5q0 17 12 29t28 12q13 0 26 -6q11 -6 32 -25q24 -21 40 -21q13 0 23 9
q12 10 16 31q6 21 6 91v319q0 75 -4 94q-6 29 -31 29q-12 0 -33 -8l-7 18z" />
    <glyph glyph-name="k" unicode="k" 
d="M141 695h23v-446l113 104q36 33 42 42q4 5 4 12q0 24 -34 25v16h194v-16q-39 -1 -65.5 -12t-59.5 -40l-115 -106l115 -145q52 -65 64 -77q21 -20 41 -29q15 -5 43 -5v-18h-217v18q31 0 31 20q0 11 -19 36l-137 175v-148q0 -45 6 -58q7 -14 18.5 -19.5t47.5 -5.5v-18h-228
v18q33 0 52 8q10 4 15 17q8 18 8 55v408q0 79 -4 94q-5 31 -32 31q-9 0 -30 -8l-9 17z" />
    <glyph glyph-name="l" unicode="l" horiz-adv-x="278" 
d="M163 695h22v-594q0 -43 6 -56q13 -27 66 -27v-18h-219v18q32 0 42 6q24 14 24 77v407q0 77 -4 92q-5 31 -30 31q-11 0 -32 -8l-8 17z" />
    <glyph glyph-name="m" unicode="m" horiz-adv-x="778" 
d="M164 461v-96q52 52 58 57q47 39 97 39q43 0 73 -25t40 -71q49 58 85 77q34 19 71 19q77 0 107 -78q11 -30 11 -89v-193q0 -42 6 -57q12 -26 61 -26v-18h-220v18h9q28 0 45 11q11 8 16 25q2 10 2 47v193q0 55 -13 77q-19 31 -61 31q-51 0 -115 -61l-1 -5l1 -21v-214
q0 -45 5 -57q12 -26 67 -26v-18h-226v18q35 0 50 8t21 27q2 10 2 48v193q0 55 -16 78q-23 32 -60 32q-27 0 -52 -15q-41 -21 -63 -48v-240q0 -43 6 -57q7 -14 20 -20t47 -6v-18h-221v18q30 0 42 6q14 7 19.5 22.5t5.5 54.5v171q0 76 -4 95q-5 29 -31 29q-11 0 -32 -8l-8 18
l135 55h21z" />
    <glyph glyph-name="n" unicode="n" 
d="M162 461v-95q78 95 150 95q75 0 105 -79q10 -27 10 -90v-191q0 -43 7 -57q6 -14 18.5 -20t43.5 -6v-18h-222v18h10q29 0 42 9t19 28q2 10 2 46v183q0 62 -16 89.5t-54 27.5q-58 0 -115 -64v-236q0 -44 5 -56q7 -15 20 -21t47 -6v-18h-221v18h10q34 0 46 17t12 66v166
q0 83 -4 98q-5 31 -31 31q-12 0 -33 -8l-7 18l135 55h21z" />
    <glyph glyph-name="o" unicode="o" 
d="M250 461q101 0 163 -77q52 -65 52 -152q0 -59 -29 -122q-27 -60 -77.5 -91.5t-113.5 -31.5q-101 0 -161 80q-50 68 -50 152q0 61 30 123q30 59 79 89t107 30zM235 429q-46 0 -78 -41t-32 -128q0 -97 38 -168q39 -71 103 -71q109 0 109 174q0 120 -52 187q-35 47 -88 47z
" />
    <glyph glyph-name="p" unicode="p" 
d="M5 387l-6 16l138 56h18v-105q64 107 143 107q68 0 113 -53q55 -64 55 -168q0 -117 -67 -191q-54 -62 -137 -62q-37 0 -63 10q-20 8 -44 29v-136q0 -46 6 -58q13 -28 70 -28v-18h-234v18h12q26 0 46 11q9 5 14 17q5 13 5 61v423q0 44 -4 55q-7 23 -35 23q-13 0 -30 -7z
M155 325v-167q0 -53 5 -71q7 -29 34.5 -50t65.5 -21q49 0 79 38q40 49 40 140q0 102 -45 158q-32 38 -74 38q-24 0 -47 -12q-18 -10 -58 -53z" />
    <glyph glyph-name="q" unicode="q" 
d="M411 461h16v-576q0 -42 6 -54q7 -14 20.5 -20.5t46.5 -6.5v-18h-226v18h10q27 0 41 8q22 14 22 73v193q-44 -52 -77 -71.5t-70 -19.5q-65 0 -116 59t-51 158q0 115 67 185q68 72 163 72q56 0 93 -32q29 14 55 32zM347 109v210q0 37 -10 57q-9 22 -34 36.5t-55 14.5
q-58 0 -95.5 -48.5t-37.5 -139.5q0 -87 38.5 -135.5t97.5 -48.5q56 0 96 54z" />
    <glyph glyph-name="r" unicode="r" horiz-adv-x="333" 
d="M142 461h20v-101q56 101 115 101q26 0 44 -16.5t18 -38.5q0 -19 -12.5 -32t-30.5 -13q-16 0 -38 17t-31 17t-19 -10q-22 -19 -46 -66v-214q0 -37 9 -56q15 -31 69 -31v-18h-229v18q34 0 51 11q13 8 17 24q3 9 3 48v173q0 80 -4 93q-6 29 -33 29q-13 0 -34 -8l-5 18z" />
    <glyph glyph-name="s" unicode="s" horiz-adv-x="389" 
d="M304 461h16v-153h-16q-17 70 -45.5 97t-75.5 27q-34 0 -55.5 -17.5t-21.5 -40.5q0 -28 16 -47q16 -21 62 -43l71 -34q99 -50 99 -128q0 -61 -46 -98t-103 -37q-40 0 -94 14q-18 5 -27 5q-11 0 -17 -13h-16v160h16q14 -66 51.5 -102t87.5 -36q33 0 54.5 20t21.5 48
q0 34 -24 56q-26 24 -95 58q-69 35 -92 64q-22 28 -22 70q0 55 38.5 92.5t97.5 37.5q27 0 64 -12q22 -7 33 -7q8 0 12 3.5t10 15.5z" />
    <glyph glyph-name="t" unicode="t" horiz-adv-x="278" 
d="M146 594h15v-146h105v-35h-105v-290q0 -73 45 -73q37 0 54 39h19q-17 -46 -47.5 -71t-64.5 -25q-43 4 -66 29.5t-20 90.5v300h-71v16q61 25 105 98q14 24 31 67z" />
    <glyph glyph-name="u" unicode="u" 
d="M271 448h152v-271q0 -80 4 -96q7 -30 31 -30q13 0 34 8l7 -17l-134 -55h-22v94q-59 -62 -88 -78t-64 -16q-37 0 -66 21q-27 22 -37.5 56t-10.5 97v200q-4 45 -15.5 56t-60.5 12v19h157v-300q0 -58 19.5 -79.5t54.5 -21.5q48 0 111 63v254q0 39 -14 51.5t-58 13.5v19z" />
    <glyph glyph-name="v" unicode="v" 
d="M8 429v19h211v-19h-14q-39 0 -39 -34q0 -19 10 -40l104 -247l105 256q11 28 11 42q0 7 -4 11q-9 12 -47 12v19h146v-19q-25 -1 -35 -10q-17 -13 -31 -49l-159 -383h-20l-160 377q-15 41 -45 57q-9 5 -33 8z" />
    <glyph glyph-name="w" unicode="w" horiz-adv-x="722" 
d="M6 429v19h188v-19q-25 -2 -33.5 -8.5t-8.5 -21.5q0 -14 8 -36l96 -258l96 210l-25 66q-13 30 -31 40q-9 6 -40 8v19h213v-19q-35 -2 -50 -12q-10 -7 -10 -25q0 -11 4 -20l102 -257l94 248q10 24 10 42q0 23 -47 24v19h141v-19q-43 -6 -63 -57l-149 -385h-20l-112 285
l-130 -285h-18l-144 376q-14 35 -27.5 47.5t-43.5 18.5z" />
    <glyph glyph-name="x" unicode="x" 
d="M13 429v19h211v-19q-37 0 -37 -24q0 -11 18 -37l16 -24l31 -51l37 51q35 49 35 61q0 24 -35 24v19h151v-19q-24 -2 -41 -13q-24 -16 -66 -72l-61 -82l112 -160q40 -58 58 -71q17 -11 46 -13v-18h-211v18q23 0 34 10q9 6 9 18t-31 56l-65 96l-72 -96q-33 -44 -33 -52
q0 -13 11.5 -22t32.5 -10v-18h-146v18q17 2 30 12q19 14 63 72l94 125l-85 123q-36 52 -56 66q-19 13 -50 13z" />
    <glyph glyph-name="y" unicode="y" 
d="M6 429v19h208v-19h-10q-44 0 -44 -33q0 -20 16 -52l109 -226l100 247q9 19 9 40q0 9 -4 13q-8 11 -41 11v19h145v-19q-18 -2 -27.5 -7.5t-21.5 -21.5q-7 -12 -17 -38l-182 -446q-25 -62 -67.5 -97t-83.5 -35q-28 0 -47 16.5t-19 38.5q0 21 13.5 33.5t36.5 12.5
q14 0 44 -11q21 -8 24 -8q37 0 67 74l32 78l-161 337q-10 21 -23 38q-12 17 -20 23q-12 9 -36 13z" />
    <glyph glyph-name="z" unicode="z" horiz-adv-x="444" 
d="M403 137h17l-5 -137h-395v18l297 395h-147q-47 0 -62 -6q-13 -6 -24 -23q-14 -24 -15 -61h-19l3 125h375v-19l-300 -396h163q49 0 68 8t31 31q9 17 13 65z" />
    <glyph glyph-name="braceleft" unicode="{" horiz-adv-x="480" 
d="M411 -198v-18q-82 12 -133 67t-51 121q0 33 11 82q12 47 12 73q0 37 -31 66.5t-81 36.5v20q50 7 81 36.5t31 66.5q0 25 -12 72q-11 49 -11 82q0 65 51 121q52 57 133 67v-18q-55 -12 -83 -42.5t-28 -69.5q0 -27 11 -76t11 -81q0 -51 -37.5 -97t-106.5 -70
q69 -25 106.5 -72t37.5 -98q0 -31 -11 -80t-11 -76q0 -39 28 -69t83 -44z" />
    <glyph glyph-name="bar" unicode="|" horiz-adv-x="200" 
d="M79 695h40v-911h-40v911z" />
    <glyph glyph-name="braceright" unicode="}" horiz-adv-x="480" 
d="M86 677v18q82 -10 133 -66q51 -55 51 -122q0 -33 -11 -82t-11 -72q0 -37 30.5 -66.5t80.5 -36.5v-20q-50 -7 -80.5 -36.5t-30.5 -66.5q0 -24 11 -73t11 -82q0 -66 -51 -121t-133 -67v18q56 14 83.5 43.5t27.5 69.5q0 29 -12 76q-11 49 -11 80q0 51 37.5 97t107.5 71
q-68 24 -106.5 71t-38.5 98q0 32 11 81q12 47 12 76q0 39 -28 69.5t-83 42.5z" />
    <glyph glyph-name="asciitilde" unicode="~" horiz-adv-x="541" 
d="M509 330h22q-2 -62 -36 -98.5t-84 -36.5q-24 0 -48 7q-18 5 -134 52q-74 31 -107 31q-73 0 -91 -89h-21q3 63 35 99t79 36q23 0 44 -7q47 -12 133 -50q84 -35 117 -35q37 0 61.5 23.5t29.5 67.5z" />
    <glyph glyph-name="currency" unicode="&#xa4;" 
d="M388 498l70 69l28 -28l-70 -69q50 -65 50 -137q0 -74 -50 -138l70 -71l-28 -27l-70 70q-66 -51 -132 -51q-42 0 -83.5 15t-60.5 36l-71 -70l-28 27l70 71q-49 56 -49 137q0 77 49 138l-70 69l28 28l71 -69q25 22 64 36t75 14q76 0 137 -50zM250 508q-74 0 -126 -52
q-51 -52 -51 -125q0 -72 52 -124q53 -51 125 -51t124 52q53 53 53 124q3 68 -53.5 124t-123.5 52z" />
    <glyph glyph-name="brokenbar" unicode="&#xa6;" horiz-adv-x="200" 
d="M79 695h40v-363h-40v363zM79 147h40v-363h-40v363z" />
    <glyph glyph-name="section" unicode="&#xa7;" 
d="M184 412q-60 65 -60 126q0 57 40 97q41 41 98 41q54 0 89 -33q35 -32 35 -74q0 -20 -13 -34q-9 -10 -26 -10q-16 0 -27 11t-11 26q0 10 4 26q2 14 2 21q0 21 -14.5 34t-38.5 13q-35 0 -60 -25t-25 -61q0 -32 13 -52q22 -34 74 -71q97 -70 134 -127q26 -41 26 -84
q0 -47 -27 -91t-81 -76q34 -38 47 -65.5t13 -58.5q0 -60 -40 -100t-99 -40q-53 0 -87 34q-35 33 -35 76q0 18 11.5 30.5t26.5 12.5t25.5 -11.5t10.5 -31.5q0 -9 -3.5 -28.5t-3.5 -24.5q0 -14 12 -23q20 -15 46 -15q33 0 59 26q27 25 27 55t-15 54q-22 36 -85 83
q-92 68 -125 120q-25 40 -25 84q0 47 27.5 90.5t80.5 75.5zM200 397q-74 -45 -74 -109q0 -34 18 -63q26 -39 96 -93q28 -20 60 -49q75 45 75 107q0 32 -22 66q-21 35 -88 87q-32 25 -65 54z" />
    <glyph glyph-name="copyright" unicode="&#xa9;" horiz-adv-x="760" 
d="M380 677q88 0 170 -45q83 -44 130 -127t47 -174t-46 -173q-46 -81 -129 -128q-82 -45 -172 -45t-173 45q-82 46 -128 128q-45 82 -45 173q0 92 46 174q47 83 130 127q83 45 170 45zM380 648q-79 0 -156 -41q-74 -40 -118 -117q-42 -76 -42 -159q0 -81 41 -157
q42 -75 117 -117q76 -42 158 -42t157 42q77 42 117 117q42 75 42 157q0 83 -43 159q-42 77 -118 117q-76 41 -155 41zM532 554h19l10 -137h-19q-36 115 -148 115q-77 0 -123 -61q-34 -50 -34 -128q0 -101 43 -151.5t119 -50.5q95 0 152 79l18 -9q-68 -99 -187 -99
q-98 0 -162 63t-64 153q0 94 68 160q69 66 175 66q23 0 38 -3q16 -2 53 -15q11 -4 18 -4q15 0 24 22z" />
    <glyph glyph-name="guillemotleft" unicode="&#xab;" 
d="M129 227l119 -231h-28l-189 231l189 229h28zM350 227l119 -231h-29l-192 231l192 229h29z" />
    <glyph glyph-name="logicalnot" unicode="&#xac;" horiz-adv-x="564" 
d="M18 389v40h527v-198h-39v158h-488z" />
    <glyph glyph-name="uni00AD" unicode="&#xad;" horiz-adv-x="333" 
d="M41 188v73h252v-73h-252z" />
    <glyph glyph-name="registered" unicode="&#xae;" horiz-adv-x="760" 
d="M380 677q88 0 170 -45q83 -44 130 -127t47 -174t-46 -173q-46 -81 -129 -128q-82 -45 -172 -45t-173 45q-82 46 -128 128q-45 82 -45 173q0 92 46 174q47 83 130 127q83 45 170 45zM380 648q-79 0 -156 -41q-74 -40 -118 -117q-42 -76 -42 -159q0 -81 41 -157
q42 -75 117 -117q76 -42 158 -42t157 42q77 42 117 117q42 75 42 157q0 83 -43 159q-42 77 -118 117q-76 41 -155 41zM188 527v17h189q69 0 107 -31t38 -78q0 -80 -108 -109l102 -145q18 -25 33 -36q8 -5 26 -7v-16h-90l-144 198h-37v-151q3 -17 15 -24t43 -7v-16h-179v16
q40 0 47 22q3 8 3 45v256q0 38 -1 42q-6 24 -44 24zM304 515v-174q57 0 84 11q55 23 55 77q0 40 -28 67t-70 27q-17 0 -41 -8z" />
    <glyph glyph-name="macron" unicode="&#xaf;" 
d="M509 755v-41h-517v41h517z" />
    <glyph glyph-name="degree" unicode="&#xb0;" horiz-adv-x="400" 
d="M198 677q62 0 106 -44t44 -106t-44 -106t-106 -44t-106 44t-44 106q0 63 43 106q44 44 107 44zM198 636q-46 0 -77.5 -31.5t-31.5 -77.5q0 -45 31.5 -77t77.5 -32q45 0 77 32t32 77q0 46 -32 77.5t-77 31.5z" />
    <glyph glyph-name="plusminus" unicode="&#xb1;" horiz-adv-x="549" 
d="M531 69h-527v40h243v204h-243v40h243v242h39v-242h244v-40h-244v-204h245v-40z" />
    <glyph glyph-name="acute" unicode="&#xb4;" horiz-adv-x="333" 
d="M167 679h109l-144 -169h-17z" />
    <glyph glyph-name="paragraph" unicode="&#xb6;" horiz-adv-x="453" 
d="M455 635h-65v-851h-36v851h-91v-851h-35v510q-93 4 -140 24q-45 21 -70 64t-25 97q0 53 21 88q56 95 199 95h242v-27z" />
    <glyph glyph-name="periodcentered" unicode="&#xb7;" horiz-adv-x="250" 
d="M125 385q23 0 38.5 -15.5t15.5 -38.5q0 -22 -16 -38t-38 -16t-38 16t-16 38q0 23 16 38.5t38 15.5z" />
    <glyph glyph-name="ordmasculine" unicode="&#xba;" horiz-adv-x="310" 
d="M158 676q60 0 100 -41t40 -102t-44 -105q-43 -43 -102 -43q-58 0 -98 39q-40 40 -40 101q0 68 40.5 109.5t103.5 41.5zM145 655q-28 0 -45 -23t-17 -69q0 -77 34 -126q19 -28 50 -28q29 0 46.5 23t17.5 68q0 75 -35 125q-21 30 -51 30z" />
    <glyph glyph-name="guillemotright" unicode="&#xbb;" 
d="M371 226l-119 230h28l189 -230l-189 -230h-28zM150 226l-119 230h29l192 -230l-192 -230h-29z" />
    <glyph glyph-name="ring" unicode="&#x2da;" horiz-adv-x="376" 
d="M134 625q0 -21 20 -40t45 -17q25 -2 44 16t19 40q0 21 -19 37.5t-44 16.5q-26 0 -45.5 -15.5t-19.5 -37.5zM97 625q0 38 29.5 66.5t71.5 28.5q40 0 70.5 -29t30.5 -67q0 -40 -30 -69.5t-70 -29.5q-44 0 -73 29.5t-29 70.5z" />
    <glyph glyph-name="tilde" unicode="&#x2dc;" horiz-adv-x="333" 
d="M26 536h-15q4 126 92 126q19 0 36 -6q19 -6 62 -35q41 -27 60 -27q36 0 47 68h15q0 -61 -27 -94.5t-66 -33.5t-96 39q-43 30 -62 30q-20 0 -32 -18q-5 -8 -14 -49z" />
    <glyph glyph-name="afii10023" unicode="&#x401;" horiz-adv-x="611" 
d="M391 549h-182v-243h97q55 0 75 17q26 23 29 60h18v-211h-18q-8 51 -14 62q-19 37 -90 37h-97v-160q0 -45 4 -54q9 -21 51 -21h112q54 0 81 8q26 8 49 31q30 29 62 91h20l-57 -166h-510v18h23q23 0 44 12q16 7 21.5 23.5t5.5 63.5v352q0 63 -12 78q-18 20 -59 20h-23v18
h510l7 -145h-19q-9 50 -21.5 70.5t-38.5 30.5q-21 8 -68 8zM393 722q22 0 37.5 -15.5t15.5 -37.5t-15.5 -37.5t-37.5 -15.5t-37.5 15.5t-15.5 37.5t15.5 37.5t37.5 15.5zM221 722q22 0 37.5 -15.5t15.5 -37.5t-15.5 -37.5t-37.5 -15.5t-37.5 15.5t-15.5 37.5t15.5 37.5
t37.5 15.5z" />
    <glyph glyph-name="afii10017" unicode="&#x410;" horiz-adv-x="722" 
d="M498 127l-40 95h-257l-45 -105q-16 -36 -16 -57q0 -36 76 -42v-18h-208v18q39 7 54 19q23 23 55 96l233 544h17l230 -550q29 -69 50 -87q22 -19 64 -22v-18h-261v18q67 4 67 41q0 23 -19 68zM216 258h228l-112 268z" />
    <glyph glyph-name="afii10018" unicode="&#x411;" horiz-adv-x="574" 
d="M23 662h470l7 -144h-18q-16 70 -49 89q-31 19 -115 19h-111v-262h26q124 0 179 -16q58 -15 93.5 -59t35.5 -104q0 -74 -55 -129q-54 -56 -188 -56h-280v18q60 1 78 19q17 19 17 84v421q0 52 -7 67q-7 18 -23.5 25.5t-59.5 9.5v18zM207 324v-284q41 -7 67 -7q61 0 108 40
q49 40 49 111q0 70 -49 107t-131 37q-24 0 -44 -4z" />
    <glyph glyph-name="afii10019" unicode="&#x412;" horiz-adv-x="667" 
d="M462 338q68 -15 103 -47q47 -45 47 -110q0 -50 -31 -94q-32 -46 -86 -66q-54 -21 -166 -21h-312v18h25q41 0 59 27q11 17 11 72v428q0 61 -14 78q-20 21 -56 21h-25v18h286q78 0 128 -11q72 -18 111.5 -62t39.5 -103q0 -51 -31 -90.5t-89 -57.5zM206 619v-255
q36 -6 92 -6q72 0 107 15t54.5 46.5t19.5 69.5q0 62 -48.5 101.5t-136.5 39.5q-47 0 -88 -11zM206 320v-272q55 -13 112 -13q85 0 133 38.5t48 99.5q0 65 -52.5 108t-154.5 43q-63 0 -86 -4z" />
    <glyph glyph-name="afii10020" unicode="&#x413;" horiz-adv-x="578" 
d="M18 662h531l3 -154h-19q-1 45 -20 74q-17 28 -42 36t-78 8h-185v-505q0 -67 16 -84q18 -18 78 -19v-18h-284v18q62 2 79 19q17 19 17 84v421q0 65 -17 82q-17 18 -79 20v18z" />
    <glyph glyph-name="afii10021" unicode="&#x414;" horiz-adv-x="682" 
d="M118 644v18h546v-18q-60 -1 -79 -20q-17 -17 -17 -82v-367q0 -107 12 -132q13 -25 80 -25v-208h-17q-24 107 -77.5 149.5t-142.5 40.5h-169q-110 0 -162 -60q-53 -60 -63 -130h-16v208q78 7 127 94q50 89 69 215q19 124 19 209q0 50 -12 72q-13 24 -29 28q-18 7 -69 8z
M475 626h-198q-12 -287 -47 -406q-35 -117 -91 -184h245q64 0 78 11q13 12 13 75v504z" />
    <glyph glyph-name="afii10022" unicode="&#x415;" horiz-adv-x="611" 
d="M391 626h-182v-262h145q56 0 76 18q27 23 28 79h19v-231h-19q-6 49 -13 62q-19 37 -91 37h-145v-218q0 -45 4 -54q9 -21 51 -21h112q54 0 81 8q26 8 49 31q30 29 62 91h20l-57 -166h-510v18h23q23 0 44 12q16 7 21.5 23.5t5.5 63.5v430q0 63 -12 78q-18 19 -59 19h-23v18
h510l7 -145h-19q-11 55 -23 72q-12 20 -37 30q-18 7 -68 7z" />
    <glyph glyph-name="afii10024" unicode="&#x416;" horiz-adv-x="896" 
d="M590 0h-285v18q61 2 79 19q17 19 17 84v202l-13 1q-19 0 -30 -7t-19 -18q-1 -1 -65 -118l-97 -181h-168v18q71 12 106 56q38 50 118 192q32 54 59 73q-29 23 -44 51q-13 25 -40 112q-19 65 -30 82q-10 16 -27 16t-42 -15q-26 -14 -43 -14q-20 0 -33.5 12t-13.5 31
q0 23 21.5 39.5t59.5 16.5t70 -20q30 -18 44 -47q16 -31 37 -104q22 -69 33 -94q25 -48 88 -48q11 0 29 3v182q0 65 -17 82q-17 18 -79 20v18h285v-18q-61 -1 -78 -20q-17 -17 -17 -82v-182q13 -3 26 -3q36 0 57 12q22 14 32 36q10 19 34 94q23 79 36 103q15 29 46.5 48.5
t68.5 19.5t59 -16t22 -40q0 -19 -13 -31t-34 -12q-16 0 -42 14q-27 15 -43 15t-27 -17t-30 -81q-27 -87 -40 -113q-14 -26 -44 -50q22 -15 40 -41q14 -19 73 -123q53 -95 84 -121q32 -26 87 -36v-18h-169q-6 14 -75 141l-76 141q-20 42 -59 42q-8 0 -13 -1v-202
q0 -65 17 -84q18 -18 78 -19v-18z" />
    <glyph glyph-name="afii10025" unicode="&#x417;" horiz-adv-x="501" 
d="M67 484h-17v193h17q7 -33 36 -33q13 0 46 13q57 20 116 20q82 0 131 -49q50 -50 50 -115q0 -59 -36.5 -102t-100.5 -64q67 -12 108.5 -61t41.5 -115q0 -81 -63 -134q-62 -52 -158 -52q-141 0 -217 133l17 11q25 -43 73 -71t101 -28q63 0 100 42t37 106q0 66 -46 109
q-45 45 -150 45v32q73 0 111 15q39 16 62 52t23 81q0 55 -32.5 88.5t-88.5 33.5q-68 0 -108.5 -39.5t-52.5 -110.5z" />
    <glyph glyph-name="afii10026" unicode="&#x418;" horiz-adv-x="722" 
d="M208 160l307 393q0 60 -20 75q-19 16 -78 16v18h287v-18q-60 -1 -79 -20q-17 -17 -17 -82v-421q0 -65 17 -84q19 -18 79 -19v-18h-287v18q63 2 80 20q18 18 18 83v380l-307 -394q0 -40 5 -57q11 -31 91 -32v-18h-286v18q62 2 79 19q17 19 17 84v421q0 65 -17 82
q-17 18 -79 20v18h286v-18q-62 -2 -79 -20q-17 -17 -17 -82v-382z" />
    <glyph glyph-name="afii10027" unicode="&#x419;" horiz-adv-x="722" 
d="M512 792q15 0 26 -13t11 -31q0 -46 -47.5 -76t-140.5 -30t-140 30t-47 76q0 18 11 31t26 13q17 0 28 -12.5t32 -55.5q30 -60 90 -60t90 60q21 43 32 55.5t29 12.5zM208 160l307 337q0 59 -20 76q-19 16 -78 16v18h287v-18q-60 -1 -79 -20q-17 -17 -17 -83v-365
q0 -65 17 -84q19 -18 79 -19v-18h-287v18q63 2 80 20q18 18 18 83v324l-307 -338q0 -40 5 -57q11 -31 91 -32v-18h-286v18q62 2 79 19q17 19 17 84v365q0 66 -17 83q-17 18 -79 20v18h286v-18q-62 -2 -79 -20q-17 -17 -17 -83v-326z" />
    <glyph glyph-name="afii10028" unicode="&#x41a;" horiz-adv-x="667" 
d="M664 18v-18h-171q-32 50 -118 168q-87 121 -109 136q-20 14 -58 15v-198q0 -67 16 -84q18 -17 79 -19v-18h-285v18q60 1 78 19t18 84v421q0 65 -17 82q-17 18 -79 20v18h285v-18q-62 -2 -79 -20q-16 -16 -16 -82v-185q55 2 73 7q20 7 46 30q27 25 41 51q16 29 38 89
q21 56 36 80t46.5 40t71.5 16q75 0 75 -53q0 -18 -15 -31.5t-34 -13.5q-14 0 -45 15q-30 14 -40 14q-17 0 -27 -16q-11 -18 -36 -83q-47 -125 -119 -159q43 -7 123 -122q82 -120 122 -161q41 -41 100 -42z" />
    <glyph glyph-name="afii10029" unicode="&#x41b;" horiz-adv-x="678" 
d="M471 121v505h-205v-185q0 -282 -49 -365q-48 -84 -133 -84q-35 0 -55 17.5t-20 42.5q0 18 12.5 31t30.5 13q16 0 35 -15q22 -16 39 -16q43 0 70 70q27 71 27 268v139q0 66 -18 82q-17 19 -78 20v18h533v-18q-62 -2 -79 -20q-17 -17 -17 -82v-421q0 -65 17 -84
q17 -17 79 -19v-18h-285v18q61 2 79 19q17 19 17 84z" />
    <glyph glyph-name="afii10030" unicode="&#x41c;" horiz-adv-x="889" 
d="M425 0h-16l-256 557v-442q0 -60 14 -76q18 -21 57 -21h23v-18h-230v18h23q42 0 60 26q10 14 10 71v433q0 44 -9 63q-16 33 -84 33v18h187l240 -518l237 518h187v-18h-23q-42 0 -60 -25q-11 -17 -11 -71v-433q0 -60 14 -76q18 -21 57 -21h23v-18h-281v18h23q43 0 60 26
q11 16 11 71v442z" />
    <glyph glyph-name="afii10031" unicode="&#x41d;" horiz-adv-x="722" 
d="M206 545v-190h307v190q0 51 -6 67q-5 12 -21 21q-22 11 -44 11h-24v18h284v-18h-24q-22 0 -44 -11q-16 -7 -22 -24q-5 -17 -5 -64v-428q0 -49 6 -66q4 -12 20 -21q23 -12 45 -12h24v-18h-284v18h24q40 0 59 24q12 16 12 75v202h-307v-202q0 -49 6 -66q4 -12 20 -21
q21 -12 45 -12h24v-18h-284v18h24q41 0 59 24q12 16 12 75v428q0 52 -7 67q-5 13 -20 21q-22 11 -44 11h-24v18h284v-18h-24q-23 0 -45 -11q-15 -7 -21 -24q-5 -17 -5 -64z" />
    <glyph glyph-name="afii10032" unicode="&#x41e;" horiz-adv-x="722" 
d="M366 682q128 0 223 -98t95 -244q0 -150 -96 -251q-94 -99 -230 -99q-137 0 -230 97t-93 252q0 157 108 257q94 86 223 86zM356 647q-88 0 -142 -66q-67 -82 -67 -240q0 -163 69 -250q54 -66 141 -66q93 0 154 72q61 73 61 230q0 171 -67 253q-54 67 -149 67z" />
    <glyph glyph-name="afii10033" unicode="&#x41f;" horiz-adv-x="722" 
d="M515 121v505h-307v-505q0 -67 16 -84q18 -17 79 -19v-18h-285v18q62 2 79 19q17 19 17 84v421q0 65 -17 82q-17 18 -79 20v18h686v-18q-60 -1 -79 -20q-17 -17 -17 -82v-421q0 -65 17 -84q19 -18 79 -19v-18h-285v18q60 1 78 19t18 84z" />
    <glyph glyph-name="afii10034" unicode="&#x420;" horiz-adv-x="556" 
d="M205 310v-193q0 -61 14 -77q18 -22 56 -22h25v-18h-283v18h25q41 0 60 28q9 15 9 71v428q0 64 -13 78q-20 21 -56 21h-25v18h242q89 0 140 -18q54 -19 88 -63t34 -102q0 -83 -54 -132.5t-151 -49.5q-49 0 -111 13zM205 614v-276q50 -10 80 -10q51 0 88 39q37 40 37 102
q2 67 -39 112t-102 42q-25 0 -64 -9z" />
    <glyph glyph-name="afii10035" unicode="&#x421;" horiz-adv-x="667" 
d="M585 687h17l15 -225h-15q-56 190 -221 190q-105 0 -169.5 -81t-64.5 -241q-3 -134 66 -214t182 -78q63 0 113 27q52 30 109 110l15 -10q-49 -88 -115.5 -129t-158.5 -41q-164 0 -254 122q-68 92 -68 214q-2 97 43.5 180.5t124 131t169.5 44.5q70 0 142 -35q20 -11 29 -11
q13 0 23 10q13 13 18 36z" />
    <glyph glyph-name="afii10036" unicode="&#x422;" horiz-adv-x="611" 
d="M38 662h541l7 -155h-19q-4 40 -14 59q-30 55 -107 55h-93v-506q0 -62 13 -76q20 -21 57 -21h23v-18h-280v18h23q42 0 60 26q10 14 10 71v506h-79q-48 0 -66 -7q-59 -20 -65 -107h-19z" />
    <glyph glyph-name="afii10037" unicode="&#x423;" horiz-adv-x="708" 
d="M13 644v18h268v-18q-71 -3 -71 -38q0 -24 53 -116l144 -254l106 254q33 80 33 107q0 38 -62 47v18h208v-18q-74 -9 -111 -99l-127 -301q-52 -120 -80 -165q-60 -94 -143 -94q-34 0 -57 15t-23 39q0 18 12.5 30t33.5 12q20 0 49 -17q19 -10 28 -10q39 0 87 80l-240 422
q-26 45 -48.5 63.5t-59.5 24.5z" />
    <glyph glyph-name="afii10038" unicode="&#x424;" horiz-adv-x="790" 
d="M538 18v-18h-286v18q57 1 76 15.5t20 58.5q-164 0 -238 69q-73 70 -73 174q0 78 43 133q43 54 105.5 76t162.5 22q-2 41 -13 54q-10 13 -26 18q-13 4 -57 6v18h286v-18q-57 -1 -76 -17q-19 -15 -20 -61q104 0 165 -23q64 -25 105 -79t41 -129q0 -101 -71 -172t-240 -71
q1 -44 20 -58.5t76 -15.5zM442 530v-402q73 0 114 19q44 19 71.5 68.5t27.5 119.5q0 68 -28 114q-27 46 -69 63.5t-116 17.5zM348 128v402q-78 0 -117 -19q-43 -19 -69.5 -64t-26.5 -112q0 -75 32 -127q31 -48 73 -64t108 -16z" />
    <glyph glyph-name="afii10039" unicode="&#x425;" horiz-adv-x="722" 
d="M540 535l-132 -168l142 -212q57 -87 88 -111q29 -23 72 -26v-18h-284v18q28 2 42 6q24 11 24 32q0 10 -5 22q-3 8 -27 43l-112 170l-139 -177q-30 -40 -30 -58q0 -34 63 -38v-18h-235v18q23 3 43 11q60 23 120 100l157 197l-131 191q-53 77 -90 101q-36 24 -85 26v18h306
v-18q-68 -1 -68 -37q0 -18 23 -53l102 -152l117 149q30 37 30 56q0 11 -6 18q-7 11 -19 15t-46 4v18h235v-18q-29 -2 -45 -9q-26 -11 -48 -30q-21 -18 -62 -70z" />
    <glyph glyph-name="afii10040" unicode="&#x426;" horiz-adv-x="722" 
d="M703 18v-208h-17q-13 73 -64 133q-50 57 -155 57h-449v18q62 2 79 19q17 19 17 84v421q0 65 -17 82q-17 18 -79 20v18h285v-18q-61 -1 -78 -20q-17 -17 -17 -82v-442q0 -45 5 -55q5 -9 59 -9h170q64 0 68 9q5 12 5 65v432q0 66 -18 82q-17 18 -79 20v18h286v-18
q-60 -1 -79 -20q-17 -17 -17 -82v-423q0 -68 16 -84q17 -17 79 -17z" />
    <glyph glyph-name="afii10041" unicode="&#x427;" horiz-adv-x="650" 
d="M442 340v199q0 57 -7 72q-13 33 -88 33v18h285v-18q-41 0 -62 -9q-19 -7 -27 -25q-7 -15 -7 -71v-416q0 -55 8 -73q8 -16 27.5 -23t60.5 -9v-18h-285v18q42 1 62 9q18 7 26 24q7 15 7 72v178q-122 -55 -200 -55q-57 0 -95 23q-36 22 -45 50q-9 27 -9 108v112q0 57 -7 72
q-13 33 -89 33v18h286v-18q-41 0 -63 -9q-21 -9 -27 -27t-6 -69v-91q0 -67 7 -92q14 -56 87 -56q74 0 161 40z" />
    <glyph glyph-name="afii10042" unicode="&#x428;" horiz-adv-x="1009" 
d="M981 18v-18h-953v18l18 2q37 3 52 18q15 16 15 83v421q0 65 -16 81q-15 18 -69 21v18h254v-18q-48 -5 -62 -23q-13 -17 -13 -79v-421q0 -51 3 -64q4 -13 13 -17t39 -4h129q48 0 58 8q9 7 9 77v421q0 58 -14 78t-62 24v18h244v-18q-49 -5 -62 -24q-13 -17 -13 -78v-421
q0 -64 8 -75q9 -10 64 -10h131q27 0 35 5q9 5 10 14q3 9 3 66v421q0 59 -14 78q-14 20 -61 24v18h252v-18q-38 -2 -54 -11q-18 -9 -23.5 -27t-5.5 -64v-421q0 -53 4 -65q5 -15 19 -26q15 -10 62 -12z" />
    <glyph glyph-name="afii10043" unicode="&#x429;" horiz-adv-x="1009" 
d="M716 0h-688v18l18 2q37 3 52 18q15 16 15 83v421q0 65 -16 81q-15 18 -69 21v18h254v-18q-48 -5 -62 -23q-13 -17 -13 -79v-421q0 -51 3 -64q4 -13 13 -17t39 -4h129q48 0 58 8q9 7 9 77v421q0 58 -14 78t-62 24v18h244v-18q-49 -5 -62 -24q-13 -17 -13 -78v-421
q0 -64 8 -75q9 -10 64 -10h131q27 0 35 5q9 5 10 14q3 9 3 66v421q0 59 -14 78q-14 20 -61 24v18h252v-18q-38 -2 -54 -11q-18 -9 -23.5 -27t-5.5 -64v-421q0 -53 4 -65q5 -15 19 -26q15 -10 62 -12v-208h-17q-19 78 -52 121q-31 40 -73 55q-44 14 -123 14z" />
    <glyph glyph-name="afii10044" unicode="&#x42a;" horiz-adv-x="706" 
d="M339 542v-178h26q124 0 179 -16q58 -15 93.5 -59t35.5 -104q0 -74 -55 -129q-56 -56 -188 -56h-281v18q61 2 79 19q17 19 17 84v505h-42q-66 0 -93 -8q-55 -14 -64 -102h-20l8 146h401v-18q-62 -2 -79 -20q-17 -17 -17 -82zM339 324v-284q38 -7 67 -7q61 0 108 40
q49 40 49 111q0 70 -49.5 107t-130.5 37q-24 0 -44 -4z" />
    <glyph glyph-name="afii10045" unicode="&#x42b;" horiz-adv-x="872" 
d="M208 542v-178h26q123 0 178 -16q59 -15 94.5 -59t35.5 -104q0 -74 -55 -129q-56 -56 -189 -56h-280v18q62 2 79 19q17 19 17 84v421q0 65 -17 82q-17 18 -79 20v18h285v-18q-61 -1 -78 -20q-17 -17 -17 -82zM208 324v-284q39 -7 66 -7q60 0 109 40t49 111q0 70 -49.5 107
t-130.5 37q-24 0 -44 -4zM838 18h15v-18h-283v18h19q29 0 46 10q18 11 24 25q6 16 6 64v428q0 50 -7 65q-12 34 -73 34h-15v18h283v-18h-15q-30 0 -49 -9q-18 -8 -24.5 -25.5t-6.5 -64.5v-428q0 -59 15 -79q17 -20 65 -20z" />
    <glyph glyph-name="afii10046" unicode="&#x42c;" horiz-adv-x="574" 
d="M207 542v-178h26q124 0 179 -16q58 -15 93.5 -59t35.5 -104q0 -74 -55 -129q-54 -56 -188 -56h-280v18q60 1 78 19q17 19 17 84v421q0 65 -17 82q-17 19 -78 20v18h285v-18q-62 -2 -79 -20q-17 -17 -17 -82zM207 324v-284q41 -7 67 -7q61 0 108 40q49 40 49 111
q0 70 -49 107t-131 37q-24 0 -44 -4z" />
    <glyph glyph-name="afii10047" unicode="&#x42d;" horiz-adv-x="660" 
d="M56 455l11 222h17q20 -35 37 -35q8 0 28 7q77 28 142 28q178 0 283 -165q50 -79 50 -183q0 -144 -94 -244q-93 -100 -239 -100q-168 0 -262 153l13 10q92 -125 230 -125q137 0 204 136q35 70 35 163h-258v36h258q-10 148 -76 217q-65 68 -144 68q-70 0 -137 -52
q-66 -50 -80 -136h-18z" />
    <glyph glyph-name="afii10048" unicode="&#x42e;" horiz-adv-x="1028" 
d="M343 319h-136v-202q0 -60 15 -79.5t65 -19.5h15v-18h-283v18h20q28 0 45 10q19 11 23 25q6 17 6 64v428q0 49 -6 65q-12 34 -73 34h-15v18h283v-18h-15q-37 0 -51 -10q-14 -8 -22 -23q-7 -13 -7 -66v-191h136q8 145 104 233q97 90 227 90q125 0 221 -96t96 -246
q0 -143 -92 -247q-91 -103 -233 -103q-134 -2 -227 94.5t-96 239.5zM665 642q-97 0 -153.5 -79.5t-56.5 -226.5q0 -139 53 -228q54 -88 157 -88q101 0 157.5 78.5t56.5 223.5q0 151 -55 235.5t-159 84.5z" />
    <glyph glyph-name="afii10049" unicode="&#x42f;" horiz-adv-x="667" 
d="M-9 0v18q53 6 88 27q35 23 81 88l136 190q-81 18 -122 62t-41 107q0 55 34 97t86 58q49 15 156 15h241v-18h-25q-37 0 -57 -21q-13 -14 -13 -78v-428q0 -57 10 -71q18 -28 60 -28h25v-18h-284v18h26q37 0 56 22q13 14 13 77v193q-9 -1 -28 -1q-24 0 -41 1l-224 -310h-177
zM461 341v275q-48 9 -76 9q-64 0 -103 -38.5t-39 -100.5q0 -66 49.5 -106t141.5 -40q2 0 11 0.5t16 0.5z" />
    <glyph glyph-name="afii10065" unicode="&#x430;" horiz-adv-x="444" 
d="M285 60q-71 -54 -87 -62q-26 -12 -56 -12q-46 0 -76 32t-30 83q0 32 14 57q20 34 69 62q48 29 166 72v17q0 64 -20.5 90.5t-62.5 26.5q-30 0 -49 -17q-19 -16 -19 -38l1 -28q0 -21 -11.5 -34t-29.5 -13t-29.5 13t-11.5 35q0 42 43 76q44 36 120 36q60 0 98 -20
q28 -15 42 -48q9 -21 9 -86v-151q0 -59 2 -79q5 -24 22 -24q8 0 13 4q12 7 40 35v-27q-55 -73 -105 -73q-52 0 -52 73zM285 92v170q-73 -28 -96 -42q-71 -39 -71 -96q0 -34 20.5 -57.5t48.5 -23.5q37 0 98 49z" />
    <glyph glyph-name="afii10066" unicode="&#x431;" horiz-adv-x="509" 
d="M73 320q56 141 190 141q94 0 152 -70q60 -70 60 -160q0 -93 -61 -169q-60 -75 -162 -75q-104 0 -160 86q-54 87 -54 211q0 98 28 181q29 85 60 125q31 41 72 61q38 18 145 20q78 2 90 4q16 3 30 20h19q-16 -48 -39 -69q-22 -19 -49 -27q-25 -7 -94 -9q-72 -1 -102 -11
q-27 -9 -58 -44q-60 -71 -67 -215zM246 427q-51 0 -81 -42t-30 -125q0 -118 42 -179q42 -60 97 -60q109 0 109 177q0 99 -38 164t-99 65z" />
    <glyph glyph-name="afii10067" unicode="&#x432;" horiz-adv-x="472" 
d="M315 237q122 -26 122 -115q0 -60 -50.5 -91t-142.5 -31h-221v18q45 0 55 16q12 16 12 71v238q0 51 -5 61q-13 25 -62 25v19h206q174 6 181 -113q0 -75 -95 -98zM171 416v-168l26 -1q63 0 94.5 24.5t31.5 63.5q0 43 -30 62t-97 19h-25zM171 215v-175q26 -8 58 -8
q56 0 85.5 25t29.5 66q0 45 -36 69t-102 24q-23 0 -35 -1z" />
    <glyph glyph-name="afii10068" unicode="&#x433;" horiz-adv-x="410" 
d="M15 448h371l18 -123h-22q-18 61 -37 76t-79 15h-95v-311q0 -50 5 -62q15 -25 63 -25v-18h-224v18q47 1 61 15t14 72v238q0 45 -5 60t-19 20t-51 6v19z" />
    <glyph glyph-name="afii10069" unicode="&#x434;" horiz-adv-x="509" 
d="M92 429v19h395v-19q-34 0 -44 -7q-11 -6 -18 -16q-6 -10 -6 -63v-222q0 -69 12 -85t56 -18v-142h-19q-7 67 -42 97t-121 27h-115q-54 0 -84 -9q-31 -10 -51 -40.5t-24 -74.5h-18v142q40 1 72 32q33 30 58 118q25 87 25 175q0 85 -76 86zM338 416h-138v-27
q0 -240 -87 -357h166q45 0 52 7t7 56v321z" />
    <glyph glyph-name="afii10070" unicode="&#x435;" horiz-adv-x="444" 
d="M416 279h-310q0 -101 49 -156q50 -57 115 -57q91 0 130 107l16 -10q-10 -66 -60 -122q-50 -54 -124 -54q-79 0 -138 62q-57 63 -57 169q0 114 59 179q58 64 148 64q75 0 123 -50q49 -49 49 -132zM106 307h207q-1 40 -10 61q-12 27 -36 43t-51 16q-41 0 -72.5 -32.5
t-37.5 -87.5z" />
    <glyph glyph-name="afii10072" unicode="&#x436;" horiz-adv-x="691" 
d="M456 0h-221v18q46 4 58 24t12 81v102q-32 0 -43 -8q-9 -7 -35 -55l-84 -162h-132v18q35 3 52 19q18 17 47 77q47 92 67 111q21 19 45 21q-31 14 -56 80q-13 33 -20 42.5t-20 9.5q-10 0 -25 -6q-24 -8 -34 -8q-20 0 -31 12.5t-11 31.5q0 21 16.5 33t40.5 12q40 0 64 -23.5
t46 -85.5q20 -55 45.5 -74t67.5 -19v73q0 63 -13 82q-13 18 -57 23v19h221v-19q-44 -5 -57 -24q-13 -17 -13 -81v-73q42 0 67.5 19t45.5 74q25 75 54 92t55 17q28 0 43.5 -12.5t15.5 -32.5q0 -18 -12 -31t-30 -13q-11 0 -35 8q-15 6 -23 6q-14 0 -21.5 -9.5t-20.5 -42.5
q-25 -66 -56 -80q25 -2 47 -23q20 -18 64 -107q33 -64 48 -79q17 -16 52 -19v-18h-132l-84 162q-25 47 -36 55t-42 8v-102q0 -69 14 -85q16 -14 56 -20v-18z" />
    <glyph glyph-name="afii10073" unicode="&#x437;" horiz-adv-x="395" 
d="M59 307h-18v141h21q8 -8 19 -8q6 0 36 8q45 13 76 13q65 0 108 -30.5t43 -78.5q0 -76 -115 -110q134 -29 134 -126q0 -54 -45 -91.5t-123 -37.5q-53 0 -93.5 19t-89.5 65l12 13q80 -62 152 -62q42 0 68 27.5t26 72.5q0 97 -125 103v28q60 0 85 31q27 32 27 68
q0 33 -23.5 56.5t-59.5 23.5q-86 0 -115 -125z" />
    <glyph glyph-name="afii10074" unicode="&#x438;" horiz-adv-x="535" 
d="M171 343v-205l193 224q-1 37 -14 51.5t-45 15.5v19h208v-19q-34 0 -44 -7q-11 -6 -18 -16q-6 -10 -6 -63v-238q0 -50 5 -62q15 -25 63 -25v-18h-217v18q40 0 54 15q14 16 14 72v211l-193 -224q1 -43 12 -58t46 -16v-18h-207v18q44 0 56 16t12 71v238q0 51 -5 61
q-13 25 -63 25v19h217v-19q-34 0 -44 -7q-11 -6 -18 -16q-6 -10 -6 -63z" />
    <glyph glyph-name="afii10075" unicode="&#x439;" horiz-adv-x="535" 
d="M107 627q0 17 9.5 27.5t24.5 10.5q32 0 57 -61q22 -51 69 -51q30 0 46 13t29 48q21 50 51 50q14 0 24.5 -10.5t10.5 -25.5q0 -38 -50 -70t-110 -32q-78 0 -119.5 28t-41.5 73zM171 343v-205l193 224q-1 37 -14 51.5t-45 15.5v19h208v-19q-34 0 -44 -7q-11 -6 -18 -16
q-6 -10 -6 -63v-238q0 -50 5 -62q15 -25 63 -25v-18h-217v18q40 0 54 15q14 16 14 72v211l-193 -224q1 -43 12 -58t46 -16v-18h-207v18q44 0 56 16t12 71v238q0 51 -5 61q-13 25 -63 25v19h217v-19q-34 0 -44 -7q-11 -6 -18 -16q-6 -10 -6 -63z" />
    <glyph glyph-name="afii10076" unicode="&#x43a;" horiz-adv-x="486" 
d="M480 18v-18h-132q-62 90 -111 183q-14 25 -23 34t-25 9l-18 -1v-120q0 -47 5 -62q12 -25 70 -25v-18h-224v18q44 0 56 16t12 71v238q0 51 -5 61q-13 25 -63 25v19h224v-19q-40 0 -50 -6q-10 -7 -17 -15q-8 -8 -8 -65v-88q7 -1 15 -1q34 0 58.5 18.5t44.5 69.5
q20 53 31 70q29 41 81 41q27 0 42.5 -12.5t15.5 -33.5q0 -18 -11 -29.5t-31 -11.5q-11 0 -27 6q-20 7 -32 7q-22 0 -37 -38q-16 -44 -24 -58q-7 -12 -30 -34q14 -4 33 -23t66 -103q40 -70 58 -86q19 -18 56 -19z" />
    <glyph glyph-name="afii10077" unicode="&#x43b;" horiz-adv-x="499" 
d="M77 429v19h400v-19q-34 0 -44 -7q-11 -6 -18 -16q-6 -10 -6 -63v-238q0 -50 5 -62q15 -25 63 -25v-18h-231v18q39 0 51 4q17 4 24.5 21t7.5 62v311h-149v-189q0 -109 -10 -150q-9 -41 -36.5 -63t-65.5 -22q-62 0 -62 52q0 18 10 29t26 11t32 -14q20 -18 29 -18
q22 0 32 37.5t10 128.5v98q0 76 -11 93t-57 20z" />
    <glyph glyph-name="afii10078" unicode="&#x43c;" horiz-adv-x="633" 
d="M180 448l140 -331l140 331h151v-19q-34 0 -44 -7q-11 -6 -18 -16q-6 -10 -6 -63v-238q0 -48 4 -60q11 -27 64 -27v-18h-216v18q39 0 53 15q14 16 14 72v269l-158 -374h-17l-162 374v-269q0 -45 5 -60q11 -27 63 -27v-18h-171v18q44 0 56 16t12 71v238q0 51 -5 61
q-13 25 -63 25v19h158z" />
    <glyph glyph-name="afii10079" unicode="&#x43d;" horiz-adv-x="535" 
d="M171 343v-95h193v95q0 43 -4 55q-7 31 -64 31v19h217v-19q-32 0 -45 -7q-14 -8 -18 -20q-5 -15 -5 -59v-238q0 -43 3 -56q8 -31 65 -31v-18h-217v18q40 0 54 15q14 16 14 72v111h-193v-111q0 -43 3 -56q8 -31 65 -31v-18h-217v18q44 0 56 16t12 71v238q0 43 -4 55
q-7 31 -64 31v19h217v-19q-32 0 -45 -7q-14 -8 -18 -20q-5 -15 -5 -59z" />
    <glyph glyph-name="afii10080" unicode="&#x43e;" 
d="M250 461q101 0 163 -77q52 -65 52 -152q0 -59 -29 -122q-27 -60 -77.5 -91.5t-113.5 -31.5q-101 0 -161 80q-50 68 -50 152q0 61 30 123q30 59 79 89t107 30zM235 429q-46 0 -78 -41t-32 -128q0 -97 38 -168q39 -71 103 -71q109 0 109 174q0 120 -52 187q-35 47 -88 47z
" />
    <glyph glyph-name="afii10081" unicode="&#x43f;" horiz-adv-x="535" 
d="M364 105v311h-193v-311q0 -50 5 -62q15 -25 63 -25v-18h-217v18q44 0 56 16t12 71v238q0 51 -5 61q-13 25 -63 25v19h491v-19q-34 0 -44 -7q-11 -6 -18 -16q-6 -10 -6 -63v-238q0 -50 5 -62q15 -25 63 -25v-18h-217v18q40 0 54 15q14 16 14 72z" />
    <glyph glyph-name="afii10082" unicode="&#x440;" 
d="M5 387l-6 16l138 56h18v-105q64 107 143 107q68 0 113 -53q55 -64 55 -168q0 -117 -67 -191q-54 -62 -137 -62q-37 0 -63 10q-20 8 -44 29v-136q0 -46 6 -58q13 -28 70 -28v-18h-234v18h12q26 0 46 11q9 5 14 17q5 13 5 61v423q0 44 -4 55q-7 23 -35 23q-13 0 -30 -7z
M155 325v-167q0 -53 5 -71q7 -29 34.5 -50t65.5 -21q49 0 79 38q40 49 40 140q0 102 -45 158q-32 38 -74 38q-24 0 -47 -12q-18 -10 -58 -53z" />
    <glyph glyph-name="afii10083" unicode="&#x441;" horiz-adv-x="444" 
d="M397 177l14 -7q-18 -85 -69.5 -134t-117.5 -49q-77 0 -134 63q-56 65 -56 173q0 106 63 172t151 66q64 0 107 -35q43 -34 43 -73q0 -18 -12 -29.5t-33 -11.5q-29 0 -43 18q-9 10 -12 39q-1 28 -19 44q-17 15 -48 15q-48 0 -78 -36q-40 -47 -40 -127q0 -79 39 -141
q40 -61 107 -61q48 0 86 32q26 21 52 82z" />
    <glyph glyph-name="afii10084" unicode="&#x442;" horiz-adv-x="437" 
d="M6 326l18 122h387l20 -122h-22q-6 37 -20 57t-31.5 26.5t-59.5 6.5h-39v-311q0 -49 6 -63t19 -18q14 -4 63 -6v-18h-243v18q46 2 60 15q14 16 14 72v311h-40q-40 0 -58 -5q-35 -12 -52 -85h-22z" />
    <glyph glyph-name="afii10085" unicode="&#x443;" 
d="M6 429v19h208v-19h-10q-44 0 -44 -33q0 -20 16 -52l109 -226l100 247q9 19 9 40q0 9 -4 13q-8 11 -41 11v19h145v-19q-18 -2 -27.5 -7.5t-21.5 -21.5q-7 -12 -17 -38l-182 -446q-25 -62 -67.5 -97t-83.5 -35q-28 0 -47 16.5t-19 38.5q0 21 13.5 33.5t36.5 12.5
q14 0 44 -11q21 -8 24 -8q37 0 67 74l32 78l-161 337q-10 21 -23 38q-12 17 -20 23q-12 9 -36 13z" />
    <glyph glyph-name="afii10086" unicode="&#x444;" horiz-adv-x="648" 
d="M216 623l-8 16l132 56h22v-275q44 41 90 41q63 0 108 -70q45 -69 45 -168q0 -96 -46 -166q-45 -70 -111 -70q-49 0 -86 43v-139q0 -46 5 -61q6 -15 21.5 -20.5t60.5 -5.5v-18h-241v18q49 0 63 14q15 14 15 73v139q-36 -43 -86 -43q-68 0 -113 70q-45 71 -45 171
q0 92 43 162q44 71 113 71q50 0 88 -47v121q0 61 -8 79t-27 18q-15 0 -35 -9zM286 64v306q-27 58 -70 58q-88 0 -88 -216q0 -192 88 -192q38 0 70 44zM362 388v-315q9 -25 30 -39t41 -14q39 0 62.5 49t23.5 146q0 213 -85 213q-36 0 -72 -40z" />
    <glyph glyph-name="afii10087" unicode="&#x445;" 
d="M13 429v19h211v-19q-37 0 -37 -24q0 -11 18 -37l16 -24l31 -51l37 51q35 49 35 61q0 24 -35 24v19h151v-19q-24 -2 -41 -13q-24 -16 -66 -72l-61 -82l112 -160q40 -58 58 -71q17 -11 46 -13v-18h-211v18q23 0 34 10q9 6 9 18t-31 56l-65 96l-72 -96q-33 -44 -33 -52
q0 -13 11.5 -22t32.5 -10v-18h-146v18q17 2 30 12q19 14 63 72l94 125l-85 123q-36 52 -56 66q-19 13 -50 13z" />
    <glyph glyph-name="afii10088" unicode="&#x446;" horiz-adv-x="535" 
d="M513 18v-142h-18q-1 56 -38 91q-36 33 -130 33h-305v18q44 0 56 16t12 71v238q0 51 -5 61q-13 25 -63 25v19h217v-19q-34 0 -44 -7q-11 -6 -18 -16q-6 -10 -6 -63v-253q0 -43 7 -50q8 -8 49 -8h79q46 0 52 8q6 9 6 54v249q0 44 -5 59q-10 27 -63 27v19h217v-19
q-34 0 -44 -7q-11 -6 -18 -16q-6 -10 -6 -63v-230q0 -62 11 -78t57 -17z" />
    <glyph glyph-name="afii10089" unicode="&#x447;" horiz-adv-x="503" 
d="M332 247v96q0 44 -5 59q-7 27 -62 27v19h216v-19q-34 0 -44 -7q-11 -6 -18 -16q-6 -10 -6 -63v-238q0 -48 4 -60q11 -27 64 -27v-18h-227v18q37 1 51 5q27 8 27 82v110q-71 -37 -151 -37q-43 0 -68 11q-23 11 -29.5 24.5t-6.5 47.5v82q0 44 -4 56q-8 30 -58 30v19h210
v-19q-34 0 -44 -7q-11 -6 -18 -16q-6 -10 -6 -63v-56q0 -31 5 -43q12 -26 69 -26q52 0 101 29z" />
    <glyph glyph-name="afii10090" unicode="&#x448;" horiz-adv-x="770" 
d="M748 18v-18h-726v18q40 0 54 15q14 16 14 72v238q0 51 -5 61q-13 25 -63 25v19h217v-19q-34 0 -44 -7q-11 -6 -18 -16q-6 -10 -6 -63v-247q0 -45 8 -55q7 -9 56 -9h53q31 0 40 3q10 4 13 13q4 8 4 58v237q0 51 -6 61q-13 25 -62 25v19h208v-19q-26 -1 -40 -9
q-11 -7 -16 -21q-4 -12 -4 -56v-253q0 -42 8 -50q10 -8 52 -8h58q47 0 51 10q5 12 5 61v240q0 52 -6 61q-13 25 -62 25v19h217v-19q-35 0 -45 -7q-12 -7 -17 -16q-6 -10 -6 -63v-211q0 -66 3 -82q4 -16 18 -23.5t47 -8.5z" />
    <glyph glyph-name="afii10091" unicode="&#x449;" horiz-adv-x="770" 
d="M568 0h-546v18q40 0 54 15q14 16 14 72v238q0 51 -5 61q-13 25 -63 25v19h217v-19q-34 0 -44 -7q-11 -6 -18 -16q-6 -10 -6 -63v-247q0 -45 8 -55q7 -9 56 -9h53q31 0 40 3q10 4 13 13q4 8 4 58v237q0 51 -6 61q-13 25 -62 25v19h208v-19q-26 -1 -40 -9q-11 -7 -16 -21
q-4 -12 -4 -56v-253q0 -42 8 -50q10 -8 52 -8h58q47 0 51 10q5 12 5 61v240q0 52 -6 61q-13 25 -62 25v19h217v-19q-35 0 -45 -7q-12 -7 -17 -16q-6 -10 -6 -63v-211q0 -66 3 -82q4 -16 18 -23.5t47 -8.5v-142h-19q-3 64 -38.5 94t-122.5 30z" />
    <glyph glyph-name="afii10092" unicode="&#x44a;" horiz-adv-x="517" 
d="M6 326l19 122h291v-19q-48 0 -59 -6q-10 -4 -18 -14q-8 -8 -8 -66v-91h42q82 0 124 -13t66 -43t24 -70q0 -126 -199 -126h-205v18q39 0 53 15q14 16 14 72v311q-58 0 -84 -17q-24 -16 -38 -73h-22zM231 218v-180q27 -6 52 -6q54 0 82.5 26.5t28.5 65.5q0 42 -30 69
t-82 27z" />
    <glyph glyph-name="afii10093" unicode="&#x44b;" horiz-adv-x="672" 
d="M424 429v19h225v-19q-30 0 -43 -7q-15 -7 -19 -19q-5 -15 -5 -60v-238q0 -48 4 -60q11 -27 63 -27v-18h-225v18q37 1 49 5q14 4 21 21t7 61v238q0 47 -6 60q-5 15 -19 20t-52 6zM170 343v-95l56 1q199 0 199 -123q0 -58 -49.5 -92t-138.5 -34h-215v18q43 0 55 16
q13 16 13 71v238q0 52 -6 61q-13 25 -62 25v19h234v-19q-48 0 -60 -6q-11 -5 -19 -14q-7 -8 -7 -66zM170 217v-178q24 -7 52 -7q48 0 79 26t31 65q0 94 -130 94h-32z" />
    <glyph glyph-name="afii10094" unicode="&#x44c;" horiz-adv-x="456" 
d="M171 343v-95l56 1q199 0 199 -123q0 -58 -49 -92t-140 -34h-215v18q44 0 56 16t12 71v238q0 51 -5 61q-13 25 -63 25v19h234v-19q-48 0 -59 -6q-11 -5 -19 -14q-7 -8 -7 -66zM171 217v-178q24 -7 52 -7q48 0 79 26t31 65q0 94 -131 94h-31z" />
    <glyph glyph-name="afii10095" unicode="&#x44d;" horiz-adv-x="429" 
d="M44 308v140h18q10 -10 21 -10q8 0 35 9q48 14 76 14q77 0 139 -65t62 -166t-61 -172q-60 -71 -156 -71q-98 0 -165 99l17 9q56 -78 138 -78q61 0 98 44.5t37 136.5v24h-148v32h145q-9 81 -42.5 128t-82.5 47q-45 0 -76 -34t-37 -87h-18z" />
    <glyph glyph-name="afii10096" unicode="&#x44e;" horiz-adv-x="747" 
d="M281 217h-111v-112q0 -49 5 -61q14 -26 63 -26v-18h-216v18q31 1 44 5q24 9 24 82v238q0 57 -12 71q-12 13 -56 15v19h216v-19q-32 0 -45 -8q-12 -7 -18 -18q-5 -12 -5 -60v-95h113q12 95 71 154q61 59 144 59q95 0 155 -69q60 -68 60 -160q0 -60 -30 -123
q-28 -60 -78.5 -91t-112.5 -31q-93 0 -151 67q-57 67 -60 163zM482 429q-50 0 -80 -43t-30 -126q0 -98 39 -169q39 -70 102 -70q109 0 109 174q0 101 -39 167q-37 67 -101 67z" />
    <glyph glyph-name="afii10097" unicode="&#x44f;" horiz-adv-x="460" 
d="M239 448h198v-19q-30 0 -45 -9q-15 -8 -18.5 -21t-3.5 -56v-238q0 -43 3 -56q9 -31 64 -31v-18h-216v18q41 0 54 15q14 16 14 72v97h-20h-16l-142 -202h-111v18q24 0 33 6q12 8 36 44l104 148q-112 39 -112 119q0 46 40 79q40 34 138 34zM289 235v175q-19 6 -36 6
q-47 0 -72.5 -23.5t-25.5 -59.5q0 -43 34.5 -71t87.5 -28q7 0 12 1z" />
    <glyph glyph-name="afii10071" unicode="&#x451;" horiz-adv-x="444" 
d="M416 279h-310q0 -101 49 -156q50 -57 115 -57q91 0 130 107l16 -10q-10 -66 -60 -122q-50 -54 -124 -54q-79 0 -138 62q-57 63 -57 169q0 114 59 179q58 64 148 64q75 0 123 -50q49 -49 49 -132zM106 307h207q-1 40 -10 61q-12 27 -36 43t-51 16q-41 0 -72.5 -32.5
t-37.5 -87.5zM328 653q22 0 37 -16t15 -38t-15 -37t-37 -15t-38 15t-16 37t16 38t38 16zM155 653q23 0 38 -16t15 -38t-15.5 -37t-36.5 -15q-22 0 -37.5 15t-15.5 37t15 38t37 16z" />
    <glyph glyph-name="uni10A0" unicode="&#x10a0;" horiz-adv-x="659" 
d="M445 519v95q0 36 -11.5 49t-44.5 13h-64q-41 0 -72 -25t-31 -47h-100v72h-53v42l127 1l27 -43h13q34 43 87 43l116 -1q33 0 55 -13.5t32.5 -37.5t14.5 -49t4 -57h54v-42h-154zM392 0v42h53v73q0 52 -33 52h-343v44h53v289h-53v31h206v-31h-53v-289h192q63 0 97 -30.5
t34 -77.5v-61h54v-42h-207z" />
    <glyph glyph-name="uni10A1" unicode="&#x10a1;" horiz-adv-x="767" 
d="M532 0v42h47v68q0 29 -7.5 43t-26.5 14h-153v44h53v144h-174q-80 0 -114.5 29t-34.5 99v193h-53v43h206v-43h-53v-200q0 -42 13 -59t41 -17h169v276h-53v43h207v-43h-54v-465h56q74 0 74 -101v-68h32v-42h-175z" />
    <glyph glyph-name="uni10A2" unicode="&#x10a2;" horiz-adv-x="748" 
d="M528 -49v42q17 0 28 2.5t24 10.5t19.5 27.5t6.5 50.5q0 47 -26.5 65t-82.5 18h-105v44h53v465h-223v-241h53v-46h-206v46h53v241h-53v43h530v-43h-54v-465h20q34 0 57 -11.5t36 -29t19.5 -53.5t8.5 -71t2 -95h-160z" />
    <glyph glyph-name="uni10A3" unicode="&#x10a3;" horiz-adv-x="774" 
d="M596 257v28q0 101 -39.5 153t-130.5 52h-69q-86 0 -132.5 -51t-46.5 -150v-32q0 -114 40.5 -164.5t139.5 -50.5h68q170 0 170 215zM697 307v-50q0 -116 -64.5 -186t-167.5 -70h-154q-103 0 -168 70.5t-65 185.5v50q0 86 71 143.5t162 72.5h29v153h-152v-67l-62 -65h-48
v42l33 1v132h552v-133h34v-42h-39l-74 65v67h-149v-153h30q83 -13 157.5 -76.5t74.5 -139.5z" />
    <glyph glyph-name="uni10A4" unicode="&#x10a4;" horiz-adv-x="667" 
d="M392 0v42h53v634h-223v-243h53v-43h-206v43h53v243h-53v43h530v-43h-54v-634h54v-42h-207z" />
    <glyph glyph-name="uni10A5" unicode="&#x10a5;" horiz-adv-x="878" 
d="M714 166v157q0 67 -49 67h-120v-348h54v-42h-206v42h52v634h-222l-1 -243h52v-43h-205v43h53v243h-53v43h530v-43h-54v-243h151q45 0 78.5 -33t33.5 -79v-110h36v-45h-130z" />
    <glyph glyph-name="uni10A6" unicode="&#x10a6;" horiz-adv-x="822" 
d="M641 139v179q0 30 -16 51t-43 21h-180v-263q0 -46 18 -65.5t63 -19.5h99q31 0 45 21t14 76zM740 318v-183q0 -135 -140 -135h-177q-53 0 -88 32.5t-35 77.5v418h-137q-34 0 -55.5 33.5t-21.5 70.5v44h-52v43h207l-1 -43h-52v-40q0 -65 41 -65h224v-43h-52l1 -95h207
q51 0 91 -30.5t40 -84.5z" />
    <glyph glyph-name="uni10A7" unicode="&#x10a7;" horiz-adv-x="979" 
d="M496 676h-65q-108 0 -176 -81t-68 -198v-77q0 -104 69.5 -190t172.5 -89h67l19 1v634h-19zM790 167v170q0 64 -10.5 89t-46.5 25h-119v-409l53 -1v-41h-240q-155 0 -252 92t-97 222v90q0 128 103 221.5t250 93.5h236v-42l-53 -1v-184h125q64 0 108 -43t44 -112v-126h54
v-44h-155z" />
    <glyph glyph-name="uni10A8" unicode="&#x10a8;" horiz-adv-x="526" 
d="M257 0v42h51v477h-139q-38 0 -60.5 26t-22.5 64v67h-52v43h205v-43h-52v-59q0 -28 12 -41.5t40 -13.5h219v-43h-50v-477h50v-42h-201z" />
    <glyph glyph-name="uni10A9" unicode="&#x10a9;" horiz-adv-x="682" 
d="M458 202v207q0 55 -31 84t-84 29h-121l1 -202q0 -63 19.5 -90.5t77.5 -27.5h138zM558 393l1 -351l54 1v-43h-208v42h53v116h-227q-37 0 -63 26.5t-36 60.5t-10 70v361h-53v43h206v-43h-52l-1 -110h215q59 0 90 -46.5t31 -126.5z" />
    <glyph glyph-name="uni10AA" unicode="&#x10aa;" horiz-adv-x="862" 
d="M679 144l1 162q0 32 -23 58t-57 26h-154v-261q0 -33 23 -59.5t60 -26.5l76 -2q32 0 53 31.5t21 71.5zM780 300v-144q0 -67 -39 -111.5t-100 -44.5h-150q-68 0 -107.5 38t-39.5 104v534h-131v-286h-153v43h52v243h-52v43h440v-43h-54v-243h194q56 0 98 -39.5t42 -93.5z
" />
    <glyph glyph-name="uni10AB" unicode="&#x10ab;" horiz-adv-x="844" 
d="M404 390h-111q-66 0 -88.5 -20.5t-22.5 -75.5v-155q0 -37 21.5 -67t61.5 -30h50q42 0 65.5 28.5t23.5 68.5v251zM651 43v263q0 54 -17 69t-71 15h-58v-251q0 -75 -33 -107t-110 -32h-111q-80 0 -124.5 35t-44.5 104v152q0 142 211 142h111v107l-140 1q-36 0 -58.5 23
t-22.5 65l-1 47h-51v43h205v-43h-53v-54q0 -38 32 -38h244v-43h-54v-108h137q60 0 84.5 -24.5t24.5 -93.5v-228h55v-44h-155z" />
    <glyph glyph-name="uni10AC" unicode="&#x10ac;" horiz-adv-x="676" 
d="M69 718l347 1q46 0 73 -22.5t27 -67.5v-18h38v-45h-132v66q0 44 -50 44h-150v-242h175q80 0 118.5 -37t38.5 -119v-236h53v-42h-206v42h53l-1 252q0 48 -20.5 71.5t-69.5 23.5h-141v-347h53v-42h-206v42h53v634h-53v42z" />
    <glyph glyph-name="uni10AD" unicode="&#x10ad;" horiz-adv-x="957" 
d="M618 334v52q0 133 -50.5 211.5t-147.5 78.5h-40q-85 0 -141.5 -86.5t-56.5 -203.5v-46q0 -63 20 -129t65 -117.5t105 -51.5h49q87 0 142 85.5t55 206.5zM919 208v-33l-44 -1v-86q0 -119 -159 -119q-36 0 -63 21t-57 74q-50 -38 -80.5 -51t-68.5 -13h-83q-112 0 -201.5 99
t-89.5 220v86q0 116 88 214.5t203 98.5h73q117 0 202.5 -98.5t85.5 -224.5v-68q0 -68 -32.5 -140.5t-78.5 -108.5q26 -38 47 -53t59 -15q28 0 50 24t22 54v120h127z" />
    <glyph glyph-name="uni10AE" unicode="&#x10ae;" horiz-adv-x="806" 
d="M737 584v-43h-54v-414q0 -64 -39 -95.5t-126 -31.5h-83q-91 0 -132.5 29.5t-41.5 93.5v418h-95q-41 0 -60.5 26.5t-19.5 71.5v37h-52v43h206v-43h-52l-1 -34q0 -33 20 -45.5t66 -12.5h140v-43h-52v-418q0 -46 15 -63.5t59 -17.5h83q40 0 53 18.5t13 66.5v414h-53v42z" />
    <glyph glyph-name="uni10AF" unicode="&#x10af;" horiz-adv-x="749" 
d="M473 0v42h52l1 250h-175q-47 0 -74 27t-27 80v115h-79q-44 0 -64.5 21.5t-20.5 75.5v65h-52v43h206v-43h-53v-60q0 -29 16.5 -44t44.5 -15h103v-141q0 -39 13 -59t46 -20h116v339h-53v43h207v-43h-53v-634h53v-42h-207z" />
    <glyph glyph-name="uni10B0" unicode="&#x10b0;" horiz-adv-x="927" 
d="M713 166v215q0 28 -15 49t-34 21h-120v-298q0 -74 -51 -113.5t-118 -39.5h-91q-71 0 -116 46t-45 115l-1 246h-53v44h206v-44h-52v-246q0 -52 17 -85.5t53 -33.5h78q36 0 55 29t19 82v523h-54v43h208v-43h-55v-182h151q59 0 88.5 -31t29.5 -104v-148h54v-45h-154z" />
    <glyph glyph-name="uni10B1" unicode="&#x10b1;" horiz-adv-x="668" 
d="M599 450v-43h-55v-270q0 -67 -45 -102t-121 -35h-94q-67 0 -115 38t-48 101l1 537h-53v43h206v-43h-53v-537q0 -52 15 -74.5t52 -22.5h89q38 0 52 16.5t14 56.5l1 292h-54v43h208z" />
    <glyph glyph-name="uni10B2" unicode="&#x10b2;" horiz-adv-x="613" 
d="M444 498v103q0 75 -81 75h-141v-243h137q46 0 65.5 13t19.5 52zM335 0v42h52v82q0 34 -16 60t-56 26h-246v44h53v422h-53v43h292q99 0 141 -22.5t42 -71.5v-122q0 -57 -41.5 -85t-141.5 -28h-139v-136h138q41 0 68 -11.5t39.5 -33t16.5 -42t4 -48.5l1 -77h54v-42h-208z
" />
    <glyph glyph-name="uni10B3" unicode="&#x10b3;" horiz-adv-x="907" 
d="M612 344v41q0 117 -52 204t-140 87h-39q-92 0 -144 -86t-52 -205v-41q0 -119 54 -210.5t142 -91.5h39q60 0 104.5 43t66 110.5t21.5 148.5zM703 -31v41q30 0 46.5 17.5t16.5 47.5q0 25 -21.5 46t-67.5 30q-38 -72 -102 -111.5t-144 -39.5h-57q-79 0 -149.5 49t-111 125
t-40.5 156v77q0 125 86 218.5t211 93.5h61q120 0 206.5 -94.5t86.5 -217.5v-77q0 -40 -9 -88t-21 -59q148 -43 148 -134v-38l26 -1v-41h-165z" />
    <glyph glyph-name="uni10B4" unicode="&#x10b4;" horiz-adv-x="840" 
d="M370 676h-92q-60 0 -84 -48.5t-24 -166.5q0 -114 23.5 -159t84.5 -45h92v419zM671 461q0 120 -25.5 167.5t-86.5 47.5h-87l-1 -419h88q61 0 86.5 45.5t25.5 158.5zM771 455v-1q0 -120 -55 -182t-157 -62h-87v-168h53v-42h-206v42h51l1 168h-93q-209 0 -209 244
q0 265 209 265h281q103 0 157.5 -67.5t54.5 -196.5z" />
    <glyph glyph-name="uni10B5" unicode="&#x10b5;" horiz-adv-x="910" 
d="M653 188v44l51 1v85q0 44 -20 68.5t-57 24.5l-122 1v-370h54v-42h-207v42h53v255h-181q-52 0 -86 29.5t-34 80.5l-1 112h-52v43h205v-43h-51v-92q0 -36 20.5 -61t63.5 -25h116v335h-53v43h207v-43h-54v-221h185q46 0 80.5 -33t34.5 -77v-112l54 -1v-44h-206z" />
    <glyph glyph-name="uni10B6" unicode="&#x10b6;" horiz-adv-x="666" 
d="M390 0v42h52v489q0 84 -13.5 114.5t-37.5 30.5h-117q-26 0 -39.5 -29t-13.5 -116v-489h52v-42h-204v42h52v464q0 108 35 160.5t117 52.5h117q153 0 153 -213l1 -464h53v-42h-207z" />
    <glyph glyph-name="uni10B7" unicode="&#x10b7;" horiz-adv-x="667" 
d="M391 0v42h53l1 251h-168q-84 0 -120 33.5t-36 117.5l1 232h-53v43h206v-43h-53v-225q0 -63 16 -88.5t56 -25.5h151v339h-53v43h207v-43h-54v-634h54v-42h-208z" />
    <glyph glyph-name="uni10B8" unicode="&#x10b8;" horiz-adv-x="667" 
d="M598 719v-43h-54v-552q0 -46 -50.5 -85t-108.5 -39h-101q-59 0 -111 36.5t-52 86.5v54q0 29 31.5 61t68.5 50v-164q0 -82 76 -82h77q69 0 69 84l1 229h-172q-83 0 -117 31.5t-34 113.5v176h-52v43h205v-43h-53v-191q0 -27 2 -42t14.5 -30t37.5 -15l169 1v277h-54v43h208z
" />
    <glyph glyph-name="uni10B9" unicode="&#x10b9;" horiz-adv-x="668" 
d="M390 0v42h54v251q0 97 -85 97h-138l1 -348h52v-42h-205v42h52v634h-52v43h206v-43h-53l-1 -243h177q61 0 103.5 -48t42.5 -113v-230h55v-42h-209z" />
    <glyph glyph-name="uni10BA" unicode="&#x10ba;" horiz-adv-x="792" 
d="M640 -21l-52 124h-13q-17 -32 -72.5 -67.5t-109.5 -35.5h-26q-125 0 -211.5 87.5t-86.5 216.5v96q0 136 82.5 227t221.5 91h37q73 0 155.5 -63t85.5 -137v-36h53v-42h-166v42h16v44q0 43 -46 96.5t-98 53.5h-37q-61 0 -107 -44.5t-67.5 -109t-21.5 -135.5v-65
q0 -63 21 -125t66.5 -108.5t105.5 -46.5h39q50 0 115 49.5t65 78.5v84h-49v43h200v-43l-53 1v-235h53v-41h-100z" />
    <glyph glyph-name="uni10BB" unicode="&#x10bb;" horiz-adv-x="840" 
d="M392 390h-104q-65 0 -91.5 -15t-26.5 -58v-177q0 -54 22.5 -76t72.5 -22h44q42 0 62 21t20 76zM634 41v295q0 28 -16.5 41t-40.5 13h-84v-251q0 -75 -43 -107t-129 -32h-73q-80 0 -129.5 36.5t-49.5 102.5v165q0 129 203 129h120v243h-53v43h208v-43h-54v-243h132
q43 0 76.5 -27.5t33.5 -77.5v-243h54v-44h-155z" />
    <glyph glyph-name="uni10BC" unicode="&#x10bc;" horiz-adv-x="651" 
d="M482 501v123q0 52 -63 52h-198v-233h197q38 0 51 14t13 44zM404 105v99q0 23 -15.5 41t-45.5 18h-122v-221h53v-41h-205v41h51v634h-51v43h366q52 0 100 -32t48 -63v-124q0 -46 -42.5 -72.5t-105.5 -26.5h-214v-94h159q67 0 95.5 -27t28.5 -76l1 -57h51v-42h-152z" />
    <glyph glyph-name="uni10BD" unicode="&#x10bd;" horiz-adv-x="686" 
d="M617 240v-66q0 -81 -78 -127t-174 -46h-52q-96 0 -170 40.5t-74 102.5v41q0 54 41 89.5t92 35.5v-42q-37 -27 -37 -96v-18q0 -113 157 -113h32q59 0 113 44t54 92v63q0 61 -49.5 105.5t-117.5 44.5h-233l1 286h-53v43h509v-43h-55l1 -114h56v-43h-156l-1 157h-201v-243
h101q126 0 210 -51t84 -142z" />
    <glyph glyph-name="uni10BE" unicode="&#x10be;" horiz-adv-x="668" 
d="M391 0v42h53v61q0 35 -21.5 49t-67.5 14h-286v44h53v466h-53v43h205v-43h-51l-1 -243h223v243h-52v43h206v-43h-54v-243h54v-43h-377v-180h203q120 0 120 -96v-72l54 -1v-41h-208z" />
    <glyph glyph-name="uni10BF" unicode="&#x10bf;" horiz-adv-x="858" 
d="M698 417v31q0 93 -103 93h-80v-205h80q58 0 80.5 17.5t22.5 63.5zM798 454v-37q0 -125 -185 -125h-98v-250h53v-42h-207v42h53l1 250h-99q-56 0 -75 -30.5t-19 -108.5v-111h52v-42h-205v42h53v145q0 149 173 149l120 1v204h-151q-77 0 -109.5 16t-32.5 57v62h-53v43h207
v-43h-54v-59q0 -19 19.5 -26t80.5 -7h291q86 0 135.5 -32t49.5 -98z" />
    <glyph glyph-name="uni10C0" unicode="&#x10c0;" horiz-adv-x="894" 
d="M825 433v-43h-53v-271q0 -61 -43 -90t-117 -29h-81q-182 0 -182 119v557h-135v-286h-154v43h53v243h-53v43h442v-43h-53v-528q0 -56 22.5 -81t68.5 -25h55q34 0 55 25.5t21 68.5v254h-53v43h207z" />
    <glyph glyph-name="uni10C1" unicode="&#x10c1;" horiz-adv-x="641" 
d="M392 292v43l53 2v96q0 60 -16.5 84t-55.5 24h-151v-499h54v-42h-207v42h53v634h-53v43h207v-43h-54v-92h149q97 0 135.5 -46.5t38.5 -133.5v-67h54v-45h-207z" />
    <glyph glyph-name="uni10C2" unicode="&#x10c2;" horiz-adv-x="778" 
d="M696 284v-90q0 -79 -76 -136t-174 -57h-72q-96 0 -175.5 56.5t-79.5 126.5v139h-50v41h177v-41l-32 -1v-104q0 -63 54.5 -119.5t116.5 -56.5h46q86 0 127.5 46t41.5 141v45q0 66 -44.5 102.5t-140.5 70.5q-93 31 -128 58t-35 86v10q0 48 46 83t107 35h157v-102h-96v59
h-117v-104q0 -28 26 -53.5t77 -40.5q16 -5 54.5 -16.5t57.5 -18t49 -22t45 -32t26.5 -44t11.5 -61.5z" />
    <glyph glyph-name="uni10C3" unicode="&#x10c3;" horiz-adv-x="668" 
d="M392 0v42h53v251h-142q-99 0 -140 26.5t-41 99.5v122h-53v43h205v-43h-51v-109q0 -95 80 -95h142v339h-53v43h208v-43h-55v-634h55v-42h-208z" />
    <glyph glyph-name="uni10C4" unicode="&#x10c4;" horiz-adv-x="755" 
d="M429 390v-347h52v-43h-205v43l52 -1v348h-259v43h52v243h-52v43h206v-43h-53v-243h310v243h-53v43h208v-43h-54v-243h53v-43h-257z" />
    <glyph glyph-name="uni10C5" unicode="&#x10c5;" horiz-adv-x="852" 
d="M684 566v39q0 71 -96 71h-104v-178h116q39 0 61.5 19t22.5 49zM382 292h-114q-35 0 -60 -24t-25 -62v-64q0 -42 21 -71t62 -29h35q39 0 60 28t21 77v145zM627 292h-144l1 -145q0 -64 -51 -105.5t-132 -41.5h-35q-95 0 -139.5 35.5t-44.5 109.5v49q0 71 48 107t155 36h97
v339h-51v43h229q223 0 223 -115v-47q0 -104 -189 -102h-110l-1 -118h300v-45l-54 1v-136h54v-43h-156v178z" />
    <glyph glyph-name="uni10D0" unicode="&#x10d0;" horiz-adv-x="581" 
d="M516 249v-76q0 -91 -60.5 -144.5t-164.5 -54.5q-105 1 -165.5 52t-60.5 149v35q0 51 58 121l58 -30q-16 -33 -16 -91v-37q0 -56 32 -112t94 -56q64 0 95 45t31 123v76q0 144 -103 241q-111 106 -111 194v38h94v-38q0 -109 105 -208q114 -106 114 -227z" />
    <glyph glyph-name="uni10D1" unicode="&#x10d1;" horiz-adv-x="581" 
d="M165 248v-70q0 -99 38 -137q39 -36 88 -36q61 0 93.5 38.5t32.5 129.5v74q0 106 -38 141t-88 35q-47 0 -87 -35q-39 -34 -39 -140zM162 722h109q-1 -56 65 -94q67 -37 -7 -178q57 0 122 -59t65 -141v-85q0 -77 -67 -134q-68 -56 -158 -56q-97 0 -162 57q-64 57 -64 135
v83q0 82 71 141t141 59q46 136 -35 177q-80 41 -80 95z" />
    <glyph glyph-name="uni10D2" unicode="&#x10d2;" horiz-adv-x="649" 
d="M484 188v69q0 63 -43 119q-42 58 -93 58h-35q-73 0 -111 -59q-37 -58 -36 -133v-53q-1 -66 40 -126q42 -58 119 -58q85 -1 122 58t37 125zM584 246v-65q0 -91 -78 -150q-76 -57 -183 -57q-107 2 -183 67q-75 66 -75 140v64q0 81 73 151q74 70 204 69q38 44 38 122
q0 104 -84 104q-41 0 -64.5 -23.5t-23.5 -57.5v-46h-92v46q0 50 51 81q50 31 130 31q79 0 127 -32.5t48 -94.5q0 -53 -90 -129q57 -4 129 -66q73 -61 73 -154z" />
    <glyph glyph-name="uni10D3" unicode="&#x10d3;" horiz-adv-x="849" 
d="M685 416v81q0 113 -29 154q-28 40 -81 40t-82 -41q-28 -40 -28 -152v-79q0 -78 19 -138q20 -62 91 -62t91 62q20 64 19 135zM594 77v-92h-169q-149 0 -255 124q-105 125 -105 351v8q0 121 54 186t155 65q90 0 133 -79q51 79 168 79q91 0 149 -49q60 -50 60 -173v-83
q0 -116 -61 -171q-61 -54 -148 -54q-96 0 -153.5 59t-57.5 170v76q0 50 24 109q-49 88 -116 88q-47 0 -77 -49q-29 -48 -30 -174v-23q0 -194 67.5 -298t192.5 -104q82 6 169 34z" />
    <glyph glyph-name="uni10D4" unicode="&#x10d4;" horiz-adv-x="585" 
d="M511 572v-440q0 -74 -64 -116q-63 -40 -161 -42q-103 2 -164 51q-62 51 -62 117q0 122 114 184l32 -31q-46 -33 -46 -154q0 -136 126 -136q60 0 93 32.5t33 96.5v438q0 56 -30.5 87.5t-77.5 31.5q-53 0 -83.5 -31t-30.5 -85q0 -49 9 -72l-57 -43q-47 61 -47 113
q0 75 64 112t139 37q99 0 156 -42.5t57 -107.5z" />
    <glyph glyph-name="uni10D5" unicode="&#x10d5;" horiz-adv-x="576" 
d="M511 224v-88q0 -74 -66 -118q-65 -43 -159 -43q-98 0 -162 48t-64 110v41q0 55 85 109l39 -24q-24 -27 -24 -89v-31q0 -53 32 -94q33 -40 94 -40q126 0 126 131v88q0 137 -71 137l-99 -10v65l102 -10q57 2 57 141v22q0 56 -29 89t-80 33q-58 0 -90 -31.5t-32 -77.5v-16
q0 -37 18 -73l-62 -28q-44 50 -44 97v25q0 63 52 99t158 36q96 0 152.5 -38.5t56.5 -109.5v-35q0 -81 -104 -149v-10q114 -38 114 -156z" />
    <glyph glyph-name="uni10D6" unicode="&#x10d6;" horiz-adv-x="625" 
d="M313 546v56q0 45 -27 69t-67 24q-43 0 -68.5 -25t-25.5 -70v-54q0 -41 26.5 -70.5t69.5 -29.5t67.5 28.5t24.5 71.5zM188 243v-56q0 -77 38 -130q39 -52 101 -52q64 0 98.5 51t34.5 136v43q0 85 -38 133t-98 48q-67 0 -101.5 -45.5t-34.5 -127.5zM409 599v-26
q0 -43 -38 -83q-37 -38 -75 -48q124 0 194 -55q70 -54 70 -133v-78q0 -96 -69 -149q-67 -52 -167 -52q-102 0 -169 53q-66 52 -66 148v75q0 62 41 108q40 46 86 58q-62 -1 -123 42q-62 44 -62 106v38q0 54 52.5 86.5t134.5 32.5q191 0 191 -123z" />
    <glyph glyph-name="uni10D7" unicode="&#x10d7;" horiz-adv-x="900" 
d="M416 237v304q0 74 -32.5 112t-83.5 38q-125 0 -125 -247v-182q0 -124 31 -190.5t89 -66.5q60 0 90.5 62t30.5 170zM826 448l-1 -160q0 -203 -152 -314l-64 1q119 113 117 307l1 200q0 209 -104 209q-49 0 -78.5 -40t-29.5 -110v-302q1 -128 -56 -196t-164 -69
q-112 1 -166 69t-54 211v210q0 134 55 196t170 62q112 0 182 -90q44 90 139 90q101 0 152 -59q51 -57 53 -215z" />
    <glyph glyph-name="uni10D8" unicode="&#x10d8;" horiz-adv-x="601" 
d="M526 443l-1 -184q0 -206 -128 -284h-49q78 78 78 256v212q0 142 -34 194q-35 54 -91 54q-63 0 -95 -54q-31 -53 -31 -194v-211q0 -181 78 -257h-49q-129 78 -129 284v188q0 155 61 215q62 60 165 60q109 0 166 -60q57 -59 59 -219z" />
    <glyph glyph-name="uni10D9" unicode="&#x10d9;" horiz-adv-x="571" 
d="M506 217v-56q0 -87 -66 -137q-65 -48 -159 -50q-103 2 -165 48q-61 48 -61 108v45q0 69 91 111l27 -30q-18 -27 -18 -91v-24q0 -48 32 -92q33 -44 94 -44q126 0 126 156v56q0 86 -28.5 130.5t-73.5 44.5l-115 -10v60l110 -10q40 0 63 27t23 82v35q-2 56 -30 78
q-29 23 -46 23v41q59 0 117 -40q59 -39 59 -103v-18q0 -88 -124 -140l-1 -12q145 -52 145 -188z" />
    <glyph glyph-name="uni10DA" unicode="&#x10da;" horiz-adv-x="1104" 
d="M1043 522v-51q0 -141 -165 -283l-23 35q90 114 90 255v38q0 80 -27.5 125.5t-71.5 45.5q-110 0 -110 -157v-163h-84v163q0 161 -98 161t-98 -158v-166h-83v168q0 152 -108 152q-100 0 -100 -189v-46q0 -193 124 -301q125 -108 264 -108q111 6 192 37v-95h-180
q-207 0 -353 142q-147 143 -147 332v42q0 107 53 161.5t147 54.5q107 0 153 -79q32 84 135 84q101 0 141 -82q50 77 151 77q90 0 144 -54t54 -141z" />
    <glyph glyph-name="uni10DB" unicode="&#x10db;" horiz-adv-x="591" 
d="M417 175v115q0 80 -30 119.5t-96 39.5q-61 0 -93.5 -43.5t-32.5 -118.5v-112q0 -79 35.5 -124.5t90.5 -45.5q56 0 91 45t35 125zM516 590v-428q0 -82 -63 -134t-162 -54q-85 2 -156 51q-70 51 -70 150v112q0 91 69 146q70 56 159 56q97 0 129 -56v157q0 44 -35.5 71
t-87.5 27q-51 0 -81 -20.5t-30 -56.5v-39h-99v39q-2 54 60 80q61 27 149 27q87 0 153 -32q65 -32 65 -96z" />
    <glyph glyph-name="uni10DC" unicode="&#x10dc;" horiz-adv-x="591" 
d="M426 177v117q0 76 -33.5 120.5t-91.5 44.5q-128 0 -126 -166v-122q0 -89 42 -128q44 -38 83 -38q126 0 126 172zM526 297v-128q0 -95 -66 -144q-65 -50 -160 -50q-84 0 -155 48q-70 49 -70 147v430q0 60 38 89t103 29q37 0 89 -12.5t73 -12.5q60 0 129 29l1 -54
q-40 -40 -106 -40q-50 0 -94 27q-43 28 -81 28q-34 0 -47 -17t-13 -69v-177q48 69 133 69q107 0 166 -52t60 -140z" />
    <glyph glyph-name="uni10DD" unicode="&#x10dd;" horiz-adv-x="891" 
d="M725 309v131q0 145 -29 198t-85 53q-62 0 -93.5 -37.5t-31.5 -121.5v-294h-80v294q0 82 -34.5 120.5t-91.5 38.5q-46 0 -81 -53q-34 -52 -34 -198v-131q0 -220 168 -334h-77q-191 113 -191 348v125q0 144 68 209t148 65q125 0 167 -100q42 100 164 100q214 0 214 -274
v-123q0 -238 -199 -350h-73q171 114 171 334z" />
    <glyph glyph-name="uni10DE" unicode="&#x10de;" horiz-adv-x="581" 
d="M516 187v-28q0 -70 -59 -127t-166 -57q-89 0 -158 48q-68 50 -68 120v45q0 43 47 105l67 -31q-14 -37 -14 -85v-17q0 -59 33 -107t93 -48q66 0 96 50q30 49 30 111v19q0 80 -26 117t-68 37h-73v41h73q62 0 63 96q0 104 -105 138q-104 36 -104 104h110q0 -83 94 -102
q95 -20 95 -138q0 -84 -110 -114v-5q150 -57 150 -172z" />
    <glyph glyph-name="uni10DF" unicode="&#x10df;" horiz-adv-x="591" 
d="M516 712v-566q0 -64 -56 -118q-56 -53 -169 -53q-121 0 -174 47q-52 48 -52 117q0 57 62 119l54 -27q-16 -35 -16 -85q0 -53 32 -97q33 -44 94 -44q72 0 99 49q27 50 27 97v523l-220 -24v-12q135 -47 134 -145q1 -67 -65.5 -101t-200.5 -34v89q191 -60 193 47
q0 71 -52 106t-141 29v33z" />
    <glyph glyph-name="uni10E0" unicode="&#x10e0;" horiz-adv-x="892" 
d="M827 284v-32q0 -170 -176 -277h-77q153 97 153 277v32q0 175 -115 175q-122 0 -122 -163v-94h-89v94q0 163 -121 163q-51 0 -83 -38t-32 -137v-32q0 -179 170 -277h-88q-182 95 -182 277v32q0 142 170 288q172 146 400 146l-1 -76q-132 10 -261 -38q-125 -46 -190 -151
q42 36 97 36q108 0 166 -103q61 103 166 103q92 0 153 -54q62 -54 62 -151z" />
    <glyph glyph-name="uni10E1" unicode="&#x10e1;" horiz-adv-x="591" 
d="M525 209v-20q1 -98 -61 -157q-62 -57 -164 -57q-104 0 -164.5 57t-60.5 165v521l100 -16v-505q0 -192 125 -192q63 0 95 53q31 52 31 131v20q0 74 -46 132t-46 113q0 43 38 93l61 -32q-39 -34 -41 -64q2 -49 67 -98q66 -49 66 -144z" />
    <glyph glyph-name="uni10E2" unicode="&#x10e2;" horiz-adv-x="726" 
d="M562 230v151q0 151 -57 201q-55 51 -122 51l29 -332h-102l28 332q-62 -1 -117 -51q-56 -50 -56 -201v-151q0 -106 60 -166q62 -59 138 -59q81 0 140 59q59 61 59 166zM661 381v-151q0 -102 -86 -179q-84 -75 -212 -77q-132 2 -215 77q-83 77 -83 179v151q0 125 81 199
q82 75 192 75l-29 67h104l-30 -67q110 0 194 -75t84 -199z" />
    <glyph glyph-name="uni10E3" unicode="&#x10e3;" horiz-adv-x="602" 
d="M527 612v-436q0 -85 -49 -143t-165 -58q-102 0 -169 49t-67 138v27q0 89 99 139l21 -24q-20 -32 -20 -94v-49q0 -72 37.5 -114t98.5 -42q63 0 89.5 41t26.5 132v455q0 17 -15 37q-14 21 -53 21q-61 0 -61 -73v-167h-72v167q0 73 -55 73q-34 0 -50 -37q-17 -36 -46 -36
q-21 0 -47 12v88q24 -38 49 -38q26 0 42 19q18 19 46 19q66 0 98 -66q41 66 115 66q57 0 102 -24q45 -22 45 -82z" />
    <glyph glyph-name="uni10E4" unicode="&#x10e4;" horiz-adv-x="872" 
d="M396 479v37q0 105 -32 140q-32 36 -84 35q-53 1 -85 -35q-30 -34 -30 -135v-42q0 -73 20 -121q20 -47 95 -47q70 0 93 47q23 48 23 121zM780 176v-29q0 -67 -71 -120q-70 -52 -213 -52q-134 0 -205 51.5t-71 146.5h96q0 -75 51 -122q52 -46 129 -46q90 0 137 45
q48 45 48 97v44q0 112 -69 112h-71v50h81q45 0 65 44q21 45 21 107v35q0 70 -24.5 111t-68.5 41t-85 -35q-40 -34 -40 -83l1 -95q-1 -90 -57.5 -144.5t-153.5 -54.5q-100 0 -157.5 55t-57.5 145v37q0 105 55 153.5t162 48.5q148 0 186 -86q56 86 149 86q85 0 138 -53
q52 -52 52 -130v-15q0 -122 -151 -188v-10q124 -40 124 -146z" />
    <glyph glyph-name="uni10E5" unicode="&#x10e5;" horiz-adv-x="581" 
d="M506 713v-579q0 -60 -56 -110q-55 -49 -169 -49q-95 0 -161 48q-65 48 -65 116v10q0 44 55 90h65q-20 -51 -20 -93v-12q0 -57 32.5 -93t93.5 -36q67 0 96 39q30 39 30 85v236q-2 82 -43.5 130t-102.5 48q-37 0 -58.5 -26t-21.5 -66q0 -45 22 -86h-70q-46 43 -46 86
q1 59 51 90q52 32 123 32q88 0 151 -69v183l-103 -20v36z" />
    <glyph glyph-name="uni10E6" unicode="&#x10e6;" horiz-adv-x="829" 
d="M764 502v-40q0 -143 -128 -244l-31 30q60 79 60 188v63q0 99 -15 145q-14 47 -84 47q-50 0 -79 -30q-28 -29 -28 -121v-159h-89v159q-2 92 -29 121q-29 30 -75 30q-55 0 -78 -51.5t-23 -169.5v-43q0 -221 88 -303q89 -81 184 -81q74 5 142 38l1 -96h-143q-138 0 -256 113
q-116 114 -116 327v44q0 115 51.5 182t148.5 67q104 0 149 -77q45 77 149 77q117 0 159 -55q42 -54 42 -161z" />
    <glyph glyph-name="uni10E7" unicode="&#x10e7;" horiz-adv-x="581" 
d="M506 718v-558q0 -185 -225 -185q-106 0 -166 40.5t-60 103.5q0 49 71 102h58q-29 -66 -29 -101q0 -40 30 -78q31 -37 96 -37q76 0 101 46t25 118v215q-48 -51 -135 -51q-82 0 -141 46q-60 47 -60 131v23q-1 107 122 187h58q-81 -100 -81 -176v-48q0 -63 33 -99
q33 -35 74 -35q59 0 94 36q36 38 35 80l1 223z" />
    <glyph glyph-name="uni10E8" unicode="&#x10e8;" horiz-adv-x="626" 
d="M451 175v82q0 86 -35 131t-99 45q-68 0 -104 -62q-35 -62 -35 -125v-61q0 -60 36 -120q38 -60 101 -60q66 0 101 60q35 61 35 110zM551 560v-371q0 -213 -236 -215q-108 2 -171 65q-65 65 -65 144v74q-1 83 63 144q65 63 173 63q82 0 142 -62l-1 195q0 58 -9 76
q-7 18 -56 18q-32 0 -43 -25t-11 -79v-16h-85v16q0 54 -10 79t-40 25q-58 0 -58 -69v-63h-84v63q0 42 38 69q39 27 79 27q73 0 116 -58q40 58 105 58q84 0 118.5 -39.5t34.5 -118.5z" />
    <glyph glyph-name="uni10E9" unicode="&#x10e9;" horiz-adv-x="590" 
d="M354 513l-18 16q19 39 19 84q0 78 -100 78q-87 0 -87 -91v-214q45 62 132 62q114 0 169 -58q56 -58 56 -140v-68q0 -110 -101 -214h-53q55 67 55 216v62q0 71 -29 121q-29 51 -97 51q-56 0 -94 -38q-37 -37 -37 -83v-319h-94v626q0 37 38 75q38 39 139 39q91 0 143 -27
t52 -77q0 -58 -93 -101z" />
    <glyph glyph-name="uni10EA" unicode="&#x10ea;" horiz-adv-x="653" 
d="M588 232v-40q0 -89 -67 -153q-65 -64 -190 -64q-134 0 -200 81q-66 82 -66 178v198q0 186 99 288h62q-62 -111 -61 -288v-197q0 -77 43 -153q44 -77 122 -77q87 0 123 61q36 62 36 126v38q0 63 -27.5 102.5t-77.5 39.5l-100 -10v70l100 -10q43 0 64.5 27.5t21.5 73.5
q0 70 -67 104t-67 95h87q0 -67 72 -103q72 -34 74 -93v-1q-2 -87 -148 -121v-13q167 -32 167 -159z" />
    <glyph glyph-name="uni10EB" unicode="&#x10eb;" horiz-adv-x="591" 
d="M417 176v132q0 52 -34 101q-33 50 -92 50q-61 0 -93.5 -45t-32.5 -127v-114q0 -80 32 -124t95 -44q70 0 97 55q28 55 28 116zM516 718v-545q0 -72 -56 -136q-56 -62 -168 -62q-119 0 -173 63t-54 143v112q0 196 226 196q84 0 126 -66v278z" />
    <glyph glyph-name="uni10EC" unicode="&#x10ec;" horiz-adv-x="626" 
d="M175 257v-82q0 -51 34 -110q35 -60 102 -60q64 0 100 60q37 59 37 120v61q0 64 -36 125q-35 62 -103 62q-64 0 -99 -45t-35 -131zM75 189v371q0 79 34.5 118.5t118.5 39.5q65 0 105 -58q43 58 116 58q41 0 78 -27q39 -27 39 -69v-63h-84v63q0 69 -58 69q-30 0 -40 -25
t-10 -79v-16h-85v16q0 54 -11 79t-43 25q-48 0 -57 -18q-8 -19 -8 -76l-1 -195q60 62 142 62q107 0 172 -63q65 -62 64 -144v-74q0 -79 -65 -144q-63 -63 -171 -65q-236 2 -236 215z" />
    <glyph glyph-name="uni10ED" unicode="&#x10ed;" horiz-adv-x="561" 
d="M307 401l-11 128h-68q-54 0 -56 -62q2 -66 57 -66h78zM480 368h-88q0 -46 57 -98q57 -51 57 -131q0 -66 -53 -116q-53 -48 -171 -48q-106 0 -166.5 46t-60.5 119q0 70 100 125l31 -22q-31 -53 -31 -105q0 -46 34 -89q35 -44 93 -44q125 0 125 148q0 69 -49 124
q-48 55 -48 91h-80q-122 0 -123 99q2 92 123 92h66v126l-91 -18v35l177 15v-158h98v-30h-98l7 -128h91v-33z" />
    <glyph glyph-name="uni10EE" unicode="&#x10ee;" horiz-adv-x="591" 
d="M174 308v-132q0 -60 27 -116q28 -55 98 -55q63 0 95 44t32 124v114q0 82 -32.5 127t-93.5 45q-58 0 -93 -50q-33 -49 -33 -101zM75 173v545l99 -17v-278q40 66 126 66q226 0 226 -196v-112q0 -80 -54 -143t-173 -63q-112 0 -168 62q-56 64 -56 136z" />
    <glyph glyph-name="uni10EF" unicode="&#x10ef;" horiz-adv-x="581" 
d="M84 554v60h168l-13 104l89 20l-19 -124h185v-60h-183q0 -59 102 -164q103 -103 103 -195v-30q0 -79 -60 -135q-59 -54 -165 -56q-95 2 -161 60q-65 60 -65 125v44q0 89 119 157l26 -30q-45 -44 -45 -131v-34q0 -78 38 -119t88 -41q67 0 96 45q30 45 30 110v39
q0 80 -82 190q-82 112 -82 165h-169z" />
    <glyph glyph-name="uni10F0" unicode="&#x10f0;" horiz-adv-x="581" 
d="M516 136q0 -75 -59.5 -118t-164.5 -43q-227 0 -227 204h100q0 -69 30 -122q31 -52 97 -52q59 0 92 32.5t33 89.5q0 133 -69 133l-102 -10v67l102 -10q53 0 53 84q0 73 -68 73l-103 -10v70l103 -10q26 -1 39.5 18.5t13.5 59.5q0 67 -73 74q-82 8 -151 7v45q132 0 224 -19
q95 -20 98 -96q2 -66 -90 -107v-12q106 -31 106 -92q0 -67 -101 -103v-11q117 -36 117 -142z" />
    <glyph glyph-name="uni10F1" unicode="&#x10f1;" horiz-adv-x="591" 
d="M526 136q0 -56 -53 -109q-51 -51 -173 -53q-106 1 -165.5 53.5t-59.5 140.5v550l94 -17v-536q-1 -60 32 -110t100 -50q59 0 92 34.5t33 96.5q0 114 -68 114h-70v38h70q68 0 68 89q0 87 -84 87h-54v42h54q84 0 84 94q0 45 -31 63t-107 19v36q100 0 168 -28q69 -27 70 -88
q-1 -70 -128 -113v-11q127 -30 127 -98q0 -74 -118 -105v-13q119 -39 119 -126z" />
    <glyph glyph-name="uni10F2" unicode="&#x10f2;" horiz-adv-x="581" 
d="M165 469v-195q0 -140 126 -231q126 91 126 232v214q0 202 -127 202q-66 0 -95.5 -53.5t-29.5 -168.5zM65 -84v59q127 0 192 54q-192 113 -192 277v183q0 117 55 173t171 56q224 0 225 -229v-183q-1 -165 -190 -277q52 -54 190 -54v-59q-112 0 -225 88q-115 -88 -226 -88z
" />
    <glyph glyph-name="uni10F3" unicode="&#x10f3;" horiz-adv-x="581" 
d="M516 217v-53q0 -71 -59 -130t-166 -59q-93 0 -160 52q-66 52 -66 107v21q0 74 89 136l30 -33q-19 -34 -19 -90v-26q0 -56 39 -96q39 -41 87 -41q63 0 94.5 42.5t31.5 116.5v53q0 117 -37 148q-37 32 -66 32h-114v45h110q38 2 72 56q35 56 35 186h-252v-91h-84v115h435
v-68q0 -120 -150 -214v-11q150 -55 150 -198z" />
    <glyph glyph-name="uni10F4" unicode="&#x10f4;" horiz-adv-x="581" 
d="M516 171v-34q0 -63 -58 -112q-58 -50 -167 -50t-168 53q-58 52 -58 109q0 73 72 131l45 -41q-17 -25 -17 -78q0 -46 31 -95t95 -49q68 0 97 41q29 43 29 88v38q0 61 -21.5 89.5t-68.5 28.5h-49v40h49q46 1 68 49.5t22 157.5q-85 -68 -168 -68q-86 0 -135 33t-49 97
q0 70 64 94q63 25 224 25v-32q-103 0 -145.5 -22t-42.5 -74q0 -37 22 -64t62 -28q90 2 267 159q0 -290 -148 -342l1 -9q147 -40 147 -135z" />
    <glyph glyph-name="uni10F5" unicode="&#x10f5;" horiz-adv-x="642" 
d="M417 134v131h-126q-63 1 -94.5 -29.5t-32.5 -105.5q2 -49 32 -87q32 -38 95 -38q58 0 92 34.5t34 94.5zM165 562q0 -64 32.5 -97.5t93.5 -33.5h126v128q0 62 -34 97t-92 35q-62 0 -94 -35t-32 -94zM577 265l-61 1v-132q0 -73 -55.5 -116t-169.5 -43q-98 0 -162 43
t-64 116q0 62 65 115t161 53h126v96h-126q-97 0 -161 45q-65 47 -65 120q0 79 65 117t161 38q120 0 172 -49q53 -50 53 -110v-128h61v-33h-61v-96h61v-37z" />
    <glyph glyph-name="uni10F6" unicode="&#x10f6;" horiz-adv-x="809" 
d="M644 316v268q0 38 -24 72q-24 35 -71 35q-56 0 -77 -40q-21 -39 -21 -79v-305q0 -23 26.5 -43.5t71.5 -21.5q56 2 75 41q20 42 20 73zM258 718q99 0 146 -65q41 65 145 65q95 0 145 -43.5t50 -128.5v-202q-1 -73 -54 -124q-53 -50 -140 -50q-59 0 -99 24v-70
q0 -149 -236 -149v25q72 0 107 29.5t35 92.5l1 450q0 38 -21 79q-21 40 -77 40q-95 0 -95 -130v-217q0 -93 28 -112q27 -19 91 -17v-45q-107 0 -163 44t-56 130v200q0 91 48.5 132.5t144.5 41.5z" />
    <glyph glyph-name="uni10FB" unicode="&#x10fb;" horiz-adv-x="377" 
d="M39 -25v78h77v-78h-77zM39 332v77h77v-77h-77zM261 152v77h77v-77h-77z" />
    <glyph glyph-name="figuredash" unicode="&#x2012;" horiz-adv-x="603" 
d="M632 237v-51h-632v51h632z" />
    <glyph glyph-name="endash" unicode="&#x2013;" 
d="M508 184v-36h-517v36h517z" />
    <glyph glyph-name="emdash" unicode="&#x2014;" horiz-adv-x="1000" 
d="M1009 184v-36h-1018v36h1018z" />
    <glyph glyph-name="quoteleft" unicode="&#x2018;" horiz-adv-x="333" 
d="M217 604v-21q-50 -30 -68 -56q-13 -19 -13 -45q0 -16 6 -23q4 -7 12 -7q5 0 14 3q15 5 21 5q20 0 35 -15t15 -37q0 -24 -15 -38q-20 -19 -49 -19q-34 0 -59.5 28.5t-25.5 68.5q0 59 43 105q29 31 84 51z" />
    <glyph glyph-name="quoteright" unicode="&#x2019;" horiz-adv-x="333" 
d="M116 351v23q50 30 69 56q12 18 12 44q0 15 -5 23q-6 7 -13 7q-5 0 -14 -3q-15 -5 -21 -5q-19 0 -34.5 15.5t-15.5 36.5q0 24 15 38q21 18 49 18q34 0 59.5 -28t25.5 -68q0 -59 -43 -105q-28 -31 -84 -52z" />
    <glyph glyph-name="quotesinglbase" unicode="&#x201a;" horiz-adv-x="333" 
d="M99 -239v21q49 17 77 51.5t28 74.5q0 10 -4 15q-5 5 -7 5q-6 0 -23 -10q-8 -4 -19 -4q-24 0 -38 14t-14 39q0 24 18 41t45 17q34 0 58 -28.5t24 -74.5q0 -52 -36.5 -94.5t-108.5 -66.5z" />
    <glyph glyph-name="quotedblleft" unicode="&#x201c;" horiz-adv-x="444" 
d="M198 721v-20q-80 -41 -80 -100q0 -16 5 -23q4 -7 11 -7q4 0 17 3.5t19 3.5q20 0 35 -15t15 -36q0 -24 -18 -40.5t-45 -16.5q-33 0 -59 29t-26 69q0 50 33.5 91.5t92.5 61.5zM392 720v-19q-47 -27 -63.5 -49.5t-16.5 -53.5q0 -13 5 -21q5 -6 11 -6q2 0 16 3.5t22 3.5
q21 0 35.5 -14t14.5 -35q0 -24 -19 -42t-46 -18q-34 0 -59 28.5t-25 69.5q0 52 33 93.5t92 59.5z" />
    <glyph glyph-name="quotedblright" unicode="&#x201d;" horiz-adv-x="444" 
d="M56 473v21q47 27 63.5 49.5t16.5 53.5q0 13 -5 20q-4 7 -11 7t-16 -4t-21 -4q-21 0 -35.5 15t-14.5 36q0 24 18.5 41t45.5 17q33 0 59 -28t26 -70q0 -52 -33.5 -94t-92.5 -60zM255 473v21q80 41 80 100q0 16 -5 24q-4 6 -11 6q-8 0 -17 -4t-19 -4q-20 0 -35 15.5
t-15 36.5q0 23 18 40t44 17q34 0 60 -28.5t26 -69.5q0 -50 -33.5 -92t-92.5 -62z" />
    <glyph glyph-name="quotedblbase" unicode="&#x201e;" horiz-adv-x="444" 
d="M56 -152v21q47 27 63.5 49.5t16.5 53.5q0 13 -5 20q-4 7 -11 7t-16 -4t-21 -4q-21 0 -35.5 15t-14.5 36q0 24 18.5 41t45.5 17q33 0 59 -28t26 -70q0 -52 -33.5 -94t-92.5 -60zM255 -152v21q80 41 80 100q0 16 -5 24q-4 6 -11 6q-8 0 -17 -4t-19 -4q-20 0 -35 15.5
t-15 36.5q0 23 18 40t44 17q34 0 60 -28.5t26 -69.5q0 -50 -33.5 -92t-92.5 -62z" />
    <glyph glyph-name="dagger" unicode="&#x2020;" 
d="M256 -279h-18q-1 202 -16 343q-11 99 -34 185q25 21 36 45.5t14 69.5q-31 -3 -65 -17q-51 -21 -74 -21q-22 0 -36 13t-14 33q0 21 14.5 35t36.5 14q12 0 22 -3l51 -22q31 -13 65 -14q-2 22 -4 30q-2 12 -14 42q-27 62 -27 95q0 27 16.5 45t38.5 18q21 0 37 -18.5
t16 -44.5q0 -17 -4 -30q-3 -12 -22 -61q-18 -45 -19 -76q34 3 64 14q51 20 56 21q11 3 22 3q24 0 38.5 -13.5t14.5 -34.5q0 -19 -15 -33t-36 -14q-25 0 -80 23q-37 15 -64 16q2 -44 13 -69t36 -46q-24 -90 -33 -178q-8 -82 -16 -350z" />
    <glyph glyph-name="bullet" unicode="&#x2022;" horiz-adv-x="350" 
d="M177 380q51 0 87 -36t36 -86q0 -51 -36 -87t-87 -36t-87 36q-35 37 -35 87q0 49 35 86q36 36 87 36z" />
    <glyph glyph-name="ellipsis" unicode="&#x2026;" horiz-adv-x="1000" 
d="M167 22q22 0 38 -16t16 -38q0 -23 -16 -39t-38 -16q-23 0 -39 16t-16 39q0 22 16 38t39 16zM500 22q22 0 38 -16t16 -38q0 -23 -16 -39t-38 -16t-38 16t-16 39q0 22 16 38t38 16zM833 22q23 0 39 -16t16 -38q0 -23 -16 -39t-39 -16q-22 0 -38 16t-16 39q0 22 16 38t38 16
z" />
    <glyph glyph-name="guilsinglleft" unicode="&#x2039;" horiz-adv-x="333" 
d="M156 154l119 -231h-28l-189 231l189 229h28z" />
    <glyph glyph-name="guilsinglright" unicode="&#x203a;" horiz-adv-x="333" 
d="M175 153l-119 230h28l193 -230l-193 -230h-28z" />
    <glyph glyph-name="Euro" unicode="&#x20ac;" 
d="M425 325l-11 -38h-281q-1 -14 -1 -41h269l-11 -38h-257q5 -105 41 -172q44 -80 117 -80q66 0 109 34q24 18 67 76l15 -10q-42 -66 -76 -94q-56 -47 -135 -47q-112 0 -173 94q-51 77 -60 199h-49l11 38h36v8q0 21 1 33h-48l11 38h41q16 115 79 191q72 87 184 87
q84 0 166 -43v-146h-19q-13 157 -147 157q-77 0 -122 -82q-36 -65 -46 -164h289z" />
    <glyph glyph-name="trademark" unicode="&#x2122;" horiz-adv-x="980" 
d="M15 491l10 98h355l11 -98h-16q-5 36 -26.5 52.5t-68.5 16.5h-37v-283q0 -41 9.5 -52t42.5 -12v-18h-183v18q33 3 40 13q9 10 9 51v283h-37q-45 0 -65 -15t-28 -54h-16zM425 589h139l134 -279l129 279h136v-18q-26 0 -36 -5q-18 -10 -18 -61v-228q0 -41 9 -52
q10 -11 45 -12v-18h-194v18q43 5 49 11.5t9 51.5v240l-150 -321h-15l-151 317v-235q0 -35 4 -44q11 -20 42 -20h17v-18h-149v18q6 1 15.5 2t12 0.5t8.5 2t7 2.5t4.5 5t3.5 7t1.5 11t1.5 14.5t1 19.5v227q0 38 -4 47q-8 20 -51 20v18z" />
    <glyph glyph-name="uni2D00" unicode="&#x2d00;" horiz-adv-x="742" 
d="M550 298l26 127l-209 -31l-69 -334l208 30l8 27h96l-35 -169h-100l24 104l-209 -29l-6 -24h-97l89 424l-110 -22l-7 -41h-94l26 125h92l-9 -50l110 23l6 27h98l-11 -54l209 27l5 27h97l-40 -187h-98z" />
    <glyph glyph-name="uni2D01" unicode="&#x2d01;" horiz-adv-x="594" 
d="M531 -43q0 -167 -239 -167q-210 0 -239 120v24h105v-24q9 -62 146 -62q130 0 130 96q-1 69 -38 110q-36 41 -29 63l-209 -26l-11 -48h-96l81 383h-55v34h63l5 26h97l-75 -353l208 25l57 268h-54v33l61 1l6 26h98l-70 -322q-14 -62 21 -101q36 -39 37 -106z" />
    <glyph glyph-name="uni2D02" unicode="&#x2d02;" horiz-adv-x="592" 
d="M541 486l-79 -324q-13 -69 40 -115q54 -45 31 -122q-29 -134 -268 -135q-223 0 -233 129q-7 49 13 77h74q-11 -34 -4 -79q23 -69 147 -69q163 -1 180 77q27 79 -31 128q-57 49 -46 110l64 261l-209 -33l-46 -211l43 2v-43h-51l-5 -25h-98l66 312h-55v34h63l5 26h98
l-11 -61l209 35l4 26h99z" />
    <glyph glyph-name="uni2D03" unicode="&#x2d03;" horiz-adv-x="616" 
d="M411 152l39 176q11 56 -8.5 79t-71.5 15l-78 -11q-64 -11 -83 -92l-33 -155q-12 -62 -6 -91t31 -25l153 25q44 6 57 79zM481 586v78l-106 -23v-177q211 34 171 -135l-33 -159q-28 -127 -127 -142l-193 -29q-151 -15 -110 179l26 125q27 122 194 151v174l-110 -23v-25h-75
v142h75v-74l288 55v19h75v-136h-75z" />
    <glyph glyph-name="uni2D04" unicode="&#x2d04;" horiz-adv-x="591" 
d="M526 -210h-103q-76 58 -76 171v39l90 426l-208 -36l-70 -327h46l-2 -39h-53l-4 -24h-98l89 426h-55v34h63l5 26h97l-12 -60l210 34l6 26h98l-104 -486l-1 -35q0 -93 82 -175z" />
    <glyph glyph-name="uni2D05" unicode="&#x2d05;" horiz-adv-x="905" 
d="M351 -76v76l91 425l-211 -35l-69 -327h53v-39h-61l-6 -24h-97l91 426h-55v34h62l6 26h96l-12 -60l210 34l5 26h99l-13 -60l210 34l5 26h99l-90 -423h54v-39h-63l-5 -24h-97l90 425l-210 -35l-84 -390v-78q0 -57 77 -131h-107q-68 70 -68 133z" />
    <glyph glyph-name="uni2D06" unicode="&#x2d06;" horiz-adv-x="709" 
d="M267 63l209 28l71 335l-210 -36zM559 24l-5 -24h-97l11 53l-210 -29l-5 -24h-98l109 509v57h-122v-44h-90l-1 200h91v-119l122 1v62h94l-1 -180l-13 -60l210 34l6 26h98l-91 -423h53v-39h-61z" />
    <glyph glyph-name="uni2D07" unicode="&#x2d07;" horiz-adv-x="903" 
d="M162 63l208 28l72 335l-211 -36zM750 0h-98l90 426l-210 -36l-83 -390h-98l10 53l-208 -29l-4 -24h-98l91 425l-56 1v34l63 -1l6 26l96 1l-12 -60l210 33l5 27h99l-13 -60l210 34l6 26h96l-89 -423h54v-39h-61z" />
    <glyph glyph-name="uni2D08" unicode="&#x2d08;" horiz-adv-x="577" 
d="M423 0h-97l89 426l-210 -36l-21 -95h53v-39h-61l-5 -24h-98l42 194h-54v34h61l6 26h98l-14 -60l211 34l5 26h98l-90 -423h54v-39h-62z" />
    <glyph glyph-name="uni2D09" unicode="&#x2d09;" horiz-adv-x="604" 
d="M163 63l208 28l71 335l-210 -36zM538 -209h-107q-73 70 -73 131v102l5 29l-209 -29l-6 -24h-97l110 512l1 119h-61v32h61v30h89l1 -207l-12 -60l209 34l6 26h99l-104 -486v-71q0 -51 88 -138z" />
    <glyph glyph-name="uni2D0A" unicode="&#x2d0a;" horiz-adv-x="905" 
d="M458 63l208 28l72 335l-211 -36zM813 63v-39h-63l-5 -24h-98l11 53l-208 -29l-5 -24h-99l91 426l-210 -36l-71 -327h53v-39h-60l-6 -24h-98l91 426h-54v34l62 -1l5 27h97l-12 -60l209 33l6 27h98l-12 -60l210 34l5 26h98l-89 -423h54z" />
    <glyph glyph-name="uni2D0B" unicode="&#x2d0b;" horiz-adv-x="591" 
d="M441 448l-170 -26q-36 -4 -50 -70l-47 -221q-10 -44 -1 -65.5t37 -20.5l106 18q44 6 62 92zM539 444l-64 -304q-23 -100 -125 -116l-159 -25q-151 -25 -105 186l39 179q17 77 128 92l197 30v147l-198 -42v-25h-92l1 156h91v-92l198 38v28h89v-197l31 4v-37l-31 -4v-18z
" />
    <glyph glyph-name="uni2D0C" unicode="&#x2d0c;" horiz-adv-x="604" 
d="M396 605v66l-147 -30v-155l-10 -60l210 34l6 26h99l-91 -423h53v-39h-62l-5 -24h-98l90 426l-209 -36l-70 -327h52v-39h-61l-5 -24h-97l108 491v231h90v-45l146 22l1 23h99v-117h-99z" />
    <glyph glyph-name="uni2D0D" unicode="&#x2d0d;" horiz-adv-x="905" 
d="M755 24l-5 -24h-96l11 52l-210 -28l-4 -24h-100l10 52l-207 -28l-5 -24l-98 -1l93 424l-57 3v34h63l8 26h96l-91 -424l206 28l74 336h-57v34h65l5 26h97l-90 -424l209 28l71 336h-55v34h63l6 26h97l-90 -423h54v-39h-63z" />
    <glyph glyph-name="uni2D0E" unicode="&#x2d0e;" horiz-adv-x="604" 
d="M449 0h-97l11 53l-208 -29l-7 -24h-97l90 426h-54v34h61l6 26h98l-89 -424l210 29l70 335h-54v34h61l6 26h97l-90 -423h54v-39h-62z" />
    <glyph glyph-name="uni2D0F" unicode="&#x2d0f;" horiz-adv-x="813" 
d="M750 -210h-99q-80 56 -80 143l2 120l-196 -29l-5 -24h-99l59 280l-168 -31l-17 -71h-96l52 248h-54v34h62l6 26h96l-41 -199l168 32l22 103h98l-74 -359l195 28l89 421v144h-61v33h61v33h92v-236l-95 -448v-104q0 -61 83 -144z" />
    <glyph glyph-name="uni2D10" unicode="&#x2d10;" horiz-adv-x="904" 
d="M749 0h-96l89 426l-209 -36l-71 -327h54v-39h-62l-4 -24h-99l11 53l-208 -29l-8 -24h-95l90 426h-55v34h63l5 26h97l-89 -423l208 28l86 395l1 170h-61v33h61v33h95l1 -236l-13 -60l210 34l5 26h98l-90 -423h54v-39h-62z" />
    <glyph glyph-name="uni2D11" unicode="&#x2d11;" horiz-adv-x="604" 
d="M450 0h-99l11 53l-207 -29l-7 -24h-97l107 503l1 153h-62v33h62v33h93v-236l-90 -423l208 28l72 335h-55v33h61l6 27h99l-91 -423h55v-39h-63z" />
    <glyph glyph-name="uni2D12" unicode="&#x2d12;" horiz-adv-x="604" 
d="M377 133l51 239q14 68 -30 66l-162 -17l-81 -381l162 20q51 7 60 73zM536 423l-61 -293q-25 -98 -102 -105l-230 -25v-71q0 -78 91 -78h111v-60h-106q-188 0 -188 134v86l88 412l-55 3v34h62l5 26h98l-6 -26l204 26q110 11 89 -63z" />
    <glyph glyph-name="uni2D13" unicode="&#x2d13;" horiz-adv-x="902" 
d="M833 -213h-111q-67 46 -67 133v80l10 53l-211 -29l-3 -24h-98l10 53l-208 -29l-7 -24h-97l90 423l-54 3v34l62 1l6 25h97l-89 -423l209 28l70 335h-56v34h65l3 26h100l-90 -423l209 28l83 395l-1 42h-62v34h62v28h97v-117l-100 -473l-1 -84q0 -72 82 -129z" />
    <glyph glyph-name="uni2D14" unicode="&#x2d14;" horiz-adv-x="889" 
d="M675 144l47 219q10 45 -12.5 63t-76.5 10l-102 -16l-85 -389l137 19q76 14 92 94zM439 448l-175 -24q-36 -14 -51 -81l-42 -199q-13 -59 4 -84t63 -16l118 15zM804 289l-36 -167q-16 -77 -117 -91l-196 -31v-82q7 -56 60 -127h-101q-44 68 -52 129l-1 107l-170 -27
q-76 -13 -104.5 26t-10.5 129l40 188q19 93 139 116l191 28l-4 20h91l6 -52l140 22q86 14 117 -33t8 -155z" />
    <glyph glyph-name="uni2D15" unicode="&#x2d15;" horiz-adv-x="811" 
d="M688 63h-98l47 223l-187 -28l-40 -195v-124q0 -80 69 -149h-105q-61 43 -61 126v147l36 178l-185 -28l-16 -71h-97l60 284h-54v34h61l6 26h97l-49 -234l185 28l46 216l1 167h-63v33h63v26h95v-236l-39 -187l186 27l18 80h96l-58 -275h39v-40h-48z" />
    <glyph glyph-name="uni2D16" unicode="&#x2d16;" horiz-adv-x="603" 
d="M448 0h-100l92 424l-209 -34l-70 -327h53v-39h-61l-5 -24h-97l90 426h-55v34h62l5 26h97l-11 -60l209 35l5 24l99 1l-90 -423h54v-39h-62z" />
    <glyph glyph-name="uni2D17" unicode="&#x2d17;" horiz-adv-x="604" 
d="M539 -209h-98q-78 89 -87 227l9 35l-209 -29l-4 -24h-99l91 426h-55v34h63l5 26h98l-90 -423l208 28l71 335h-54v34h62l5 26h99l-93 -428l-9 -39q9 -133 87 -228z" />
    <glyph glyph-name="uni2D18" unicode="&#x2d18;" horiz-adv-x="604" 
d="M553 486l-82 -381q-66 -314 -313 -314l-18 -1v67h19q137 0 203 196l-208 -29l-5 -24h-98l91 426h-55v34h61l7 26h97l-90 -423l209 28l71 335h-54v33h61l6 27h98z" />
    <glyph glyph-name="uni2D19" unicode="&#x2d19;" horiz-adv-x="608" 
d="M453 0h-98l90 426l-210 -36l-66 -309q-38 -176 113 -290h-120q-125 126 -89 300l85 394v174h-62v34h62v29h97v-237l-12 -59l210 34l5 26h99l-90 -423h53v-39h-62z" />
    <glyph glyph-name="uni2D1A" unicode="&#x2d1a;" horiz-adv-x="644" 
d="M495 24l-6 -24h-97l89 426l-210 -36l-83 -390q-30 -149 251 -149v-60q-196 -1 -283.5 51.5t-65.5 156.5l91 427h-54v34h61l4 26h100l-13 -60l210 34l6 26h98l-90 -423h53v-39h-61z" />
    <glyph glyph-name="uni2D1B" unicode="&#x2d1b;" horiz-adv-x="594" 
d="M440 434l-173 -26q-35 -3 -49 -60l-43 -201q-26 -116 38 -107l107 17q39 6 63 110zM530 722l1 -237l42 6v-38l-42 -6v-38l-54 -259q-22 -102 -125 -119l-192 -31q-114 0 -83 142l40 188q19 96 120 111l207 30v188h-61v34h61v29h86z" />
    <glyph glyph-name="uni2D1C" unicode="&#x2d1c;" horiz-adv-x="924" 
d="M769 0h-97l89 426l-209 -36l-70 -327h54v-39h-63l-5 -24l-97 2l89 424l-210 -36l-63 -299q-41 -194 119 -300h-132q-123 119 -83 309l69 326h-54v34h61l7 26h97l-13 -60l210 34l5 26h96l-9 -60l209 34l7 26h97l-90 -423h52v-39h-60z" />
    <glyph glyph-name="uni2D1D" unicode="&#x2d1d;" horiz-adv-x="638" 
d="M500 -59q0 -150 -229 -150q-203 0 -218 125l-2 11h98l2 -16q7 -60 115 -60q151 0 152 91q-2 96 -181 96q-72 0 -103 22.5t-21 66.5l61 299l-53 1v33h61l6 27h97l-13 -60l210 34l7 26h98l-57 -266l53 -1v-39h-62l-4 -24h-99l56 270l-209 -36l-50 -235q-13 -64 63 -64
q112 0 167.5 -37.5t54.5 -113.5z" />
    <glyph glyph-name="uni2D1E" unicode="&#x2d1e;" horiz-adv-x="633" 
d="M479 0h-99l11 53l-209 -29l-4 -24q-13 -71 40.5 -107t173.5 -36h59v-66h-60q-170 0 -247.5 52.5t-62.5 156.5l89 426h-54v34h61l7 26h97l-90 -423l209 28l71 335h-54v34h61l6 26h98l-89 -423h52v-39h-62z" />
    <glyph glyph-name="uni2D1F" unicode="&#x2d1f;" horiz-adv-x="800" 
d="M462 201l124 93l39 104l-239 -43zM490 131l84 -182l83 -20l-7 -83l-130 29l-91 205l-283 -212v-59h-83v83l336 257l-94 196l-121 -19l-7 -36l-94 2l23 107h-55v34h63l5 27h98l-20 -91l445 73l11 38h96l-75 -212z" />
    <glyph glyph-name="uni2D20" unicode="&#x2d20;" horiz-adv-x="900" 
d="M56 0l89 426h-54v33l62 1l5 26h98l-11 -59l209 33l4 26h100l-90 -423l208 28l72 335h-54v33h61l6 27h97l-90 -423h53v-39h-60l-6 -24h-96l9 53l-210 -29l-4 -24h-98l89 426l-208 -36l-71 -328h54v-38h-62l-5 -24h-97z" />
    <glyph glyph-name="uni2D21" unicode="&#x2d21;" horiz-adv-x="592" 
d="M475 179h-98l51 247l-208 -36l-70 -327l204 -272h-110l-193 272l90 423l1 236h236v-41h-140l1 -195l-12 -60l209 34l6 26h99l-51 -245h53v-38h-63z" />
    <glyph glyph-name="uni2D22" unicode="&#x2d22;" horiz-adv-x="603" 
d="M526 383l-51 -252q-23 -88 -124 -107l-173 -26q-132 -8 -111 93l31 113l94 -1l-27 -112q-6 -29 2.5 -41.5t31.5 -10.5l120 19q43 8 57 72l51 252q14 54 -145 9h-101l36 158h96l-33 -119q264 63 247 -43q-1 -2 -1 -4z" />
    <glyph glyph-name="uni2D23" unicode="&#x2d23;" horiz-adv-x="605" 
d="M541 -209h-112q-100 102 -77 209l10 53l-207 -29l-6 -24h-98l90 426h-54v34h61l7 26h98l-90 -423l209 28l83 395l1 173h-60v34h60v29h98v-236l-104 -486q-22 -106 91 -209z" />
    <glyph glyph-name="uni2D24" unicode="&#x2d24;" horiz-adv-x="703" 
d="M547 0h-96l8 42l-105 -15v-101q0 -76 69 -135h-104q-52 55 -52 129v119l-112 -15l-6 -24h-98l92 426h-55v34h61l4 26h100l-90 -423l109 13l17 81h88l-21 -94l111 13l74 350h-58v34h64l7 26h97l-89 -423h53v-39h-62z" />
    <glyph glyph-name="uni2D25" unicode="&#x2d25;" horiz-adv-x="859" 
d="M657 584v85l-124 -31v-162l43 7q236 37 201 -138l-43 -194h28v-39h-35l-6 -29h-97l54 258q13 59 -16 83.5t-99 13.5l-24 -6l-63 -307q-19 -87 -126 -101l-161 -26q-71 -9 -96.5 34t-5.5 138l42 201q14 57 112 69l210 31v251h82v-46l124 29v17h87v-138h-87zM442 427
l-158 -24q-53 -8 -63 -59l-46 -217q-19 -93 38 -90l94 14q58 9 69 68z" />
    <glyph glyph-name="uni2D26" unicode="&#x2d26;" horiz-adv-x="850" 
d="M620 113l55 260q20 77 -28 77l-137 -24l-84 -381l140 20q46 11 54 48zM427 450l-122 -16q-66 -22 -78 -86l-48 -221q-9 -43 1.5 -62.5t40.5 -16.5l126 19zM434 491v168h-61v34h61v29h86v-253l150 23q64 16 89.5 -13.5t12.5 -105.5l-59 -269q-12 -68 -82 -75l-200 -29
v-209h-93v235l-187 -32q-50 -5 -69.5 19t-8.5 78l56 261q20 92 91 107z" />
    <glyph glyph-name="uniE000" unicode="&#xe000;" horiz-adv-x="581" 
d="M516 249v-76q0 -91 -60.5 -144.5t-164.5 -54.5q-105 1 -165.5 52t-60.5 149v35q0 51 58 121l58 -30q-16 -33 -16 -91v-37q0 -56 32 -112t94 -56q64 0 95 45t31 123v76q0 144 -103 241q-111 106 -111 194v38h94v-38q0 -109 105 -208q114 -106 114 -227z" />
    <glyph glyph-name="uniE001" unicode="&#xe001;" horiz-adv-x="581" 
d="M165 248v-70q0 -99 38 -137q39 -36 88 -36q61 0 93.5 38.5t32.5 129.5v74q0 106 -38 141t-88 35q-47 0 -87 -35q-39 -34 -39 -140zM162 722h109q-1 -56 65 -94q67 -37 -7 -178q57 0 122 -59t65 -141v-85q0 -77 -67 -134q-68 -56 -158 -56q-97 0 -162 57q-64 57 -64 135
v83q0 82 71 141t141 59q46 136 -35 177q-80 41 -80 95z" />
    <glyph glyph-name="uniE002" unicode="&#xe002;" horiz-adv-x="649" 
d="M484 188v69q0 63 -43 119q-42 58 -93 58h-35q-73 0 -111 -59q-37 -58 -36 -133v-53q-1 -66 40 -126q42 -58 119 -58q85 -1 122 58t37 125zM584 246v-65q0 -91 -78 -150q-76 -57 -183 -57q-107 2 -183 67q-75 66 -75 140v64q0 81 73 151q74 70 204 69q38 44 38 122
q0 104 -84 104q-41 0 -64.5 -23.5t-23.5 -57.5v-46h-92v46q0 50 51 81q50 31 130 31q79 0 127 -32.5t48 -94.5q0 -53 -90 -129q57 -4 129 -66q73 -61 73 -154z" />
    <glyph glyph-name="uniE003" unicode="&#xe003;" horiz-adv-x="849" 
d="M685 416v81q0 113 -29 154q-28 40 -81 40t-82 -41q-28 -40 -28 -152v-79q0 -78 19 -138q20 -62 91 -62t91 62q20 64 19 135zM594 77v-92h-169q-149 0 -255 124q-105 125 -105 351v8q0 121 54 186t155 65q90 0 133 -79q51 79 168 79q91 0 149 -49q60 -50 60 -173v-83
q0 -116 -61 -171q-61 -54 -148 -54q-96 0 -153.5 59t-57.5 170v76q0 50 24 109q-49 88 -116 88q-47 0 -77 -49q-29 -48 -30 -174v-23q0 -194 67.5 -298t192.5 -104q82 6 169 34z" />
    <glyph glyph-name="uniE004" unicode="&#xe004;" horiz-adv-x="585" 
d="M511 572v-440q0 -74 -64 -116q-63 -40 -161 -42q-103 2 -164 51q-62 51 -62 117q0 122 114 184l32 -31q-46 -33 -46 -154q0 -136 126 -136q60 0 93 32.5t33 96.5v438q0 56 -30.5 87.5t-77.5 31.5q-53 0 -83.5 -31t-30.5 -85q0 -49 9 -72l-57 -43q-47 61 -47 113
q0 75 64 112t139 37q99 0 156 -42.5t57 -107.5z" />
    <glyph glyph-name="uniE005" unicode="&#xe005;" horiz-adv-x="576" 
d="M511 224v-88q0 -74 -66 -118q-65 -43 -159 -43q-98 0 -162 48t-64 110v41q0 55 85 109l39 -24q-24 -27 -24 -89v-31q0 -53 32 -94q33 -40 94 -40q126 0 126 131v88q0 137 -71 137l-99 -10v65l102 -10q57 2 57 141v22q0 56 -29 89t-80 33q-58 0 -90 -31.5t-32 -77.5v-16
q0 -37 18 -73l-62 -28q-44 50 -44 97v25q0 63 52 99t158 36q96 0 152.5 -38.5t56.5 -109.5v-35q0 -81 -104 -149v-10q114 -38 114 -156z" />
    <glyph glyph-name="uniE006" unicode="&#xe006;" horiz-adv-x="625" 
d="M313 546v56q0 45 -27 69t-67 24q-43 0 -68.5 -25t-25.5 -70v-54q0 -41 26.5 -70.5t69.5 -29.5t67.5 28.5t24.5 71.5zM188 243v-56q0 -77 38 -130q39 -52 101 -52q64 0 98.5 51t34.5 136v43q0 85 -38 133t-98 48q-67 0 -101.5 -45.5t-34.5 -127.5zM409 599v-26
q0 -43 -38 -83q-37 -38 -75 -48q124 0 194 -55q70 -54 70 -133v-78q0 -96 -69 -149q-67 -52 -167 -52q-102 0 -169 53q-66 52 -66 148v75q0 62 41 108q40 46 86 58q-62 -1 -123 42q-62 44 -62 106v38q0 54 52.5 86.5t134.5 32.5q191 0 191 -123z" />
    <glyph glyph-name="uniE007" unicode="&#xe007;" horiz-adv-x="900" 
d="M416 237v304q0 74 -32.5 112t-83.5 38q-125 0 -125 -247v-182q0 -124 31 -190.5t89 -66.5q60 0 90.5 62t30.5 170zM826 448l-1 -160q0 -203 -152 -314l-64 1q119 113 117 307l1 200q0 209 -104 209q-49 0 -78.5 -40t-29.5 -110v-302q1 -128 -56 -196t-164 -69
q-112 1 -166 69t-54 211v210q0 134 55 196t170 62q112 0 182 -90q44 90 139 90q101 0 152 -59q51 -57 53 -215z" />
    <glyph glyph-name="uniE008" unicode="&#xe008;" horiz-adv-x="601" 
d="M526 443l-1 -184q0 -206 -128 -284h-49q78 78 78 256v212q0 142 -34 194q-35 54 -91 54q-63 0 -95 -54q-31 -53 -31 -194v-211q0 -181 78 -257h-49q-129 78 -129 284v188q0 155 61 215q62 60 165 60q109 0 166 -60q57 -59 59 -219z" />
    <glyph glyph-name="uniE009" unicode="&#xe009;" horiz-adv-x="571" 
d="M506 217v-56q0 -87 -66 -137q-65 -48 -159 -50q-103 2 -165 48q-61 48 -61 108v45q0 69 91 111l27 -30q-18 -27 -18 -91v-24q0 -48 32 -92q33 -44 94 -44q126 0 126 156v56q0 86 -28.5 130.5t-73.5 44.5l-115 -10v60l110 -10q40 0 63 27t23 82v35q-2 56 -30 78
q-29 23 -46 23v41q59 0 117 -40q59 -39 59 -103v-18q0 -88 -124 -140l-1 -12q145 -52 145 -188z" />
    <glyph glyph-name="uniE00A" unicode="&#xe00a;" horiz-adv-x="1104" 
d="M1043 522v-51q0 -141 -165 -283l-23 35q90 114 90 255v38q0 80 -27.5 125.5t-71.5 45.5q-110 0 -110 -157v-163h-84v163q0 161 -98 161t-98 -158v-166h-83v168q0 152 -108 152q-100 0 -100 -189v-46q0 -193 124 -301q125 -108 264 -108q111 6 192 37v-95h-180
q-207 0 -353 142q-147 143 -147 332v42q0 107 53 161.5t147 54.5q107 0 153 -79q32 84 135 84q101 0 141 -82q50 77 151 77q90 0 144 -54t54 -141z" />
    <glyph glyph-name="uniE00B" unicode="&#xe00b;" horiz-adv-x="591" 
d="M417 175v115q0 80 -30 119.5t-96 39.5q-61 0 -93.5 -43.5t-32.5 -118.5v-112q0 -79 35.5 -124.5t90.5 -45.5q56 0 91 45t35 125zM516 590v-428q0 -82 -63 -134t-162 -54q-85 2 -156 51q-70 51 -70 150v112q0 91 69 146q70 56 159 56q97 0 129 -56v157q0 44 -35.5 71
t-87.5 27q-51 0 -81 -20.5t-30 -56.5v-39h-99v39q-2 54 60 80q61 27 149 27q87 0 153 -32q65 -32 65 -96z" />
    <glyph glyph-name="uniE00C" unicode="&#xe00c;" horiz-adv-x="591" 
d="M426 177v117q0 76 -33.5 120.5t-91.5 44.5q-128 0 -126 -166v-122q0 -89 42 -128q44 -38 83 -38q126 0 126 172zM526 297v-128q0 -95 -66 -144q-65 -50 -160 -50q-84 0 -155 48q-70 49 -70 147v430q0 60 38 89t103 29q37 0 89 -12.5t73 -12.5q60 0 129 29l1 -54
q-40 -40 -106 -40q-50 0 -94 27q-43 28 -81 28q-34 0 -47 -17t-13 -69v-177q48 69 133 69q107 0 166 -52t60 -140z" />
    <glyph glyph-name="uniE00D" unicode="&#xe00d;" horiz-adv-x="891" 
d="M725 309v131q0 145 -29 198t-85 53q-62 0 -93.5 -37.5t-31.5 -121.5v-294h-80v294q0 82 -34.5 120.5t-91.5 38.5q-46 0 -81 -53q-34 -52 -34 -198v-131q0 -220 168 -334h-77q-191 113 -191 348v125q0 144 68 209t148 65q125 0 167 -100q42 100 164 100q214 0 214 -274
v-123q0 -238 -199 -350h-73q171 114 171 334z" />
    <glyph glyph-name="uniE00E" unicode="&#xe00e;" horiz-adv-x="581" 
d="M516 187v-28q0 -70 -59 -127t-166 -57q-89 0 -158 48q-68 50 -68 120v45q0 43 47 105l67 -31q-14 -37 -14 -85v-17q0 -59 33 -107t93 -48q66 0 96 50q30 49 30 111v19q0 80 -26 117t-68 37h-73v41h73q62 0 63 96q0 104 -105 138q-104 36 -104 104h110q0 -83 94 -102
q95 -20 95 -138q0 -84 -110 -114v-5q150 -57 150 -172z" />
    <glyph glyph-name="uniE00F" unicode="&#xe00f;" horiz-adv-x="591" 
d="M516 712v-566q0 -64 -56 -118q-56 -53 -169 -53q-121 0 -174 47q-52 48 -52 117q0 57 62 119l54 -27q-16 -35 -16 -85q0 -53 32 -97q33 -44 94 -44q72 0 99 49q27 50 27 97v523l-220 -24v-12q135 -47 134 -145q1 -67 -65.5 -101t-200.5 -34v89q191 -60 193 47
q0 71 -52 106t-141 29v33z" />
    <glyph glyph-name="uniE010" unicode="&#xe010;" horiz-adv-x="892" 
d="M827 284v-32q0 -170 -176 -277h-77q153 97 153 277v32q0 175 -115 175q-122 0 -122 -163v-94h-89v94q0 163 -121 163q-51 0 -83 -38t-32 -137v-32q0 -179 170 -277h-88q-182 95 -182 277v32q0 142 170 288q172 146 400 146l-1 -76q-132 10 -261 -38q-125 -46 -190 -151
q42 36 97 36q108 0 166 -103q61 103 166 103q92 0 153 -54q62 -54 62 -151z" />
    <glyph glyph-name="uniE011" unicode="&#xe011;" horiz-adv-x="591" 
d="M525 209v-20q1 -98 -61 -157q-62 -57 -164 -57q-104 0 -164.5 57t-60.5 165v521l100 -16v-505q0 -192 125 -192q63 0 95 53q31 52 31 131v20q0 74 -46 132t-46 113q0 43 38 93l61 -32q-39 -34 -41 -64q2 -49 67 -98q66 -49 66 -144z" />
    <glyph glyph-name="uniE012" unicode="&#xe012;" horiz-adv-x="726" 
d="M562 230v151q0 151 -57 201q-55 51 -122 51l29 -332h-102l28 332q-62 -1 -117 -51q-56 -50 -56 -201v-151q0 -106 60 -166q62 -59 138 -59q81 0 140 59q59 61 59 166zM661 381v-151q0 -102 -86 -179q-84 -75 -212 -77q-132 2 -215 77q-83 77 -83 179v151q0 125 81 199
q82 75 192 75l-29 67h104l-30 -67q110 0 194 -75t84 -199z" />
    <glyph glyph-name="uniE013" unicode="&#xe013;" horiz-adv-x="602" 
d="M527 612v-436q0 -85 -49 -143t-165 -58q-102 0 -169 49t-67 138v27q0 89 99 139l21 -24q-20 -32 -20 -94v-49q0 -72 37.5 -114t98.5 -42q63 0 89.5 41t26.5 132v455q0 17 -15 37q-14 21 -53 21q-61 0 -61 -73v-167h-72v167q0 73 -55 73q-34 0 -50 -37q-17 -36 -46 -36
q-21 0 -47 12v88q24 -38 49 -38q26 0 42 19q18 19 46 19q66 0 98 -66q41 66 115 66q57 0 102 -24q45 -22 45 -82z" />
    <glyph glyph-name="uniE014" unicode="&#xe014;" horiz-adv-x="872" 
d="M396 479v37q0 105 -32 140q-32 36 -84 35q-53 1 -85 -35q-30 -34 -30 -135v-42q0 -73 20 -121q20 -47 95 -47q70 0 93 47q23 48 23 121zM780 176v-29q0 -67 -71 -120q-70 -52 -213 -52q-134 0 -205 51.5t-71 146.5h96q0 -75 51 -122q52 -46 129 -46q90 0 137 45
q48 45 48 97v44q0 112 -69 112h-71v50h81q45 0 65 44q21 45 21 107v35q0 70 -24.5 111t-68.5 41t-85 -35q-40 -34 -40 -83l1 -95q-1 -90 -57.5 -144.5t-153.5 -54.5q-100 0 -157.5 55t-57.5 145v37q0 105 55 153.5t162 48.5q148 0 186 -86q56 86 149 86q85 0 138 -53
q52 -52 52 -130v-15q0 -122 -151 -188v-10q124 -40 124 -146z" />
    <glyph glyph-name="uniE015" unicode="&#xe015;" horiz-adv-x="581" 
d="M506 713v-579q0 -60 -56 -110q-55 -49 -169 -49q-95 0 -161 48q-65 48 -65 116v10q0 44 55 90h65q-20 -51 -20 -93v-12q0 -57 32.5 -93t93.5 -36q67 0 96 39q30 39 30 85v236q-2 82 -43.5 130t-102.5 48q-37 0 -58.5 -26t-21.5 -66q0 -45 22 -86h-70q-46 43 -46 86
q1 59 51 90q52 32 123 32q88 0 151 -69v183l-103 -20v36z" />
    <glyph glyph-name="uniE016" unicode="&#xe016;" horiz-adv-x="829" 
d="M764 502v-40q0 -143 -128 -244l-31 30q60 79 60 188v63q0 99 -15 145q-14 47 -84 47q-50 0 -79 -30q-28 -29 -28 -121v-159h-89v159q-2 92 -29 121q-29 30 -75 30q-55 0 -78 -51.5t-23 -169.5v-43q0 -221 88 -303q89 -81 184 -81q74 5 142 38l1 -96h-143q-138 0 -256 113
q-116 114 -116 327v44q0 115 51.5 182t148.5 67q104 0 149 -77q45 77 149 77q117 0 159 -55q42 -54 42 -161z" />
    <glyph glyph-name="uniE017" unicode="&#xe017;" horiz-adv-x="581" 
d="M506 718v-558q0 -185 -225 -185q-106 0 -166 40.5t-60 103.5q0 49 71 102h58q-29 -66 -29 -101q0 -40 30 -78q31 -37 96 -37q76 0 101 46t25 118v215q-48 -51 -135 -51q-82 0 -141 46q-60 47 -60 131v23q-1 107 122 187h58q-81 -100 -81 -176v-48q0 -63 33 -99
q33 -35 74 -35q59 0 94 36q36 38 35 80l1 223z" />
    <glyph glyph-name="uniE018" unicode="&#xe018;" horiz-adv-x="626" 
d="M451 175v82q0 86 -35 131t-99 45q-68 0 -104 -62q-35 -62 -35 -125v-61q0 -60 36 -120q38 -60 101 -60q66 0 101 60q35 61 35 110zM551 560v-371q0 -213 -236 -215q-108 2 -171 65q-65 65 -65 144v74q-1 83 63 144q65 63 173 63q82 0 142 -62l-1 195q0 58 -9 76
q-7 18 -56 18q-32 0 -43 -25t-11 -79v-16h-85v16q0 54 -10 79t-40 25q-58 0 -58 -69v-63h-84v63q0 42 38 69q39 27 79 27q73 0 116 -58q40 58 105 58q84 0 118.5 -39.5t34.5 -118.5z" />
    <glyph glyph-name="uniE019" unicode="&#xe019;" horiz-adv-x="590" 
d="M354 513l-18 16q19 39 19 84q0 78 -100 78q-87 0 -87 -91v-214q45 62 132 62q114 0 169 -58q56 -58 56 -140v-68q0 -110 -101 -214h-53q55 67 55 216v62q0 71 -29 121q-29 51 -97 51q-56 0 -94 -38q-37 -37 -37 -83v-319h-94v626q0 37 38 75q38 39 139 39q91 0 143 -27
t52 -77q0 -58 -93 -101z" />
    <glyph glyph-name="uniE01A" unicode="&#xe01a;" horiz-adv-x="653" 
d="M588 232v-40q0 -89 -67 -153q-65 -64 -190 -64q-134 0 -200 81q-66 82 -66 178v198q0 186 99 288h62q-62 -111 -61 -288v-197q0 -77 43 -153q44 -77 122 -77q87 0 123 61q36 62 36 126v38q0 63 -27.5 102.5t-77.5 39.5l-100 -10v70l100 -10q43 0 64.5 27.5t21.5 73.5
q0 70 -67 104t-67 95h87q0 -67 72 -103q72 -34 74 -93v-1q-2 -87 -148 -121v-13q167 -32 167 -159z" />
    <glyph glyph-name="uniE01B" unicode="&#xe01b;" horiz-adv-x="591" 
d="M417 176v132q0 52 -34 101q-33 50 -92 50q-61 0 -93.5 -45t-32.5 -127v-114q0 -80 32 -124t95 -44q70 0 97 55q28 55 28 116zM516 718v-545q0 -72 -56 -136q-56 -62 -168 -62q-119 0 -173 63t-54 143v112q0 196 226 196q84 0 126 -66v278z" />
    <glyph glyph-name="uniE01C" unicode="&#xe01c;" horiz-adv-x="626" 
d="M175 257v-82q0 -51 34 -110q35 -60 102 -60q64 0 100 60q37 59 37 120v61q0 64 -36 125q-35 62 -103 62q-64 0 -99 -45t-35 -131zM75 189v371q0 79 34.5 118.5t118.5 39.5q65 0 105 -58q43 58 116 58q41 0 78 -27q39 -27 39 -69v-63h-84v63q0 69 -58 69q-30 0 -40 -25
t-10 -79v-16h-85v16q0 54 -11 79t-43 25q-48 0 -57 -18q-8 -19 -8 -76l-1 -195q60 62 142 62q107 0 172 -63q65 -62 64 -144v-74q0 -79 -65 -144q-63 -63 -171 -65q-236 2 -236 215z" />
    <glyph glyph-name="uniE01D" unicode="&#xe01d;" horiz-adv-x="561" 
d="M307 401l-11 128h-68q-54 0 -56 -62q2 -66 57 -66h78zM480 368h-88q0 -46 57 -98q57 -51 57 -131q0 -66 -53 -116q-53 -48 -171 -48q-106 0 -166.5 46t-60.5 119q0 70 100 125l31 -22q-31 -53 -31 -105q0 -46 34 -89q35 -44 93 -44q125 0 125 148q0 69 -49 124
q-48 55 -48 91h-80q-122 0 -123 99q2 92 123 92h66v126l-91 -18v35l177 15v-158h98v-30h-98l7 -128h91v-33z" />
    <glyph glyph-name="uniE01E" unicode="&#xe01e;" horiz-adv-x="591" 
d="M174 308v-132q0 -60 27 -116q28 -55 98 -55q63 0 95 44t32 124v114q0 82 -32.5 127t-93.5 45q-58 0 -93 -50q-33 -49 -33 -101zM75 173v545l99 -17v-278q40 66 126 66q226 0 226 -196v-112q0 -80 -54 -143t-173 -63q-112 0 -168 62q-56 64 -56 136z" />
    <glyph glyph-name="uniE01F" unicode="&#xe01f;" horiz-adv-x="581" 
d="M84 554v60h168l-13 104l89 20l-19 -124h185v-60h-183q0 -59 102 -164q103 -103 103 -195v-30q0 -79 -60 -135q-59 -54 -165 -56q-95 2 -161 60q-65 60 -65 125v44q0 89 119 157l26 -30q-45 -44 -45 -131v-34q0 -78 38 -119t88 -41q67 0 96 45q30 45 30 110v39
q0 80 -82 190q-82 112 -82 165h-169z" />
    <glyph glyph-name="uniE020" unicode="&#xe020;" horiz-adv-x="581" 
d="M516 136q0 -75 -59.5 -118t-164.5 -43q-227 0 -227 204h100q0 -69 30 -122q31 -52 97 -52q59 0 92 32.5t33 89.5q0 133 -69 133l-102 -10v67l102 -10q53 0 53 84q0 73 -68 73l-103 -10v70l103 -10q26 -1 39.5 18.5t13.5 59.5q0 67 -73 74q-82 8 -151 7v45q132 0 224 -19
q95 -20 98 -96q2 -66 -90 -107v-12q106 -31 106 -92q0 -67 -101 -103v-11q117 -36 117 -142z" />
    <glyph glyph-name="uniE021" unicode="&#xe021;" horiz-adv-x="591" 
d="M526 136q0 -56 -53 -109q-51 -51 -173 -53q-106 1 -165.5 53.5t-59.5 140.5v550l94 -17v-536q-1 -60 32 -110t100 -50q59 0 92 34.5t33 96.5q0 114 -68 114h-70v38h70q68 0 68 89q0 87 -84 87h-54v42h54q84 0 84 94q0 45 -31 63t-107 19v36q100 0 168 -28q69 -27 70 -88
q-1 -70 -128 -113v-11q127 -30 127 -98q0 -74 -118 -105v-13q119 -39 119 -126z" />
    <glyph glyph-name="uniE022" unicode="&#xe022;" horiz-adv-x="581" 
d="M165 469v-195q0 -140 126 -231q126 91 126 232v214q0 202 -127 202q-66 0 -95.5 -53.5t-29.5 -168.5zM65 -84v59q127 0 192 54q-192 113 -192 277v183q0 117 55 173t171 56q224 0 225 -229v-183q-1 -165 -190 -277q52 -54 190 -54v-59q-112 0 -225 88q-115 -88 -226 -88z
" />
    <glyph glyph-name="uniE023" unicode="&#xe023;" horiz-adv-x="581" 
d="M516 217v-53q0 -71 -59 -130t-166 -59q-93 0 -160 52q-66 52 -66 107v21q0 74 89 136l30 -33q-19 -34 -19 -90v-26q0 -56 39 -96q39 -41 87 -41q63 0 94.5 42.5t31.5 116.5v53q0 117 -37 148q-37 32 -66 32h-114v45h110q38 2 72 56q35 56 35 186h-252v-91h-84v115h435
v-68q0 -120 -150 -214v-11q150 -55 150 -198z" />
    <glyph glyph-name="uniE024" unicode="&#xe024;" horiz-adv-x="581" 
d="M516 171v-34q0 -63 -58 -112q-58 -50 -167 -50t-168 53q-58 52 -58 109q0 73 72 131l45 -41q-17 -25 -17 -78q0 -46 31 -95t95 -49q68 0 97 41q29 43 29 88v38q0 61 -21.5 89.5t-68.5 28.5h-49v40h49q46 1 68 49.5t22 157.5q-85 -68 -168 -68q-86 0 -135 33t-49 97
q0 70 64 94q63 25 224 25v-32q-103 0 -145.5 -22t-42.5 -74q0 -37 22 -64t62 -28q90 2 267 159q0 -290 -148 -342l1 -9q147 -40 147 -135z" />
    <glyph glyph-name="uniE025" unicode="&#xe025;" horiz-adv-x="642" 
d="M417 134v131h-126q-63 1 -94.5 -29.5t-32.5 -105.5q2 -49 32 -87q32 -38 95 -38q58 0 92 34.5t34 94.5zM165 562q0 -64 32.5 -97.5t93.5 -33.5h126v128q0 62 -34 97t-92 35q-62 0 -94 -35t-32 -94zM577 265l-61 1v-132q0 -73 -55.5 -116t-169.5 -43q-98 0 -162 43
t-64 116q0 62 65 115t161 53h126v96h-126q-97 0 -161 45q-65 47 -65 120q0 79 65 117t161 38q120 0 172 -49q53 -50 53 -110v-128h61v-33h-61v-96h61v-37z" />
    <glyph glyph-name="uniE026" unicode="&#xe026;" horiz-adv-x="809" 
d="M644 316v268q0 38 -24 72q-24 35 -71 35q-56 0 -77 -40q-21 -39 -21 -79v-305q0 -23 26.5 -43.5t71.5 -21.5q56 2 75 41q20 42 20 73zM258 718q99 0 146 -65q41 65 145 65q95 0 145 -43.5t50 -128.5v-202q-1 -73 -54 -124q-53 -50 -140 -50q-59 0 -99 24v-70
q0 -149 -236 -149v25q72 0 107 29.5t35 92.5l1 450q0 38 -21 79q-21 40 -77 40q-95 0 -95 -130v-217q0 -93 28 -112q27 -19 91 -17v-45q-107 0 -163 44t-56 130v200q0 91 48.5 132.5t144.5 41.5z" />
    <glyph glyph-name="_0170" horiz-adv-x="276" 
d="M166 576q0 51 -12 68.5t-40 17.5q-46 0 -46 -43q0 -42 -28 -42q-11 0 -19 8.5t-8 20.5q0 29 29 49.5t85 20.5q45 0 69 -15t30.5 -30.5t6.5 -54.5v-106q0 -27 1 -30q1 -5 6 -10q3 -3 6 -3q7 0 28 15v-23q-37 -27 -48 -31q-13 -5 -24 -5q-29 0 -36 46q-62 -44 -105 -44
q-26 0 -45 18t-19 42q0 21 11 38q13 22 52 45q27 16 106 48zM166 448v110q-101 -35 -101 -90q0 -17 12.5 -29.5t30.5 -12.5q23 0 58 22z" />
  </font>
</defs>
</svg>
